<?xml version="1.0" encoding="UTF-8"?>
<svg id="Camada_1" data-name="Camada 1" xmlns="http://www.w3.org/2000/svg" viewBox="0 0 187.54 187.54">
  <defs>
    <style>
      .cls-1 {
        fill: #c9741f;
      }

      .cls-2 {
        fill: #d48122;
      }

      .cls-3 {
        fill: #822f06;
      }

      .cls-4 {
        fill: #fbebce;
      }
    </style>
  </defs>
  <rect class="cls-4" width="187.54" height="187.54"/>
  <g>
    <circle class="cls-3" cx="93.77" cy="93.77" r="84.4"/>
    <g>
      <g>
        <circle class="cls-1" cx="117.86" cy="88.98" r="14.25"/>
        <path class="cls-1" d="m103.61,88.98s.56-12.29,14.25-24.59v24.59h-14.25Z"/>
        <path class="cls-1" d="m132.11,88.98s-.56-12.29-14.25-24.59v24.59s14.25,0,14.25,0Z"/>
      </g>
      <g>
        <circle class="cls-1" cx="69.69" cy="88.98" r="14.25"/>
        <path class="cls-1" d="m55.44,88.98s.56-12.29,14.25-24.59v24.59h-14.25Z"/>
        <path class="cls-1" d="m83.94,88.98s-.56-12.29-14.25-24.59v24.59s14.25,0,14.25,0Z"/>
      </g>
      <g>
        <circle class="cls-2" cx="93.98" cy="103.48" r="19.67"/>
        <path class="cls-2" d="m74.3,103.48s.77-16.97,19.67-33.95v33.95h-19.67Z"/>
        <path class="cls-2" d="m113.65,103.48s-.77-16.97-19.67-33.95v33.95s19.67,0,19.67,0Z"/>
      </g>
    </g>
    <g>
      <path class="cls-4" d="m64.1,34.84c-.39,1.87-1.5,3.37-3.09,4.43-4.09,2.73-7.7,1.07-9.63-1.78-1.94-2.87-2.02-7.04,1.96-9.7,1.49-1,3.29-1.38,5.17-1.01l-.49,2.26c-1.2-.22-2.39.1-3.35.74-2.66,1.77-2.48,4.52-1.24,6.35,1.23,1.81,3.56,3.01,6.28,1.2.96-.64,1.78-1.76,2.02-2.96l2.37.49Z"/>
      <path class="cls-4" d="m75.46,25.09c1.2,3.21.47,7.15-3.87,8.83-4.34,1.67-7.55-.67-8.81-3.92-1.25-3.25-.43-7.31,3.84-8.96,4.25-1.64,7.63.81,8.84,4.05Zm-10.37,4.06c.84,2.01,2.77,3.76,5.68,2.63,2.91-1.12,3.16-3.73,2.41-5.77-.77-2.09-2.83-3.97-5.74-2.85-2.91,1.12-3.2,3.93-2.35,5.99Z"/>
      <path class="cls-4" d="m84.95,16.64l2.71-.45.02.11-3.38,7.07,5.63,5.78v.07s-2.75.45-2.75.45l-4.15-4.36-2.53,5.46-2.76.45v-.08s3.45-7.28,3.45-7.28l-5.45-5.62-.02-.11,2.71-.44,4.07,4.33,2.47-5.41Z"/>
      <path class="cls-4" d="m91.03,29.47l-.31-13.23,2.48-.06.31,13.23-2.48.06Z"/>
      <path class="cls-4" d="m105.62,17l2.48.29-1.54,13.17-1.54-.18v.02s-5.88-9.69-5.88-9.69l-1.04,8.87-2.48-.29,1.54-13.15,2.01.23,5.49,8.91.96-8.17Z"/>
      <path class="cls-4" d="m116.72,33.68l1.72-5.07-6.16-2.09-1.72,5.07-2.36-.8,4.26-12.54,2.36.8-1.8,5.29,6.16,2.09,1.8-5.28,2.35.8-4.26,12.54-2.35-.8Z"/>
      <path class="cls-4" d="m129.96,37.83l-5.93-3.58-2.26,1.55-2.31-1.4,11.93-8.26,2.33,1.41-1.76,14.4-2.33-1.41.34-2.71Zm1.16-8.61l-5.02,3.55,4.21,2.54.81-6.1Z"/>
      <path class="cls-4" d="m150.32,61.31c-1.87-.39-3.37-1.5-4.43-3.09-2.73-4.09-1.07-7.7,1.78-9.63,2.87-1.94,7.04-2.02,9.7,1.96,1,1.5,1.38,3.29,1.01,5.17l-2.26-.49c.22-1.2-.1-2.39-.74-3.35-1.77-2.66-4.52-2.48-6.35-1.24-1.81,1.23-3.01,3.56-1.2,6.28.64.96,1.76,1.78,2.96,2.02l-.49,2.37Z"/>
      <path class="cls-4" d="m160.09,72.65c-3.21,1.2-7.16.48-8.83-3.86-1.68-4.34.67-7.56,3.91-8.81,3.25-1.26,7.31-.44,8.96,3.83,1.64,4.25-.8,7.63-4.04,8.84Zm-4.07-10.37c-2.01.84-3.75,2.77-2.63,5.68,1.12,2.91,3.74,3.16,5.78,2.41,2.09-.77,3.97-2.83,2.85-5.74-1.12-2.91-3.93-3.2-6-2.34Z"/>
      <path class="cls-4" d="m168.53,82.17l.45,2.71-.11.02-7.07-3.38-5.78,5.63h-.08s-.45-2.75-.45-2.75l4.36-4.15-5.46-2.53-.45-2.76h.08s7.28,3.45,7.28,3.45l5.62-5.45.11-.02.44,2.71-4.33,4.07,5.41,2.47Z"/>
      <path class="cls-4" d="m155.71,88.23l13.23-.31.06,2.48-13.23.31-.06-2.48Z"/>
      <path class="cls-4" d="m168.18,102.78l-.29,2.48-13.17-1.53.18-1.54h-.02s9.69-5.88,9.69-5.88l-8.87-1.03.29-2.48,13.15,1.53-.23,2.01-8.9,5.5,8.17.95Z"/>
      <path class="cls-4" d="m151.51,113.92l5.07,1.72,2.09-6.16-5.07-1.72.8-2.36,12.54,4.25-.8,2.36-5.28-1.79-2.09,6.16,5.28,1.79-.79,2.35-12.54-4.25.8-2.35Z"/>
      <path class="cls-4" d="m147.36,127.17l3.58-5.93-1.55-2.26,1.4-2.31,8.26,11.93-1.41,2.33-14.4-1.76,1.41-2.33,2.71.34Zm8.61,1.15l-3.55-5.02-2.54,4.21,6.1.81Z"/>
      <path class="cls-4" d="m123.89,147.52c.39-1.87,1.5-3.37,3.09-4.43,4.09-2.73,7.7-1.07,9.63,1.78,1.94,2.87,2.02,7.04-1.96,9.7-1.5,1-3.29,1.38-5.17,1.01l.49-2.26c1.2.22,2.39-.1,3.35-.74,2.66-1.77,2.48-4.52,1.24-6.35-1.23-1.81-3.56-3.01-6.28-1.2-.96.64-1.78,1.76-2.02,2.96l-2.37-.49Z"/>
      <path class="cls-4" d="m112.54,157.3c-1.2-3.21-.48-7.16,3.86-8.83,4.34-1.68,7.56.67,8.81,3.91,1.26,3.25.44,7.31-3.83,8.96-4.25,1.64-7.63-.8-8.84-4.04Zm10.37-4.07c-.84-2.01-2.77-3.75-5.68-2.63-2.91,1.12-3.16,3.74-2.41,5.78.77,2.09,2.83,3.97,5.74,2.85,2.91-1.12,3.2-3.93,2.34-6Z"/>
      <path class="cls-4" d="m103.06,165.75l-2.71.45-.02-.11,3.38-7.08-5.63-5.78v-.07s2.75-.46,2.75-.46l4.15,4.36,2.53-5.46,2.76-.46v.08s-3.44,7.28-3.44,7.28l5.45,5.62.02.11-2.71.45-4.07-4.33-2.46,5.41Z"/>
      <path class="cls-4" d="m96.95,152.93l.31,13.23-2.48.06-.31-13.23,2.48-.06Z"/>
      <path class="cls-4" d="m82.39,165.4l-2.48-.29,1.53-13.17,1.54.18v-.02s5.88,9.69,5.88,9.69l1.03-8.87,2.48.29-1.53,13.15-2.01-.23-5.5-8.9-.95,8.17Z"/>
      <path class="cls-4" d="m71.28,148.74l-1.72,5.07,6.16,2.09,1.72-5.07,2.36.8-4.25,12.54-2.36-.8,1.79-5.28-6.16-2.09-1.79,5.28-2.35-.79,4.25-12.54,2.35.8Z"/>
      <path class="cls-4" d="m58.03,144.6l5.93,3.57,2.26-1.55,2.32,1.4-11.92,8.27-2.33-1.41,1.75-14.4,2.33,1.41-.33,2.71Zm-1.15,8.6l5.02-3.56-4.21-2.54-.81,6.09Z"/>
      <path class="cls-4" d="m37.66,121.14c1.87.38,3.37,1.5,4.43,3.09,2.73,4.09,1.08,7.7-1.77,9.63-2.87,1.94-7.04,2.03-9.7-1.95-1-1.49-1.38-3.29-1.02-5.16l2.26.49c-.22,1.2.1,2.39.74,3.35,1.78,2.66,4.52,2.48,6.35,1.23,1.81-1.24,3.01-3.56,1.19-6.28-.64-.96-1.76-1.78-2.97-2.02l.48-2.37Z"/>
      <path class="cls-4" d="m27.88,109.79c3.21-1.2,7.16-.48,8.84,3.86,1.68,4.34-.66,7.56-3.91,8.82s-7.32.44-8.97-3.83c-1.65-4.25.8-7.63,4.04-8.85Zm4.08,10.37c2.01-.84,3.75-2.77,2.63-5.68-1.13-2.91-3.74-3.16-5.78-2.41-2.1.77-3.97,2.84-2.84,5.75,1.13,2.91,3.94,3.2,6,2.34Z"/>
      <path class="cls-4" d="m19.42,100.28l-.45-2.71.11-.02,7.08,3.38,5.78-5.63h.07s.46,2.75.46,2.75l-4.36,4.15,5.46,2.53.46,2.76h-.07s-7.28-3.44-7.28-3.44l-5.62,5.45-.11.02-.45-2.71,4.33-4.07-5.41-2.46Z"/>
      <path class="cls-4" d="m32.25,94.22l-13.23.32-.06-2.48,13.23-.32.06,2.48Z"/>
      <path class="cls-4" d="m19.77,79.65l.29-2.48,13.17,1.52-.18,1.54h.02s-9.68,5.89-9.68,5.89l8.87,1.02-.29,2.48-13.15-1.52.23-2.01,8.9-5.5-8.17-.94Z"/>
      <path class="cls-4" d="m36.42,68.52l-5.07-1.71-2.08,6.16,5.07,1.71-.8,2.36-12.54-4.24.8-2.37,5.28,1.79,2.08-6.16-5.28-1.79.79-2.35,12.54,4.24-.79,2.35Z"/>
      <path class="cls-4" d="m40.57,55.28l-3.57,5.93,1.55,2.26-1.4,2.31-8.27-11.92,1.41-2.33,14.4,1.75-1.41,2.33-2.71-.33Zm-8.6-1.15l3.55,5.01,2.54-4.21-6.09-.81Z"/>
    </g>
  </g>
</svg>