<?xml version="1.0" encoding="UTF-8"?>
<svg id="Camada_1" data-name="Camada 1" xmlns="http://www.w3.org/2000/svg" viewBox="0 0 187.54 187.54">
  <defs>
    <style>
      .cls-1 {
        fill: #c9741f;
      }

      .cls-2 {
        fill: #d48122;
      }

      .cls-3 {
        fill: #822f06;
      }

      .cls-4 {
        fill: #fbebce;
      }
    </style>
  </defs>
  <rect class="cls-4" width="187.54" height="187.54"/>
  <g>
    <circle class="cls-3" cx="93.77" cy="93.77" r="84.4"/>
    <g>
      <circle class="cls-1" cx="117.86" cy="89.23" r="14.25"/>
      <circle class="cls-1" cx="69.69" cy="89.23" r="14.25"/>
      <circle class="cls-2" cx="93.98" cy="93.77" r="19.67"/>
    </g>
    <g>
      <path class="cls-4" d="m23.45,81.48c1.02.1,1.95.69,2.37,1.96.62-1.5,2.32-1.9,3.14-1.82,2.94.29,3.66,2.58,3.39,5.31-.21,2.09-.41,4.16-.62,6.25l-13.17-1.3c.21-2.07.41-4.16.62-6.25.26-2.6,1.62-4.42,4.27-4.16Zm.64,8.48l.38-3.8c.16-1.56-.45-2.13-1.21-2.21-.6-.06-1.67.33-1.82,1.91l-.38,3.8,3.03.3Zm5.57.55l.38-3.8c.1-1.02-.09-2.5-1.34-2.62-1.18-.12-1.95,1.27-2.05,2.29l-.38,3.8,3.39.33Z"/>
      <path class="cls-4" d="m30.86,66.26c3.24,1.1,5.84,4.16,4.39,8.58-1.45,4.42-5.3,5.43-8.61,4.34-3.31-1.08-5.94-4.29-4.51-8.64,1.42-4.33,5.45-5.4,8.73-4.29Zm-3.42,10.6c2.08.62,4.66.23,5.63-2.73s-.89-4.81-2.95-5.52c-2.11-.73-4.87-.32-5.84,2.64-.97,2.97,1.02,4.97,3.16,5.61Z"/>
      <path class="cls-4" d="m27.49,58.55l9.5,5.41,3.37-5.92,2,1.14-4.6,8.08-11.5-6.55,1.23-2.17Z"/>
      <path class="cls-4" d="m43.29,58.12l-10.62-7.9,1.48-1.99,10.62,7.9-1.48,1.99Z"/>
      <path class="cls-4" d="m50.83,49.42l-1.83,1.83-13.29-5.51,1.98-1.98,10.11,4.46-4.45-10.12,1.98-1.98,5.51,13.29Z"/>
      <path class="cls-4" d="m55.75,45.05l-7.9-10.62,1.99-1.48,7.9,10.62-1.99,1.48Z"/>
      <path class="cls-4" d="m66.23,35.59l-6.1,3.28.18,2.74-2.38,1.28-1.04-14.48,2.4-1.29,11.5,8.85-2.4,1.29-2.17-1.67Zm-6.82-5.38l.5,6.13,4.33-2.33-4.83-3.8Z"/>
      <path class="cls-4" d="m76.07,20.77l2.4-.68,3.62,12.76-1.49.42v.02s-9.13-6.71-9.13-6.71l2.43,8.59-2.4.68-3.61-12.74,1.95-.55,8.48,6.13-2.24-7.92Z"/>
      <path class="cls-4" d="m96.47,25.19c.15,3.42-1.76,6.96-6.41,7.21s-6.98-2.97-7.17-6.45c-.19-3.48,1.85-7.09,6.42-7.34,4.55-.25,7.01,3.12,7.16,6.58Zm-11.12.67c.18,2.17,1.48,4.43,4.59,4.26,3.12-.17,4.16-2.58,4.08-4.75-.08-2.23-1.47-4.66-4.58-4.49s-4.26,2.75-4.08,4.98Z"/>
      <path class="cls-4" d="m139.82,39.24c-.6.83-1.58,1.33-2.89,1.05.98,1.29.47,2.96-.02,3.63-1.74,2.39-4.08,1.85-6.3.24-1.7-1.23-3.38-2.46-5.08-3.69l7.79-10.7c1.68,1.22,3.38,2.46,5.08,3.69,2.11,1.54,3,3.63,1.43,5.78Zm-10.93.79l3.09,2.25c.83.6,2.2,1.18,2.94.17.7-.96-.11-2.32-.93-2.93l-3.09-2.25-2,2.75Zm3.29-4.53l3.09,2.25c1.27.92,2.07.69,2.52.08.36-.49.56-1.6-.73-2.54l-3.09-2.25-1.79,2.46Z"/>
      <path class="cls-4" d="m149.18,53.27c-2.58,2.25-6.53,2.95-9.62-.53-3.09-3.48-2.02-7.31.58-9.62s6.7-2.97,9.74.45c3.03,3.41,1.92,7.42-.69,9.69Zm-7.44-8.28c-1.59,1.49-2.55,3.91-.47,6.24s4.6,1.65,6.25.23c1.69-1.45,2.73-4.04.66-6.38-2.07-2.33-4.8-1.62-6.43-.1Z"/>
      <path class="cls-4" d="m157.58,54.23l-9.45,5.5,3.43,5.88-1.99,1.16-4.68-8.04,11.44-6.67,1.26,2.16Z"/>
      <path class="cls-4" d="m150.01,68.11l12.17-5.21.98,2.28-12.17,5.21-.98-2.28Z"/>
      <path class="cls-4" d="m153.72,79l-.66-2.51,11.46-8.7.71,2.71-8.96,6.48,10.99,1.26.71,2.71-14.26-1.94Z"/>
      <path class="cls-4" d="m155.02,85.46l13.16-1.45.27,2.46-13.16,1.45-.27-2.46Z"/>
      <path class="cls-4" d="m157.9,99.29l.24-6.92-2.46-1.22.09-2.7,13.03,6.4-.09,2.72-13.44,5.48.09-2.72,2.53-1.03Zm8.08-3.18l-5.55-2.65-.17,4.92,5.72-2.26Z"/>
      <path class="cls-4" d="m165.77,115.2l-.62,2.42-12.85-3.28.38-1.5h-.02s10.39-4.53,10.39-4.53l-8.65-2.21.62-2.42,12.83,3.28-.5,1.96-9.56,4.25,7.97,2.04Z"/>
      <path class="cls-4" d="m151.68,130.64c-3.03-1.59-5.13-5.02-3.01-9.16,2.12-4.14,6.08-4.54,9.18-2.96,3.1,1.58,5.2,5.16,3.12,9.24-2.07,4.06-6.22,4.49-9.29,2.88Zm5.02-9.95c-1.96-.94-4.57-.95-5.99,1.83s.14,4.89,2.06,5.91c1.97,1.05,4.76,1.07,6.18-1.71s-.24-5.07-2.25-6.03Z"/>
      <path class="cls-4" d="m117.69,161.04c-.41-.93-.36-2.03.54-3.03-1.61.19-2.79-1.08-3.13-1.84-1.19-2.7.45-4.46,2.96-5.56,1.92-.85,3.82-1.69,5.75-2.53l5.34,12.11c-1.9.84-3.82,1.69-5.74,2.53-2.39,1.05-4.64.77-5.72-1.67Zm4.81-9.85l-3.5,1.54c-.93.41-2.13,1.31-1.63,2.45.48,1.09,2.06,1.07,3,.66l3.5-1.54-1.37-3.11Zm2.26,5.12l-3.5,1.54c-1.44.63-1.64,1.45-1.33,2.14.24.55,1.11,1.29,2.56.65l3.5-1.54-1.23-2.79Z"/>
      <path class="cls-4" d="m100.84,162.05c-.63-3.36.75-7.13,5.31-8.04,4.56-.91,7.33,1.95,8.01,5.36.68,3.41-.82,7.28-5.31,8.18-4.47.89-7.38-2.09-8.02-5.49Zm10.91-2.24c-.48-2.12-2.09-4.17-5.15-3.56-3.06.61-3.75,3.14-3.36,5.28.4,2.2,2.11,4.4,5.17,3.79,3.06-.61,3.83-3.33,3.33-5.51Z"/>
      <path class="cls-4" d="m95.62,168.83l.18-10.93-6.81-.11.04-2.31,9.3.15-.21,13.23-2.5-.04Z"/>
      <path class="cls-4" d="m87.63,155.27l-1.61,13.14-2.46-.3,1.61-13.14,2.46.3Z"/>
      <path class="cls-4" d="m76.34,153.01l2.5.69,1.77,14.28-2.7-.75-1.1-11-6.61,8.87-2.7-.75,8.85-11.35Z"/>
      <path class="cls-4" d="m70.12,150.89l-5.36,12.1-2.26-1,5.36-12.1,2.26,1Z"/>
      <path class="cls-4" d="m56.73,146.42l5.85,3.7,2.29-1.5,2.29,1.44-12.09,8.02-2.3-1.45,2.05-14.37,2.3,1.45-.39,2.71Zm-1.33,8.58l5.09-3.45-4.16-2.63-.93,6.08Z"/>
      <path class="cls-4" d="m39.02,145.17l-1.78-1.75,9.31-9.43,1.1,1.09h.01s-1.33,11.24-1.33,11.24l6.27-6.35,1.78,1.75-9.29,9.42-1.44-1.42,1.14-10.39-5.77,5.85Z"/>
      <path class="cls-4" d="m32.76,125.24c2.9-1.82,6.91-1.91,9.43,2,2.52,3.91.87,7.54-2.05,9.42s-7.08,1.9-9.55-1.95c-2.47-3.83-.75-7.63,2.18-9.48Zm6.08,9.33c1.8-1.23,3.12-3.47,1.43-6.09-1.69-2.62-4.29-2.34-6.14-1.19-1.9,1.18-3.32,3.58-1.63,6.2,1.69,2.62,4.5,2.34,6.35,1.09Z"/>
    </g>
  </g>
</svg>