<?xml version="1.0" encoding="UTF-8"?>
<svg id="Camada_1" data-name="Camada 1" xmlns="http://www.w3.org/2000/svg" viewBox="0 0 187.54 187.54">
  <defs>
    <style>
      .cls-1 {
        fill: #c9741f;
      }

      .cls-2 {
        fill: #d48122;
      }

      .cls-3 {
        fill: #822f06;
      }

      .cls-4 {
        fill: #fbebce;
      }
    </style>
  </defs>
  <rect class="cls-4" width="187.54" height="187.54"/>
  <g>
    <circle class="cls-3" cx="93.77" cy="93.77" r="84.4"/>
    <g>
      <rect class="cls-1" x="69.24" y="62.34" width="23.15" height="55.58" rx="9.63" ry="9.63" transform="translate(87.4 -30.75) rotate(45)"/>
      <rect class="cls-2" x="89.6" y="62.13" width="26.51" height="63.65" rx="11.03" ry="11.03" transform="translate(96.56 -45.21) rotate(45)"/>
    </g>
    <g>
      <path class="cls-4" d="m32.48,83.24l-.9,9.87c-4.39-.4-8.79-.8-13.18-1.2l.9-9.87,2.41.22-.67,7.4,3.03.28.65-7.14,2.32.21-.65,7.14,2.98.27.67-7.4,2.45.22Z"/>
      <path class="cls-4" d="m22.04,70.85l.67-2.41,12.77,3.55-.42,1.49h.02s-10.48,4.31-10.48,4.31l8.6,2.39-.67,2.4-12.75-3.55.54-1.95,9.64-4.05-7.93-2.2Z"/>
      <path class="cls-4" d="m40.78,61.04l-1.3,2.67-5.67,1.52-1.05,2.16,3.98,1.94-1.1,2.24-11.92-5.82c.92-1.89,1.86-3.77,2.78-5.65,1.39-2.8,3.98-3.36,6.04-2.36,1.63.8,2.92,2.35,2.27,4.83l5.82-1.62.15.08Zm-13.86,3.51l3.81,1.86,1.67-3.42c.7-1.43.04-2.5-.91-2.97-.95-.46-2.21-.3-2.9,1.11l-1.67,3.42Z"/>
      <path class="cls-4" d="m42.91,47.47c2.71,2.09,4.18,5.83,1.38,9.54-2.8,3.71-6.77,3.42-9.55,1.32-2.78-2.09-4.22-5.98-1.47-9.63,2.74-3.64,6.9-3.34,9.64-1.23Zm-6.66,8.92c1.77,1.26,4.33,1.73,6.21-.76,1.88-2.49.71-4.84-1-6.18-1.76-1.37-4.5-1.88-6.38.61s-.65,5.03,1.17,6.33Z"/>
      <path class="cls-4" d="m41.08,40.13l7.43,8.03,5-4.62,1.57,1.69-6.83,6.32-8.99-9.72,1.83-1.7Z"/>
      <path class="cls-4" d="m61.46,37.98l-5.81,3.75.4,2.71-2.27,1.47-2.19-14.34,2.29-1.48,12.17,7.9-2.29,1.48-2.29-1.49Zm-7.22-4.81l.99,6.07,4.13-2.67-5.12-3.4Z"/>
      <path class="cls-4" d="m74.16,27.78c1.27,3.1.6,6.99-3.71,8.68-1.51.59-3.33,1.3-4.84,1.89l-4.82-12.33c1.51-.59,3.33-1.3,4.84-1.89,4.23-1.65,7.29.62,8.53,3.65Zm-7.12,7.43l2.54-.99c2.8-1.09,3.11-3.57,2.27-5.56-.8-1.9-2.68-3.38-5.36-2.33l-2.54.99,3.08,7.89Z"/>
      <path class="cls-4" d="m76.84,34.26l-3.27-12.83,2.4-.61,3.27,12.83-2.4.61Z"/>
      <path class="cls-4" d="m86.74,18.98l2.48-.32,1.7,13.15-1.54.2v.02s-8.05-7.98-8.05-7.98l1.15,8.85-2.48.32-1.7-13.13,2.01-.26,7.49,7.31-1.06-8.16Z"/>
      <path class="cls-4" d="m100.31,32.29l.32-5.34-6.49-.38-.31,5.34-2.49-.15.78-13.21,2.49.15-.33,5.57,6.49.38.33-5.57,2.47.15-.78,13.21-2.47-.15Z"/>
      <path class="cls-4" d="m117.48,29.41c-.92,3.3-3.83,6.07-8.32,4.87-4.5-1.2-5.72-4.99-4.82-8.35.9-3.36,3.95-6.17,8.38-4.99,4.41,1.17,5.7,5.14,4.77,8.47Zm-10.78-2.81c-.5,2.12.03,4.67,3.05,5.47,3.02.8,4.75-1.16,5.35-3.25.61-2.15.05-4.88-2.97-5.68-3.02-.8-4.91,1.3-5.43,3.47Z"/>
      <path class="cls-4" d="m134.27,47.02l-7.96-5.9c2.62-3.54,5.26-7.1,7.88-10.64l7.96,5.9-1.44,1.95-5.97-4.43-1.81,2.45,5.76,4.27-1.39,1.87-5.76-4.27-1.78,2.4,5.97,4.43-1.46,1.98Z"/>
      <path class="cls-4" d="m150.29,44.55l1.71,1.82-9.67,9.07-1.06-1.13h-.01s1.76-11.18,1.76-11.18l-6.51,6.11-1.71-1.82,9.66-9.06,1.38,1.48-1.55,10.35,6-5.63Z"/>
      <path class="cls-4" d="m148.95,65.64l-1.61-2.5,1.63-5.64-1.3-2.02-3.72,2.4-1.35-2.1,11.15-7.18c1.14,1.76,2.26,3.54,3.39,5.3,1.67,2.63.82,5.14-1.11,6.38-1.53.98-3.52,1.28-5.31-.56l-1.63,5.82-.14.09Zm4.18-13.67l-3.56,2.29,2.06,3.2c.86,1.33,2.12,1.33,3.01.76.89-.57,1.4-1.73.55-3.05l-2.06-3.2Z"/>
      <path class="cls-4" d="m159.47,74.5c-3.19,1.24-7.15.56-8.88-3.76s.58-7.56,3.81-8.86c3.23-1.29,7.31-.52,9.01,3.73,1.69,4.23-.72,7.64-3.94,8.89Zm-4.19-10.32c-2,.86-3.72,2.81-2.57,5.71,1.16,2.9,3.77,3.12,5.8,2.34,2.09-.79,3.94-2.88,2.78-5.78-1.16-2.9-3.97-3.16-6.02-2.28Z"/>
      <path class="cls-4" d="m166.69,76.77l-10.72,2.17,1.35,6.67-2.26.46-1.85-9.12,12.98-2.63.5,2.45Z"/>
      <path class="cls-4" d="m157.91,95.28l-.18-6.92-2.53-1.07-.07-2.7,13.39,5.58.07,2.72-13.08,6.29-.07-2.72,2.47-1.18Zm7.87-3.67l-5.7-2.31.13,4.92,5.57-2.61Z"/>
      <path class="cls-4" d="m160.06,111.41c-3.31-.52-6.29-3.11-5.5-7.67.28-1.6.61-3.52.89-5.12l13.04,2.26c-.28,1.6-.61,3.52-.89,5.12-.78,4.47-4.31,5.91-7.54,5.41Zm-2.67-9.94l-.47,2.68c-.51,2.96,1.44,4.51,3.58,4.82,2.04.3,4.28-.54,4.77-3.38l.47-2.68-8.35-1.45Z"/>
      <path class="cls-4" d="m153.12,110.37l12.67,3.86-.72,2.37-12.67-3.86.72-2.37Z"/>
      <path class="cls-4" d="m161.04,126.78l-1.01,2.28-12.12-5.37.63-1.42h-.02s11-2.75,11-2.75l-8.16-3.62,1.01-2.28,12.1,5.36-.82,1.85-10.13,2.61,7.52,3.33Z"/>
      <path class="cls-4" d="m142.61,131.44l4.4,3.05,3.71-5.34-4.4-3.05,1.42-2.05,10.87,7.55-1.42,2.05-4.58-3.18-3.71,5.34,4.58,3.18-1.41,2.04-10.87-7.55,1.41-2.03Z"/>
      <path class="cls-4" d="m136.16,147.6c-2.34-2.5-3.2-6.42.16-9.64,3.36-3.22,7.23-2.3,9.64.21,2.41,2.51,3.22,6.58-.08,9.75-3.29,3.16-7.35,2.2-9.71-.32Zm8-7.75c-1.55-1.53-4-2.4-6.25-.24-2.25,2.16-1.47,4.66,0,6.26,1.52,1.64,4.15,2.57,6.4.41s1.44-4.86-.15-6.44Z"/>
      <path class="cls-4" d="m116.86,151.23l8.86-4.45c1.98,3.94,3.96,7.9,5.94,11.83l-8.86,4.45-1.09-2.16,6.64-3.33-1.37-2.72-6.41,3.21-1.04-2.08,6.41-3.22-1.34-2.67-6.64,3.33-1.1-2.2Z"/>
      <path class="cls-4" d="m111.83,166.63l-2.4.7-3.71-12.73,1.49-.43v-.02s9.18,6.64,9.18,6.64l-2.5-8.57,2.4-.7,3.71,12.71-1.94.57-8.53-6.06,2.3,7.9Z"/>
      <path class="cls-4" d="m93.65,155.88l2.95-.3,4.29,4.01,2.39-.25-.45-4.4,2.48-.25,1.35,13.19c-2.09.21-4.18.41-6.27.62-3.11.3-4.95-1.6-5.19-3.88-.18-1.81.46-3.71,2.91-4.48l-4.45-4.09-.02-.17Zm10.29,9.92l-.43-4.21-3.78.39c-1.58.16-2.15,1.28-2.04,2.34s.91,2.04,2.47,1.88l3.78-.39Z"/>
      <path class="cls-4" d="m80.95,161.25c.34-3.41,2.74-6.63,7.37-6.22,4.64.41,6.49,3.94,6.18,7.41-.31,3.47-2.84,6.76-7.4,6.35-4.54-.4-6.49-4.09-6.15-7.54Zm11.1.93c.14-2.17-.83-4.59-3.94-4.87-3.11-.28-4.49,1.96-4.72,4.12-.24,2.22.79,4.82,3.9,5.1,3.11.28,4.61-2.12,4.76-4.34Z"/>
      <path class="cls-4" d="m75.71,166.68l2.89-10.54-6.56-1.8.61-2.22,8.97,2.46-3.5,12.76-2.41-.66Z"/>
      <path class="cls-4" d="m63.12,150.49l6.25,2.97,2.09-1.77,2.44,1.16-11.04,9.42-2.46-1.17.31-14.51,2.46,1.17-.06,2.73Zm-.28,8.68l4.64-4.04-4.44-2.11-.19,6.15Z"/>
      <path class="cls-4" d="m47.78,145.09c1.96-2.71,5.62-4.2,9.33-1.42,1.3.97,2.86,2.14,4.16,3.12l-7.94,10.6c-1.3-.98-2.86-2.14-4.16-3.12-3.63-2.72-3.31-6.52-1.4-9.17Zm10.07,2.13l-2.18-1.63c-2.41-1.8-4.68-.76-5.92,1-1.19,1.68-1.46,4.06.84,5.78l2.18,1.63,5.08-6.78Z"/>
      <path class="cls-4" d="m51.87,139.39l-9.17,9.55-1.79-1.71,9.17-9.55,1.79,1.72Z"/>
      <path class="cls-4" d="m33.66,139.06l-1.58-1.93,10.26-8.4.98,1.2h.01s-2.51,11.04-2.51,11.04l6.91-5.65,1.58,1.93-10.24,8.38-1.28-1.57,2.24-10.22-6.37,5.21Z"/>
      <path class="cls-4" d="m37.79,120.49l-4.71,2.55,3.1,5.72,4.71-2.55,1.19,2.2-11.64,6.3-1.19-2.2,4.91-2.66-3.1-5.72-4.91,2.66-1.18-2.18,11.64-6.3,1.18,2.18Z"/>
      <path class="cls-4" d="m26.29,107.42c3.29-.96,7.17.06,8.52,4.51,1.35,4.45-1.23,7.49-4.56,8.5-3.33,1.01-7.33-.11-8.66-4.49-1.32-4.36,1.37-7.55,4.69-8.52Zm3.29,10.64c2.06-.69,3.95-2.48,3.04-5.47-.91-2.99-3.49-3.43-5.58-2.83-2.15.61-4.17,2.53-3.27,5.52.91,2.99,3.69,3.49,5.81,2.78Z"/>
    </g>
  </g>
</svg>