<?xml version="1.0" encoding="UTF-8"?>
<svg id="Camada_1" data-name="Camada 1" xmlns="http://www.w3.org/2000/svg" viewBox="0 0 50 50">
  <defs>
    <style>
      .cls-1 {
        fill: #262626;
      }

      .cls-2 {
        fill: #fff;
      }

      .cls-3 {
        fill: #dbdbdb;
      }

      .cls-4 {
        fill: #f9e0cf;
      }

      .cls-5 {
        fill: #e8e3df;
      }

      .cls-6 {
        fill: #633809;
      }

      .cls-7 {
        fill: #c6c1be;
      }

      .cls-8 {
        fill: #d48122;
      }

      .cls-9 {
        fill: #a30036;
      }

      .cls-10 {
        fill: #472704;
      }

      .cls-11 {
        fill: #d4003e;
      }

      .cls-12 {
        fill: none;
      }

      .cls-13 {
        fill: #e2af8d;
      }

      .cls-14 {
        fill: #973905;
      }

      .cls-15 {
        fill: #f2c4a5;
      }

      .cls-16 {
        fill: #593204;
      }
    </style>
  </defs>
  <circle class="cls-14" cx="25" cy="26.56" r="23.44"/>
  <circle class="cls-8" cx="25" cy="26.56" r="18.65"/>
  <g>
    <path class="cls-10" d="m7.24,42.17c-.27.21-.56.39-.75.66-.25.34-.32.8-.25,1.21s.26.81.5,1.16c.16.23.34.45.58.58s.57.14.79-.04.25-.56.02-.72c.54.08,1.15.15,1.58-.2.13-.11.25-.25.42-.26.17,0,.31.13.36.3s0,.33-.04.49c-.13.42-.38.85-.26,1.27.06.19.18.36.29.53s.19.37.16.57-.24.38-.43.32c.47.21.95.41,1.47.44s1.07-.16,1.34-.6c.33-.54.14-1.23.21-1.85.07-.65.43-1.3.22-1.91-.13-.37-.44-.64-.73-.91-.95-.89-1.76-1.93-2.38-3.07-.17-.31-.41-1.32-.93-1.06-.23.12-.27.45-.36.67-.12.3-.26.58-.43.85-.36.6-.83,1.13-1.38,1.56Z"/>
    <path class="cls-10" d="m14.5,17.59c2.21-3.83,6.78-5.45,11.09-5.76.02-.05.05-.1.07-.16-3.12-.15-6.38.34-8.98,2.06-1.18.78-2.19,1.84-2.9,3.06-.54.93-1.26,2.42-1.1,3.54.08.56.39.45.79.1.46-.4.82-.91,1.29-1.31,1.13-.98,2.46-1.72,3.89-2.17-1.43-.16-2.79-.1-4.15.64Z"/>
    <path class="cls-10" d="m35.66,26.37c-1.24.75-1.3,2.19-1.35,3.53.1-.24.19-.48.28-.72.25-.63.57-1.28,1.15-1.62.58-.35,1.47-.24,1.76.38.02-.54.03-1.09.04-1.64,0-.04,0-.09,0-.13-.61-.21-1.3-.16-1.88.21Z"/>
    <path class="cls-10" d="m35.76,17.21c-.16-.27-.35-.53-.62-.68-.27-.15-.66-.13-.85.12-.08.11-.12.26-.15.4.82,1.49,1.6,3.03,2.14,4.61.34.13.69.18,1.04.17-.24-1.64-.7-3.21-1.56-4.63Z"/>
    <path class="cls-10" d="m37.31,21.83c-.35.01-.7-.04-1.04-.17.48,1.42.77,2.88.72,4.39.19.02.37.05.55.11.02-1.45-.02-2.91-.22-4.33Z"/>
    <path class="cls-10" d="m27.98,17.28c-2.97-1.41-6.58-1.42-9.9-.38.19.01.38.03.57.05.98-.31,2.01-.49,3.04-.51,3.5-.06,6.99,1.71,9.01,4.58,2.02,2.86,2.53,6.49,2.98,9.96.28-.31.47-.69.63-1.08,0-.01,0-.02,0-.04-.35-4.94-1.64-10.52-6.33-12.59Z"/>
    <path class="cls-16" d="m36.27,21.66s-.05-.02-.08-.03c.03.01.05.02.08.03-.54-1.58-1.32-3.11-2.14-4.61-.04.16-.08.32-.19.43-.28.26-.73.05-1.05-.16-.15-.1-.3-.2-.45-.3.9,1.52,1.6,3.09,3.06,4.18-1.46-1.09-2.16-2.66-3.06-4.18-2.37-1.52-4.95-2.71-7.65-3.5.27-.56.53-1.12.8-1.68-4.31.31-8.88,1.92-11.09,5.76,1.18-.64,2.35-.77,3.58-.69,3.32-1.05,6.93-1.04,9.9.38,4.69,2.07,5.98,7.65,6.33,12.59.05-1.34.12-2.76,1.35-3.5.41-.26.88-.36,1.33-.32.05-1.51-.23-2.97-.72-4.39Z"/>
    <path class="cls-6" d="m17.1,15.7c.81-.41,4.41-2.11,8.82-.85,4.77,1.36,6.94,5.17,7.33,5.88-.67-.99-2.8-3.82-6.79-5.2-4.49-1.56-8.32-.23-9.36.17Z"/>
    <path class="cls-6" d="m18.11,14.71c.81-.41,4.41-2.11,8.82-.85,4.77,1.36,6.94,5.17,7.33,5.88-.67-.99-2.8-3.82-6.79-5.2-4.49-1.56-8.32-.23-9.36.17Z"/>
    <path class="cls-10" d="m16.62,16.19c4.23-1.93,9.49-1.3,13.14,1.6,1.22.95,2.28,2.1,3.09,3.4-.92-1.23-2.02-2.3-3.24-3.2-3.68-2.76-8.69-3.36-12.99-1.8h0Z"/>
    <path class="cls-10" d="m17.71,15.11c4.23-1.93,9.49-1.3,13.14,1.6,1.22.95,2.28,2.1,3.09,3.4-.92-1.23-2.02-2.3-3.24-3.2-3.68-2.76-8.69-3.36-12.99-1.8h0Z"/>
    <path class="cls-10" d="m18.79,14.02c4.23-1.93,9.49-1.3,13.14,1.6,1.22.95,2.28,2.1,3.09,3.4-.92-1.23-2.02-2.3-3.24-3.2-3.68-2.76-8.69-3.36-12.99-1.8h0Z"/>
    <path class="cls-1" d="m12.48,39.69c-.1.12-.23.21-.37.27-.45.18-.76-.15-1.14.1-.24.16-.4.48-.37.77.05.42.5.45.62.89.09.36-.06.88-.48,1.11-.39.21-.89.11-1.23-.24.55.63.5,1.48.11,1.84-.44.4-1.46.32-1.99-.51-.05.09-.22.41-.15.82.1.56.57.82.63.85-.15-.05-1.22-.42-1.51-1.42-.04-.14-.29-1.02.24-1.43.31-.23.77-.23,1.2-.02-.25-.41-.26-.9-.02-1.2.23-.3.62-.32.76-.33.47-.03.81.21.91.29-.1-.15-.55-.85-.37-1.72.04-.2.18-.86.78-1.21.27-.16.54-.2.7-.21-.06-.2-.13-.47-.18-.78-.05-.01-.09-.03-.14-.04-.23.04-.44.07-.64.1,0,.06.02.11.03.17-.05.03-.11.06-.16.09-.59.35-.98.93-1.15,1.73-.06.3-.07.58-.05.84-.47.07-.83.28-1.09.6-.18.22-.29.49-.33.78-.27.05-.51.15-.72.31-.73.55-.67,1.7-.52,2.27.31,1.14,1.58,2,3.18,2.11l-.75-1.15c.21.06.42.09.64.09.47,0,.91-.16,1.21-.44.36-.33.55-.82.55-1.33.14-.03.28-.08.4-.15.8-.42,1.04-1.35.87-2-.09-.36-.29-.59-.46-.74.08.01.18.02.29.02.21,0,.41-.04.6-.12.22-.09.41-.22.57-.38-.17-.2-.34-.4-.5-.61Z"/>
    <path class="cls-1" d="m15.21,42.21c-.25-.13-.49-.28-.72-.45,0,0-.01,0-.02.01-.33.22-.64.38-.86.48.08.11.2.3.25.56.1.57-.24,1.02-.34,1.16-.45.59-1.14.69-1.29.7.1.02.44.1.68.42.07.09.26.35.2.66-.06.32-.37.58-.77.64.37.16.62.45.64.77.03.56-.66.88-.77.93-.78.36-1.61-.11-1.72-.18.06.02.48.18.89-.06.3-.18.41-.46.44-.54-.82.11-1.42-.48-1.41-.98.01-.44.52-.94,1.23-.93-.4-.02-.74-.29-.82-.64-.09-.39.16-.78.44-.91.34-.17.6.1.9-.1.2-.13.32-.42.28-.65-.05-.37-.43-.39-.56-.78-.13-.4.1-.9.39-1.18.37-.35.71-.21,1.06-.45-.18-.2-.36-.41-.54-.62-.02,0-.04,0-.07.02-.24.05-.61.13-.99.48-.46.44-.85,1.25-.6,2,.06.18.15.33.24.44-.16.02-.32.06-.47.13-.55.27-1.04.99-.86,1.79.02.1.05.19.09.28-.31.3-.5.68-.52,1.1-.01.42.17.85.49,1.18.11.11.23.21.37.3-.47-.06-.93-.12-1.4-.18.18.28.68.94,1.57,1.25.35.12.68.16.93.16h0c.34,0,.66-.07.96-.21.82-.38,1.27-1,1.23-1.69-.01-.21-.07-.41-.17-.6.14-.18.24-.39.28-.62.07-.34,0-.68-.17-1.01.15-.12.3-.27.44-.44.54-.71.56-1.35.49-1.77,0-.02,0-.04-.01-.06.1-.06.2-.12.3-.19.09-.06.19-.14.3-.21Z"/>
    <path class="cls-10" d="m24.58,14.86c3,1.09,5.85,2.59,8.45,4.44.34.25.69.5,1.09.65s.86.17,1.23-.04c.71-.4.72-1.48.29-2.17-.48-.77-1.32-1.22-2.12-1.64-2.12-1.11-4.31-2.24-6.69-2.42-.8-.06-2.07-.26-2.83.04-.92.36.07.94.6,1.13Z"/>
    <path class="cls-1" d="m33.42,32.13c-.43-.73-.75-1.64-.93-2.63-.03-.16-.06-.34-.08-.53-.02-.18-.04-.37-.05-.58v-.04c0-.07,0-.14,0-.21v-.02s0-.1,0-.1c-.12-2.79-1.09-5.38-2.74-7.29l-.05-.06h0c-1.77-2.11-4.6-3.31-7.76-3.31-1.76,0-3.5.37-5.18,1.09-.74.32-1.45.7-2.11,1.14-.32.62-.61,1.26-.87,1.92v.02s-1.51,2.11-1.51,2.11v-.48c0-.56.04-3.06.16-3.64.85-4.23,4.81-7.11,8.34-8.09,1.04-.29,2.09-.43,3.2-.43.55,0,1.01.03,1.44.07.16.01.35.03.55.06l.35.04-.26.23c-.17.15-.24.29-.26.49v.16s-.17-.02-.17-.02c-.11-.01-.2-.02-.28-.03-.41-.03-.85-.06-1.37-.06-1.02,0-1.99.13-2.94.4-3.16.88-6.9,3.56-7.67,7.37-.05.26-.12.91-.14,1.18.16-.28.49-.59.67-.86.22-.33.59-.62.73-.89l.43-.49.31-.28c.73-.49.13-.39,1.03-.77,1.8-.77,3.66-1.16,5.55-1.16,3.47,0,6.58,1.35,8.53,3.7h.01c1.78,2.08,2.83,4.87,2.96,7.88v.02s0,.05,0,.08c0,.07,0,.16,0,.24,0,.19.02.36.04.52.02.17.04.32.07.47.12.67.31,1.29.56,1.83,0-.04,0-.08.01-.13.24-2.24,1.26-3.94,2.37-3.94.04,0,.08,0,.11,0,.05,0,.12.01.2.04.33.13.5.49.58.86.06-.66.1-1.69.03-3.07-.08-1.55-.28-3.1-.6-4.6-.44-1.26-1.06-2.42-1.85-3.44-.13-.17-.28-.34-.46-.55l-.1-.12.12-.1s.04-.04.05-.06h0c.03-.05.05-.08.06-.11h0s0-.02,0-.02c.06-.11.1-.21.13-.33l.06-.3.21.23c.23.25.45.51.66.78.86,1.11,1.53,2.36,2,3.72l.02.05v.05c.34,1.55.55,3.15.63,4.75,0,.16.21,3.96-.41,4.61l-.23.24h-.34c-.49,0-.77-.32-.83-.96-.04-.42-.09-.63-.12-.73-.42.13-1.17,1.28-1.36,3.08-.02.22-.04.42-.04.62l-.06,2.76-1.4-2.38Z"/>
    <g>
      <path class="cls-12" d="m39.87,44.44l.56-.47c.07-.06.14-.12.21-.19-.46-.09-.79-.28-1-.47.01.04.03.07.04.11.13.33.18.67.18,1.02Z"/>
      <path class="cls-10" d="m42.93,41.04c-.08-.06-.2-.1-.33-.1-.15,0-.31.04-.46.12l-1.22.59.71-1.15c.17-.27.18-.58.05-.75-.13-.16-.38-.18-.47-.18-.02,0-.04,0-.06,0-.28,0-.5.14-.58.21l-.56-.53c-.13.06-.27.09-.42.11-.07.08-.14.14-.21.2-.12.1-.17.15-.2.25-.05.18.03.52.29.66.08.04.16.06.26.06.18,0,.37-.08.5-.22l.58.52c-.42.48-.36,1.09-.14,1.3.09.08.25.13.42.13.38,0,.75-.21.98-.56l.35-.54.32.55c.07.12.17.33.2.59.04-.08.07-.16.1-.25.11-.37.14-.83-.1-1.01Z"/>
      <path class="cls-16" d="m40,39.24c.14-.21.45-.75.31-1.41-.04-.17-.15-.69-.6-.96-.15-.09-.33-.14-.52-.16l-.49-.03.14-.47c.11-.36.18-.72.23-1.09.06-.47.11-1.4-.15-2.36-.19-.72-.86-2.44-1.85-2.94-.11.08-.2.17-.28.27-.22.28-.34.61-.46.94-.77,2.16-1.35,4.39-1.71,6.65-.12.72-.21,1.45-.25,2.17.76-.51,1.52-1,2.36-1.32-.12-.12-.22-.25-.32-.4l-.19-.3.29-.22c.06-.04.1-.08.14-.12.11-.12.2-.26.27-.4l.37-.82.34.83c.1.24.25.42.41.49.05.02.1.03.15.03.06,0,.13-.01.21-.02.09-.01.19-.03.31-.03.2,0,.38.05.54.16.37.24.59.71.54,1.14-.03.22-.12.38-.22.5.15-.02.3-.05.42-.11h0Z"/>
      <path class="cls-10" d="m34.5,42.28c.21,1.17.69,2.31,1.48,3.2.26.3.59.72.97.87.54.21,1.31.1,1.87.11.22,0,.46,0,.63-.13.17-.14.22-.38.26-.59.07-.37.13-.75.15-1.12h-.22s.22-.19.22-.19c0-.35-.05-.7-.18-1.02-.01-.03-.03-.07-.04-.11-.01-.01-.03-.02-.04-.04-.37-.34-.59-.8-.66-1.33-.07-.03-.15-.06-.21-.1-.3-.16-.55-.38-.74-.66l-.11-.16.06-.18c.14-.45.08-.97-.15-1.35l-.11-.18s.08-.19.09-.2c-.1-.02-.2-.05-.3-.09-.27-.11-.52-.28-.73-.5-.84.32-1.61.81-2.36,1.32-.04.82-.02,1.63.12,2.43Z"/>
      <path class="cls-1" d="m39.64,44.62h.22c0-.06,0-.12,0-.19l-.22.19Z"/>
      <path class="cls-10" d="m39.64,43.31s0-.01,0-.02c0,0,0,0,0,.01,0,0,0,0,.01,0Z"/>
      <path class="cls-10" d="m43.48,40.84c-.54-1.29-2.24-1.86-2.62-3.21-.12-.42-.1-.9-.37-1.24-.14-.18-.34-.3-.48-.48-.31-.39-.24-.94-.21-1.44.09-1.34-.22-2.7-.87-3.88-.27-.49-.69-1-1.26-1-.22,0-.43.09-.61.22.99.5,1.65,2.22,1.85,2.94.26.96.2,1.89.15,2.36-.04.37-.12.74-.23,1.09l-.14.47.49.03c.19.01.37.07.52.16.45.27.56.79.6.96.14.66-.17,1.21-.31,1.41l.56.53c.08-.06.3-.21.58-.21.02,0,.04,0,.06,0,.1,0,.35.02.47.18.14.18.12.48-.05.75l-.71,1.15,1.22-.59c.16-.08.32-.12.46-.12.13,0,.25.03.33.1.23.18.2.64.1,1.01-.03.09-.06.17-.1.25-.04-.26-.13-.47-.2-.59l-.32-.55-.35.54c-.23.35-.59.56-.98.56-.17,0-.33-.05-.42-.13-.22-.2-.28-.81.14-1.3l-.58-.52c-.13.14-.32.22-.5.22-.09,0-.18-.02-.26-.06-.26-.14-.34-.48-.29-.66.02-.09.08-.15.2-.25.16-.14.38-.33.43-.7.05-.43-.17-.9-.54-1.14-.16-.11-.34-.16-.54-.16-.11,0-.22.02-.31.03-.07.01-.15.02-.21.02-.06,0-.1,0-.15-.03-.16-.07-.31-.24-.41-.49l-.34-.83-.37.82c-.07.15-.15.28-.27.4-.04.04-.08.08-.14.12l-.29.22.19.3c.15.23.32.43.52.59.44-.39.97-.23,1.38.04.86.43-.11,1.51.19,2.41.27.06.5.16.6.26.32.42.64.99.61,1.51.1-.07.25-.1.38-.1.31-.02.63-.04.93.04.3.08.59.28.69.58.03.09.05.18.11.24.09.08.24.06.36.02.56-.19,1.03-.62,1.27-1.15.24-.54.25-1.18.02-1.72Z"/>
      <path class="cls-10" d="m39.11,41.42c-.1-.1-.32-.2-.6-.26.03.09.07.17.12.26-.14,0-.29,0-.44,0,.16.17.33.31.54.42.07.04.14.07.21.1.06.53.29.99.66,1.33,0,0,.02.02.03.03,0,0,0,0,0-.01-.03-.08-.04-.15-.02-.23.02-.06.05-.1.1-.13.02-.52-.29-1.09-.61-1.51Z"/>
      <path class="cls-10" d="m38.32,38.75c-.41-.27-.94-.43-1.38-.04.16.13.34.24.53.32.1.04.2.07.3.09,0,0-.09.2-.09.2l.11.18c.24.38.3.9.15,1.35l-.06.18.11.16c.06.09.13.17.2.25.15,0,.31,0,.44,0-.63-.94.63-2.19-.31-2.66Z"/>
    </g>
    <path class="cls-10" d="m37.98,31.41c.9,1.58,1,3.53.32,5.14.53-1.66.24-3.52-.72-4.89l.4-.25h0Z"/>
    <path class="cls-10" d="m37.92,33.22c.28.77.32,1.59.15,2.34.02-.77-.19-1.52-.58-2.14l.42-.2h0Z"/>
    <path class="cls-10" d="m38.57,37.13c.66-.21,1.43.37,1.43,1.06-.24-.62-.77-1-1.43-1.06h0Z"/>
    <path class="cls-1" d="m43.64,40.1c-.21-.16-.45-.26-.72-.31-.04-.28-.15-.55-.33-.78-.26-.33-.62-.53-1.09-.6.02-.26.01-.54-.05-.84-.17-.79-.55-1.37-1.15-1.73-.05-.03-.11-.06-.16-.09.03-.17.06-.34.08-.52.08-.67.11-1.71-.18-2.8-.11-.39-1.1-3.84-3.43-3.95-.04,0-.07,0-.11,0-.17,0-.32.02-.47.05.08.25.11.51.12.78.13-.03.28-.05.43-.04,1.79.08,2.67,3.23,2.71,3.37.28,1.04.22,2.01.16,2.51-.06.48-.15.87-.24,1.16.16.01.43.05.7.21.6.36.74,1.02.78,1.21.18.87-.27,1.57-.37,1.72.09-.07.43-.32.91-.29.13,0,.52.04.76.33.24.31.23.79-.02,1.2.43-.21.9-.21,1.2.02.53.4.28,1.28.24,1.43-.28.99-1.36,1.37-1.51,1.42.06-.03.53-.29.63-.85.08-.41-.09-.73-.15-.82-.54.83-1.55.91-1.99.51-.39-.36-.44-1.21.11-1.84-.33.35-.84.45-1.23.24-.42-.23-.58-.75-.48-1.11.12-.44.56-.47.62-.89.04-.29-.13-.61-.37-.77-.38-.25-.69.08-1.14-.1-.29-.12-.5-.39-.63-.7-.08.18-.19.34-.34.51-.06.06-.12.12-.19.17.2.32.49.6.86.75.19.08.39.12.6.12.11,0,.21-.01.29-.02-.13.12-.28.29-.38.53.31.49.37,1.12.2,1.67.15.21.35.4.6.54.13.07.26.12.4.15,0,.51.19,1,.55,1.33.47.43,1.06.44,1.22.44.16,0,.29-.02.39-.03-.08.11-.16.23-.27.35-.18.21-.36.38-.52.52,1.75.05,3.16-.78,3.48-1.89.26-.92-.23-2.05-.52-2.27Z"/>
    <path class="cls-1" d="m39.8,45.57s.07-.06.11-.11c.09-.09.51-.53.49-1.18-.01-.42-.21-.8-.52-1.1.04-.09.07-.18.09-.28.18-.8-.31-1.52-.86-1.79-.15-.07-.3-.12-.47-.13.09-.11.18-.26.24-.44.25-.75-.13-1.56-.6-2-.37-.35-.74-.43-.99-.48-.16-.03-.16-.04-.18-.06-.02-.02-.04-.04-.05-.07-.08.26-.18.51-.33.76.33.2.65.08,1.01.42.29.28.52.78.39,1.18-.13.38-.51.4-.56.78-.03.24.08.52.28.65.3.2.56-.07.9.1.28.14.53.52.44.91-.08.36-.42.63-.82.64.7,0,1.21.49,1.23.94.02.5-.59,1.1-1.41.98.03.08.14.37.44.54.41.24.83.08.89.06-.11.07-.93.54-1.72.18-.11-.05-.81-.37-.77-.93.02-.32.28-.61.64-.77-.4-.06-.71-.32-.77-.64-.06-.31.13-.57.2-.66.24-.32.58-.4.68-.42-.15-.02-.84-.11-1.29-.7-.1-.13-.44-.58-.34-1.16.05-.26.17-.45.25-.56-.1-.04-.22-.1-.34-.17-.03.16-.07.32-.15.48.02.06.03.12.05.19.13.44.23.84.27,1.3.02.24-.02.47-.11.68.06.06.12.11.18.16-.18.33-.24.67-.17,1.01.04.23.14.44.28.62-.1.19-.16.39-.17.6-.04.69.4,1.31,1.23,1.69.11.05.47.21.96.21,1.23,0,2.08-.96,2.26-1.18-.3-.08-.6-.16-.91-.25Z"/>
    <path class="cls-1" d="m36.87,45.92c.09-.27.1-.56.04-.84-.09-.41-.33-.75-.72-1.02.13-.22.25-.48.32-.78.19-.79.09-1.48-.29-2.05-.03-.05-.07-.1-.11-.15.1-.14.2-.28.3-.43.36-.57.84-1.49,1.05-2.6.07-.4.67-3.94-1.38-5.04-.35-.19-.75-.29-1.17-.29-.62,0-1.1.2-1.23.27-1.24.58-1.97,2.11-1.64,3.41.14.54.42.83.65,1.07.19.2.35.36.49.75.11.31.24.67.14.91-.03.08-.06.1-.23.22-.23.16-.58.41-.8.93-.28.66-.31,1.66.27,2.31.26.28.55.4.76.47-.21.07-.49.19-.73.47-.44.51-.61,1.45-.08,2.18.09.12.19.22.3.31-.05.09-.37.72-.08,1.44.31.78,1.07,1,1.15,1.02-.26.11-.53.23-.79.34.24.19.75.53,1.47.63.23.03,1.47.2,2.31-.69.51-.54.9-1.51.51-2.27-.12-.23-.3-.43-.51-.59Zm-.59,2.33c-.69.77-1.81.65-1.97.63.07,0,.61-.03.94-.49.25-.34.23-.7.22-.81-.84.51-1.79.15-2.02-.4-.2-.49.13-1.28.9-1.61-.45.17-.95.04-1.21-.31-.29-.39-.2-.93.04-1.21.3-.35.71-.18.94-.54.16-.24.15-.61,0-.85-.23-.39-.66-.22-.99-.58-.33-.37-.32-1.03-.13-1.48.27-.63.79-.56,1.03-1.16.21-.53.01-1.07-.13-1.48-.38-1.04-.93-1.03-1.12-1.75-.22-.86.26-2.06,1.21-2.51.07-.03.93-.42,1.7,0,1.58.85,1.01,4.06.99,4.21-.2,1.05-.67,1.91-.94,2.33-.26.41-.52.72-.72.94.14.08.36.23.54.49.39.58.23,1.24.18,1.43-.21.86-.92,1.3-1.07,1.39.12-.03.53-.1.94.13.12.07.45.26.54.63.09.38-.13.81-.54,1.07.48,0,.9.2,1.07.54.3.59-.31,1.28-.4,1.39Z"/>
    <path class="cls-10" d="m36.28,48.26c-.69.77-1.81.65-1.97.63.07,0,.61-.03.94-.49.25-.34.23-.7.22-.81-.84.51-1.79.15-2.02-.4-.2-.49.13-1.28.9-1.61-.45.17-.95.04-1.21-.31-.29-.39-.2-.93.04-1.21.3-.35.71-.18.94-.54.16-.24.15-.61,0-.85-.23-.39-.66-.22-.99-.58-.33-.37-.32-1.03-.13-1.48.27-.63.79-.56,1.03-1.16.21-.53.01-1.07-.13-1.48-.38-1.04-.93-1.03-1.12-1.75-.22-.86.26-2.06,1.21-2.51.07-.03.93-.42,1.7,0,1.58.85,1.01,4.06.99,4.21-.2,1.05-.67,1.91-.94,2.33-.26.41-.52.72-.72.94.14.08.36.23.54.49.39.58.23,1.24.18,1.43-.21.86-.92,1.3-1.07,1.39.12-.03.53-.1.94.13.12.07.45.26.54.63.09.38-.13.81-.54,1.07.48,0,.9.2,1.07.54.3.59-.31,1.28-.4,1.39Z"/>
    <path class="cls-16" d="m34.78,43.61c.15-.41.12-.9-.11-1.27-.25-.41-.62-.52-.84-.59-.14-.04-.18-.06-.22-.09-.13-.14-.14-.54-.02-.81.06-.15.14-.21.31-.33.22-.16.53-.37.72-.84.3-.75.03-1.49-.13-1.93-.24-.67-.57-1-.8-1.25-.19-.19-.25-.27-.3-.44-.15-.57.2-1.47.87-1.78,0,0,.29-.13.64-.13.19,0,.36.04.5.12.98.53.81,2.79.67,3.54-.18.94-.61,1.72-.85,2.11-.19.3-.41.59-.65.85l-.53.58.68.39c.14.08.24.18.32.29.23.35.13.79.09.94-.07.27-.21.49-.36.65Z"/>
    <path class="cls-10" d="m33.44,34.56c.98.91,1.57,2.18,1.64,3.46-.23-1.26-.96-2.38-1.94-3.09l.3-.36h0Z"/>
    <path class="cls-10" d="m34.2,33.82c1.3,1.41,1.71,3.49,1.12,5.21.44-1.77-.17-3.71-1.45-4.88l.33-.33h0Z"/>
    <path class="cls-1" d="m42.77,7.14c-.73-2.26-2.88-3.92-5.21-4.04-.1,0-.19,0-.28,0-.36,0-.71.04-1.03.1C35.27,1.26,33.43,0,31.49,0,31.17,0,30.85.04,30.54.11c-.49.11-.91.3-1.29.54-.83-.36-1.71-.56-2.58-.56-1.11,0-2.13.31-2.94.91-1.25.92-1.98,2.47-2.02,4.27-.03,1.69.6,3.25,1.64,4.08.6.48,1.35.74,2.24.8.02.03.05.07.07.1-.55,2-1.49,3.08-1.49,3.09l-.52.58.75.19c.06.02,5.96,1.56,9.05,4.54l.57.55.21-.77c.44-1.63,1.06-2.92,1.5-3.71.48.11.96.17,1.45.17.83,0,1.63-.17,2.36-.5,2.67-1.21,4.11-4.46,3.21-7.25Z"/>
    <path class="cls-7" d="m29.71,15.05c.28.13.55.27.83.42.11-.95.14-1.89.41-2.71l-1.24,2.29Z"/>
    <path class="cls-7" d="m27.07,13.95c.19.07.39.15.6.22v-1.27l-.6,1.04Z"/>
    <path class="cls-7" d="m32.68,15.24s0,0-.01,0l-.62,1.09c.21.14.42.28.62.42.21-.44-.12-.98.01-1.52Z"/>
    <path class="cls-5" d="m31.63,11.32c-.02-.06-.05-.13-.07-.2-.76.47-1.63.72-2.5.72-.13,0-.27,0-.4-.02-.83-.07-1.61-.36-2.23-.83-.36,1.1-.81,1.9-1.12,2.38.23.07.52.16.85.27l.7-1.22.82.47v.02c-.01.42-.01.85-.01,1.27.38.15.77.31,1.18.49l1.3-2.39.83.45-.02.04c-.27.82-.3,1.76-.41,2.71.24.12.47.25.7.39l.71-1.25.82.47-.1.17s0,0,.01,0c-.09.37.03.73.05,1.07.49-.74.84-1.61,1.09-2.42-1.03-.65-1.82-1.56-2.19-2.57Z"/>
    <path class="cls-7" d="m34.77,14.39c-.33-.14-.65-.31-.95-.5-.25.81-.6,1.67-1.09,2.42.01.16,0,.31-.07.46.31.22.61.45.89.68.4-1.27.88-2.3,1.28-3.04-.02,0-.05-.02-.07-.03Z"/>
    <path class="cls-7" d="m23.91,8.57s.02.02.04.03c.32.25.71.43,1.16.52-.08-.14-.5-.97-.17-1.95.23-.68.69-1.08,1.06-1.31-1.17.17-1.94,1.5-2.08,2.71Z"/>
    <path class="cls-5" d="m40.52,11.95c.61-.44,1.08-1.07,1.43-1.79.23-.89.23-1.84-.06-2.73-.61-1.89-2.41-3.29-4.37-3.39-.11,0-.21,0-.23,0-1.53,0-2.65.86-3.29,1.5-.01-.1-.02-.27,0-.48-.21-.86.18-1.78.74-2.47-.85-1.01-2.02-1.63-3.24-1.63-.25,0-.5.03-.75.08-.52.12-.96.36-1.33.64l-.04.08-.03-.02c-.77.63-1.17,1.45-1.27,1.67-.17.32-.34.64-.51.96-.02-.1-.05-.25-.07-.42-.65-.92-.63-2.05-.06-2.86-.26-.04-.51-.06-.77-.06-.91,0-1.73.25-2.38.73-.99.73-1.6,2.05-1.63,3.53-.03,1.38.45,2.64,1.25,3.3.14-1.21.91-2.54,2.08-2.71.26-.16.46-.23.51-.25l-.08.13c-.82,1.29-.79,2.94.05,4,.52.65,1.35,1.07,2.27,1.15.1,0,.21.01.31.01.47,0,.92-.09,1.34-.25-.54-1.51.74-2.52,1.9-3.13.26-.2.5-.32.65-.38-.13.36-.26.73-.39,1.09-.12.35-.22.78-.25,1.25,0,0-.02.42.07.93,2.08,2.12,5.46,3.17,8.14,1.53Z"/>
    <path class="cls-7" d="m40.52,11.95c-2.68,1.64-6.06.59-8.14-1.53.03.18.07.38.14.57.52,1.59,2.59,2.95,4.69,2.95.36,0,1.12-.03,1.97-.41,1.39-.63,2.39-1.92,2.76-3.36-.35.72-.81,1.35-1.43,1.79Z"/>
    <path class="cls-7" d="m27.5,3.94c-.03-.35-.03-.82.14-1.35.2-.63.55-1.05.76-1.27-.32-.11-.64-.19-.96-.24-.58.8-.59,1.94.06,2.86Z"/>
    <path class="cls-7" d="m33.99,5.05c.02-.18.07-.38.16-.59.07-.15.24-.51.64-.77.21-.14.41-.2.54-.23-.17-.32-.38-.61-.6-.88-.56.69-.95,1.61-.74,2.47Z"/>
    <path class="cls-7" d="m31.83,8.01c.15-.21.31-.37.47-.5-1.16.62-2.44,1.62-1.9,3.13.34-.13.67-.31.97-.54-.03-.2-.05-.49,0-.83.03-.27.11-.77.46-1.27Z"/>
    <path class="cls-15" d="m37.74,28.86c-.22-.82-.62-1.41-1.11-1.57-1.78,2.04-2.12,5.46-1.02,7.95,1.03.09,2.05-1.6,2.29-3.79.1-.97.04-1.87-.16-2.59Z"/>
    <path class="cls-13" d="m36.63,27.29s-.02,0-.03,0c-.05-.02-.1-.03-.16-.03-1.04-.11-2.07,1.59-2.31,3.79-.03.23-.04.46-.05.68-.37-.63-.67-1.45-.83-2.37-.03-.16-.05-.32-.07-.48-.02.01,0-.16-.02-.14,0-.19-.02-.2-.02-.39h0c0-.09,0-.17,0-.26,0-.03,0-.05,0-.08h0c-.13-3.05-1.21-5.8-2.93-7.79,0,0,0,0,0,0-1.08-1.3-2.52-2.28-4.16-2.89,4.39,3.92,7.31,10.3,4.14,15.48-1.72,2.66-2.98,5.33-4.39,7.99-1.62,3.36-5.2,4.15-8.57,4.96,1.68.39,3.51.43,5.36.08.98-.19,1.97-.49,2.95-.91,2.05-.88,3.77-2.17,5.07-3.68.46-.54.94-1.06,1.45-1.56.34-.32.66-.66.97-1.01.09-.12.17-.24.25-.37-.53-.65-.82-1.44-.75-2.37-.04-.14-.06-.28-.04-.45.09-.79.62-1.3,1.06-1.89.19-.26.56-.28.74-.08-.01-.32-.03-.52-.03-.52.31,1.9,1.35,2.25,1.35,2.25,0,0,.01,0,.02,0-1.1-2.49-.76-5.91,1.02-7.95Z"/>
    <path class="cls-15" d="m25.78,40.79c1.41-2.66,2.66-5.33,4.39-7.99,3.17-5.19.25-11.56-4.14-15.48-2.88-1.08-6.4-1.03-9.73.4-.86.37-1.37,1.03-2.11,1.53-.38.7-1,1.21-1.29,1.96-.84,2.18-1.3,4.55-1.3,7.03,0,.79.05,1.57.14,2.34-.69.96-1.23,1.99-1.59,3.05-.74,2.19-.74,4.52.17,6.66.85,1.99,2.37,3.52,4.26,4.5.81.42,1.7.74,2.63.96,3.37-.81,6.96-1.6,8.57-4.96Zm-1.79-21.52c.71-.4,2.09.81,2.74,1.57.58.67.9,1.34,1.07,1.81l-.99.13c-.39-.42-.95-.94-1.7-1.41-.57-.36-1.12-.6-1.57-.76-.02-1.02.31-1.27.44-1.34Zm-3.41,8.99c-.05-.19-.06-.33-.07-.37v-.03c-.04-.43-.03-.88.02-1.32.27-2.53,1.78-4.44,3.51-4.44.08,0,.17,0,.25.01.94.1,1.74.74,2.25,1.8.45.93.62,2.11.49,3.32-.03.32-.09.63-.16.94-.01.08-.03.17-.04.25l-.02.08c.37.16.65.31.83.41-1.33-.09-2.67-.14-4-.16-.42,0-.84,0-1.26,0-.93,0-1.87.02-2.8.05.24-.15.59-.35,1-.53h0Zm-6.37-6.73c.5-.66,1.57-1.71,2.12-1.36.1.06.35.28.34,1.17-.35.14-.77.35-1.21.66-.58.41-1.02.86-1.32,1.23-.25-.04-.51-.08-.76-.12.14-.41.38-1,.83-1.58Zm-1.28,6.96c.18-.14.37-.27.57-.37-.05-.22-.07-.39-.08-.45-.02-.37-.02-.73.01-1.08.17-2.05,1.13-3.6,2.25-3.6.06,0,.12,0,.17.01,1.01.14,1.73,1.53,1.76,3.38v.11s0,0,0,0v.05c-.04.13-.07.26-.11.39,0,0,0,.01,0,.02-.11.38-.24.74-.4,1.08,0,0,0,0,0,0l-.05.1h0c-.04.08-.09.17-.13.25l-.03.07-.03.05c-.14.23-.29.45-.46.65-.23.27-.44.49-.64.67-.06.05-.11.1-.16.15-.29.29-.34.4-.33.52.02.19.18.42.45.63.4.31.94.49,1.44.49.14,0,.26-.02.33-.03.84-.13,1.88-.6,2.43-.87l-.08.14c-.18.33-.88,1.43-2.19,1.66-.16.03-.33.04-.5.04-.71,0-1.45-.25-2.01-.69-.49-.37-.77-.84-.81-1.3-.05-.56.29-.95.61-1.26.05-.05.11-.11.16-.16.18-.17.38-.36.57-.6,0,0,.01-.02.02-.03-1.18.07-2.62.24-2.63.24l-.55.06.43-.34Zm11.28,7.67c-.02-.14-.1-.75-.53-1.29-.11,1.02-.44,1.99-.94,2.85-.42.7-1.52,2.56-3.54,2.87-.19.03-.39.05-.58.05-1.73,0-3.07-1.18-3.72-1.75-.86-.76-1.55-1.74-2-2.83l-.1-.24.26.02c.06,0,.12,0,.18.01.43-.02.85-.1,1.26-.21.42-.12.63-.18.81-.3l.06-.04c.12-.08.31-.21.59-.31h.02c.05-.03.15-.07.26-.09.12-.02.24-.03.37-.03.61,0,1.21.24,1.47.36.35-.32.73-.53,1.14-.62.15-.03.29-.05.43-.05.22,0,.42.04.65.08.17.03.36.07.59.09.21.02.4.03.6.03.1,0,.2,0,.31,0,.36-.01.73-.06,1.08-.13.13-.05.26-.09.39-.14-.48-.36-.95-.38-1.08-.38.15-.03.73-.1,1.27.26.56.38.84,1.08.74,1.8Z"/>
    <path class="cls-13" d="m14.45,23.24c.3-.37.73-.82,1.32-1.23.44-.31.86-.52,1.21-.66.01-.89-.24-1.11-.34-1.17-.55-.35-1.62.71-2.12,1.36-.45.58-.69,1.17-.83,1.58.25.04.51.08.76.12Z"/>
    <path class="cls-13" d="m24.5,19.46c-.13.07-.46.32-.44,1.34.45.16.99.4,1.57.76.76.47,1.31.99,1.7,1.41l.99-.13c-.18-.47-.5-1.15-1.07-1.81-.65-.75-2.04-1.97-2.74-1.57Z"/>
    <path class="cls-1" d="m20.11,46.46c-1.68,0-3.4-.32-4.89-.94-2.52-1.04-4.37-2.87-5.35-5.3-2-4.93.88-9.01,1.47-9.77-.03-.88-.17-5.26.41-6.95.72-2.12,3.74-8.9,12.11-7.15,3.66.76,6.34,2.62,7.97,5.53.97,1.73,1.52,3.73,1.69,6.1.06.85.19,1.54.33,2.08.4-2.08,1.55-3.19,2.59-3.19,1.23,0,1.85,1.54,1.85,4.59,0,2.85-1.61,4.18-2.7,4.18-.91,0-1.39-1.24-1.58-1.88-.11.02-.22.07-.33.16-.41.31-.72,1.02-.83,1.86-.15,1.21.67,2.35.68,2.37l.18.25-.2.24c-4.97,5.85-7.84,7.2-11.72,7.73-.55.08-1.12.11-1.69.11Zm-8.07-15.63c-.05.06-3.43,4.2-1.44,9.09,2.18,5.36,8,6.07,11.1,5.65,3.63-.5,6.35-1.77,11.04-7.24-.28-.47-.79-1.52-.65-2.66.13-1.07.55-1.94,1.13-2.39.35-.27.75-.37,1.16-.31l.27.04.06.26c.17.75.58,1.58.89,1.58.67,0,1.92-1,1.92-3.4s-.4-3.8-1.06-3.8c-.74,0-1.87,1.19-1.96,3.76,0,.22-.16.41-.38.45-.22.05-.44-.06-.53-.26-.26-.54-.7-1.71-.84-3.57-.42-6-3.55-9.77-9.04-10.92-7.53-1.57-10.35,4.12-11.21,6.64-.58,1.71-.36,6.76-.36,6.81v.15s-.09.12-.09.12Z"/>
    <path class="cls-11" d="m14.01,36.26c.06,0,.12,0,.18,0-.02,0-.05-.01-.07-.02-.04,0-.07.01-.11.02Z"/>
    <path class="cls-4" d="m15.99,29.88c-.13.09-.26.21-.24.34,0,.09.08.16.16.19s.17.02.26,0c.37-.09.62-.43.84-.74.13-.19.27-.38.36-.59s.13-.45.07-.68c-.02-.07-.06-.15-.13-.18-.16-.06-.42.71-.49.83-.15.24-.34.46-.56.65-.06.05-.17.11-.27.18Z"/>
    <path class="cls-1" d="m35.87,30.01c-.19.32-.45.86-.49,1.55-.04.79.23,1.73.52,1.74.14,0,.33-.18.59-1.03-.31.18-.48.15-.57.1-.57-.28-.09-2.21-.05-2.37Z"/>
    <g>
      <path class="cls-1" d="m14.14,23.22c.3-.37.73-.82,1.32-1.23.44-.31.86-.52,1.21-.66.01-.89-.24-1.11-.34-1.17-.55-.35-1.62.71-2.12,1.36-.45.58-.69,1.17-.83,1.58.25.04.51.08.76.12Z"/>
      <path class="cls-1" d="m23.75,34.22c-.29-.21-.69-.26-.71-.26-.39-.04-.69.06-.83.12.13,0,.6.02,1.08.38-.13.05-.26.1-.39.14-.36.07-.72.12-1.08.13-.11,0-.21,0-.31,0-.21,0-.39-.01-.6-.03-.23-.03-.42-.06-.59-.09-.23-.04-.43-.08-.65-.08-.14,0-.28.02-.43.05-.41.09-.79.3-1.14.62-.25-.11-.85-.36-1.47-.36-.13,0-.25.01-.37.03-.12.02-.21.06-.26.08h-.02c-.27.11-.46.23-.59.32l-.06.04c-.19.12-.4.18-.81.3-.41.12-.83.19-1.26.21-.06,0-.12,0-.18-.01l-.26-.02.1.24c.45,1.1,1.14,2.08,2,2.83.65.57,2,1.75,3.72,1.75.19,0,.39-.02.58-.05,2.01-.32,3.12-2.17,3.54-2.87.51-.85.83-1.83.94-2.85.43.54.51,1.15.53,1.29.21-.8.02-1.58-.46-1.92Z"/>
      <path class="cls-1" d="m26.81,28.5l.02-.08c.02-.08.03-.16.04-.25.07-.31.13-.62.16-.94.13-1.21-.05-2.39-.49-3.32-.51-1.06-1.31-1.7-2.25-1.8-.08,0-.17-.01-.25-.01-1.73,0-3.24,1.91-3.51,4.44-.05.44-.05.89-.02,1.32v.03s.02.17.07.37h0c-.41.18-.76.38-1,.53.93-.03,1.87-.05,2.8-.05.42,0,.84,0,1.26,0,1.33.02,2.68.08,4,.16-.18-.1-.46-.25-.83-.41Z"/>
      <path class="cls-1" d="m24,19.27c-.13.07-.46.32-.44,1.34.45.16.99.4,1.57.76.76.47,1.31.99,1.7,1.41l.99-.13c-.18-.47-.5-1.15-1.07-1.81-.65-.75-2.04-1.97-2.74-1.57Z"/>
      <path class="cls-1" d="m13.04,28.76s1.46-.17,2.63-.24c0,0-.01.02-.02.03-.19.23-.39.42-.57.6-.06.06-.11.11-.16.16-.32.32-.65.7-.61,1.26.04.46.33.92.81,1.3.56.44,1.3.69,2.01.69.17,0,.34-.01.5-.04,1.31-.23,2.01-1.33,2.19-1.66l.08-.14c-.55.27-1.6.74-2.43.87-.07.01-.19.03-.33.03-.5,0-1.04-.18-1.44-.49-.27-.21-.43-.44-.45-.63,0-.11.04-.23.33-.52.05-.05.1-.1.16-.15.19-.19.41-.4.64-.67.17-.2.32-.42.46-.65h.05s.02-.11.02-.11c.05-.08.09-.17.13-.25h0s.05-.1.05-.1c0,0,0,0,0,0,.16-.34.3-.7.4-1.08,0,0,0-.01,0-.02.04-.13.07-.26.1-.39v-.05s.01,0,.01,0l.02-.1h-.02c-.03-1.86-.75-3.25-1.76-3.39-.06,0-.12-.01-.17-.01-1.11,0-2.08,1.55-2.25,3.6-.03.35-.03.71-.01,1.08,0,.06.03.23.08.45-.19.11-.38.23-.57.37l-.43.34.55-.06Z"/>
    </g>
    <g>
      <path class="cls-2" d="m24.19,23.05c-.05,0-.1,0-.15,0-1.23,0-2.36,1.58-2.57,3.6-.04.39-.05.77-.02,1.15,0,0,0,.07.03.16.26-.07.54-.13.82-.16.12-.01.31-.03.52-.03-.01-.05-.02-.08-.02-.1-.02-.23-.02-.47.01-.72.16-1.36,1.07-2.38,2.02-2.29.56.05,1.01.48,1.25,1.09-.06-.51-.2-.99-.4-1.41-.36-.75-.89-1.2-1.5-1.27Z"/>
      <path class="cls-2" d="m24.12,25.64c-.17-.07-.4.1-.51.38-.11.28-.06.55.12.62.17.07.4-.1.51-.38.11-.28.06-.55-.12-.62Z"/>
    </g>
    <g>
      <path class="cls-2" d="m14.76,26.67c.1-.94.66-1.65,1.25-1.59.22.02.42.15.57.36-.17-.97-.57-1.48-.86-1.52-.01,0-.03,0-.04,0-.45,0-1.17,1.04-1.31,2.73-.03.31-.03.61-.01.92,0,.02,0,.08.02.17.18-.05.35-.09.51-.13-.11-.21-.14-.41-.14-.44-.01-.16-.01-.33,0-.5Z"/>
      <path class="cls-2" d="m15.7,25.6c-.17-.07-.4.1-.51.38-.11.28-.06.55.12.62.17.07.4-.1.51-.38.11-.28.06-.55-.12-.62Z"/>
    </g>
    <g>
      <path class="cls-2" d="m18.03,38.12c-.24.01-.48.02-.72.02-.6,0-1.21-.05-1.81-.13.36.32.78.6,1.18.93.48.16.99.25,1.51.25.19,0,.39-.01.58-.04.74-.09,1.43-.36,2.02-.76.25-.28.45-.58.56-.93-1.07.37-2.19.6-3.33.66Z"/>
      <path class="cls-3" d="m14.98,37.92c.49.45,1.07.8,1.71,1.02-.4-.32-.82-.61-1.18-.93-.18-.03-.35-.05-.52-.09Z"/>
      <path class="cls-3" d="m22.02,37.21c-.22.09-.44.17-.66.24-.11.35-.32.65-.56.93.47-.32.89-.72,1.22-1.18Z"/>
      <path class="cls-3" d="m14.01,36.67c.04.07.08.15.13.23.23.35.5.59.73.75.1.02.21.03.32.05-.25-.28-.44-.6-.51-1-.22,0-.45-.01-.67-.02Z"/>
      <path class="cls-2" d="m22.06,35.7c-.78.24-1.58.43-2.38.58-1.45.28-2.95.42-4.43.42-.19,0-.37,0-.56,0,.07.4.26.72.51,1,.53.07,1.18.13,1.93.13.71,0,1.24-.06,1.65-.1.82-.09,1.53-.17,2.41-.48.14-.05.27-.1.39-.14.32-.45.53-.85.48-1.39Z"/>
      <path class="cls-3" d="m22.06,35.7c.04.55-.16.94-.48,1.39.22-.09.4-.17.54-.24.19-.22.42-.54.58-.97.05-.15.09-.29.12-.42-.25.08-.5.16-.75.24Z"/>
    </g>
    <path class="cls-9" d="m17.25,35.36c-.25-.03-.52-.02-.78.05-.32.09-.47.22-.89.41-.35.16-.83.33-1.46.42.02,0,.05.01.07.02.17,0,.34,0,.51,0,.1-.01.19-.02.27-.02.8-.23,1.52-.71,2.28-.89Z"/>
    <path class="cls-11" d="m20.85,35.14c-.61-.08-.85-.21-1.3-.19-.63.04-1.13.35-1.46.63-.26-.11-.54-.19-.84-.23-.76.18-1.48.66-2.28.89-.08,0-.17.01-.27.02,1.03,0,2.19-.06,3.46-.22,1.4-.18,2.65-.46,3.74-.76-1.22.02-2.51-.39-3.63.17,1.13-.56,2.41-.16,3.63-.17.22-.06.43-.12.63-.18-.72.12-1.28.08-1.67.03Z"/>
    <path class="cls-11" d="m21.56,38.35s-.03.03-.04.04c-1.06.99-2.31,1.16-2.68,1.2-1.59.19-2.8-.46-3.2-.7.04.04.1.11.19.19,1.93,1.35,4.28,1.07,5.72-.74Z"/>
    <path class="cls-9" d="m21.56,38.35c-1.45,1.81-3.79,2.09-5.72.74.4.37,1.27,1.03,2.52,1.09,1.1.05,1.9-.39,2.17-.55,1.12-.68,1.54-1.71,1.65-2.02-.13.2-.34.47-.62.74Z"/>
  </g>
</svg>