<?xml version="1.0" encoding="UTF-8"?>
<svg id="Camada_1" data-name="Camada 1" xmlns="http://www.w3.org/2000/svg" viewBox="0 0 187.54 187.54">
  <defs>
    <style>
      .cls-1 {
        fill: #c9741f;
      }

      .cls-2 {
        fill: #d48122;
      }

      .cls-3 {
        fill: #822f06;
      }

      .cls-4 {
        fill: #fbebce;
      }
    </style>
  </defs>
  <rect class="cls-4" width="187.54" height="187.54"/>
  <g>
    <circle class="cls-3" cx="93.77" cy="93.77" r="84.4"/>
    <g>
      <circle class="cls-1" cx="117.86" cy="89.23" r="14.25"/>
      <circle class="cls-1" cx="69.69" cy="89.23" r="14.25"/>
      <circle class="cls-2" cx="93.98" cy="93.77" r="19.67"/>
    </g>
    <g>
      <path class="cls-4" d="m23.45,81.48c1.02.1,1.95.69,2.37,1.96.62-1.5,2.32-1.9,3.14-1.82,2.94.29,3.66,2.58,3.39,5.31-.21,2.09-.41,4.16-.62,6.25l-13.17-1.3c.21-2.07.41-4.16.62-6.25.26-2.6,1.62-4.42,4.27-4.16Zm.64,8.48l.38-3.8c.16-1.56-.45-2.13-1.21-2.21-.6-.06-1.67.33-1.82,1.91l-.38,3.8,3.03.3Zm5.57.55l.38-3.8c.1-1.02-.09-2.5-1.34-2.62-1.18-.12-1.95,1.27-2.05,2.29l-.38,3.8,3.39.33Z"/>
      <path class="cls-4" d="m31.93,63.95c3.2,1.22,5.68,4.38,4.06,8.74-1.61,4.36-5.5,5.22-8.76,4.01s-5.77-4.51-4.18-8.8c1.58-4.27,5.65-5.19,8.88-3.95Zm-3.81,10.46c2.06.7,4.65.41,5.73-2.52,1.08-2.92-.71-4.84-2.73-5.63-2.08-.81-4.85-.51-5.94,2.42-1.08,2.93.83,5,2.94,5.72Z"/>
      <path class="cls-4" d="m30.29,53.7l9.08,6.1,3.8-5.65,1.92,1.29-5.2,7.72-10.99-7.39,1.39-2.07Z"/>
      <path class="cls-4" d="m47.57,52.73l-9.69-9.03,1.69-1.81,9.69,9.03-1.69,1.81Z"/>
      <path class="cls-4" d="m51.13,31.95l2-1.5,7.95,10.61-1.24.93v.02s-10.92-2.99-10.92-2.99l5.35,7.14-2,1.5-7.94-10.6,1.62-1.21,10.11,2.68-4.93-6.58Z"/>
      <path class="cls-4" d="m72.8,35.58l-2.06-4.94-6,2.5,2.06,4.94-2.3.96-5.09-12.22,2.3-.96,2.15,5.15,6-2.5-2.15-5.15,2.29-.95,5.09,12.22-2.29.95Z"/>
      <path class="cls-4" d="m90.92,25.2c.42,3.4-1.19,7.07-5.8,7.7s-7.2-2.4-7.67-5.85c-.47-3.45,1.27-7.21,5.81-7.83,4.52-.61,7.24,2.55,7.66,5.98Zm-11.03,1.56c.35,2.15,1.82,4.29,4.92,3.87s3.94-2.9,3.68-5.06c-.26-2.22-1.84-4.52-4.93-4.1-3.09.42-4.03,3.09-3.67,5.29Z"/>
      <path class="cls-4" d="m146.58,49.72c-2.34,2.4-6.18,3.33-9.44.04-1.15-1.15-2.52-2.54-3.66-3.69l9.4-9.32c1.15,1.15,2.52,2.54,3.66,3.69,3.2,3.22,2.33,6.94.04,9.28Zm-9.66-3.58l1.92,1.93c2.12,2.13,4.51,1.44,6.01-.12,1.42-1.49,2.03-3.8,0-5.84l-1.92-1.93-6.02,5.97Z"/>
      <path class="cls-4" d="m148.99,65.59l-5.2-8.44c3.75-2.31,7.52-4.63,11.27-6.94l5.2,8.44-2.06,1.27-3.9-6.33-2.59,1.6,3.76,6.1-1.98,1.22-3.76-6.1-2.54,1.57,3.9,6.33-2.09,1.29Z"/>
      <path class="cls-4" d="m151.35,121.2c-.8-1.74-.79-3.6-.15-5.4,1.66-4.63,5.55-5.44,8.79-4.29,3.26,1.15,5.81,4.46,4.19,8.96-.61,1.69-1.82,3.06-3.55,3.89l-.95-2.11c1.09-.53,1.87-1.5,2.25-2.58,1.08-3.01-.69-5.11-2.78-5.84-2.07-.72-4.65-.3-5.76,2.77-.39,1.08-.39,2.47.14,3.58l-2.19,1.02Z"/>
      <path class="cls-4" d="m145.49,132.09l3.84-5.76-1.45-2.33,1.5-2.25,7.72,12.29-1.51,2.27-14.31-2.41,1.51-2.27,2.7.46Zm8.54,1.54l-3.32-5.17-2.73,4.09,6.05,1.08Z"/>
      <path class="cls-4" d="m146.26,147.42l-7.43-8.03-5,4.62-1.57-1.69,6.83-6.32,8.99,9.72-1.83,1.7Z"/>
      <path class="cls-4" d="m122.61,151.33l6.02-3.41-.24-2.73,2.35-1.33,1.36,14.44-2.37,1.34-11.69-8.59,2.37-1.34,2.2,1.62Zm6.94,5.22l-.64-6.11-4.28,2.42,4.92,3.69Z"/>
      <path class="cls-4" d="m107.68,163.79c-.27-.98-.06-2.06.98-2.92-1.62-.04-2.6-1.48-2.83-2.28-.78-2.84,1.1-4.34,3.74-5.07,2.02-.56,4.03-1.11,6.05-1.67l3.51,12.76c-2.01.55-4.03,1.11-6.05,1.67-2.52.69-4.71.08-5.41-2.49Zm6.2-9.04l-3.68,1.01c-.98.27-2.3.99-1.97,2.19.32,1.15,1.89,1.36,2.87,1.09l3.68-1.01-.9-3.28Zm1.49,5.4l-3.68,1.01c-1.51.42-1.83,1.19-1.63,1.92.16.58.91,1.44,2.44,1.02l3.68-1.01-.81-2.94Z"/>
      <path class="cls-4" d="m89.63,155.73l2.97-.1,4.01,4.29,2.4-.08-.15-4.42,2.5-.08.45,13.25c-2.1.07-4.2.12-6.3.19-3.12.09-4.84-1.94-4.91-4.22-.06-1.82.71-3.68,3.21-4.27l-4.16-4.38v-.17Zm9.6,10.6l-.14-4.24-3.8.13c-1.59.05-2.23,1.14-2.2,2.19.04,1.06.77,2.09,2.34,2.04l3.8-.13Z"/>
      <path class="cls-4" d="m77.17,153.5l9.73,1.88c-.83,4.33-1.67,8.67-2.51,13l-9.73-1.88.46-2.38,7.3,1.41.58-2.99-7.04-1.36.44-2.28,7.04,1.36.57-2.93-7.3-1.41.47-2.41Z"/>
      <path class="cls-4" d="m61.74,158.14c.1.88.95,2.04,2.26,2.63,1.69.76,2.82.42,3.22-.48.47-1.05-.64-1.9-2.01-2.73-2.38-1.44-4.43-3.15-3.13-6.03,1.21-2.69,4.11-2.78,6.8-1.57,2.47,1.11,4.02,2.72,3.93,5.33l-2.34.13c.06-1.57-1.07-2.78-2.54-3.44-1.43-.64-3-.75-3.59.56-.51,1.14.47,2.14,2,3.03,2.33,1.4,4.31,3.08,3.1,5.79-1.12,2.48-4.02,2.4-6.25,1.42-1.88-.85-3.59-2.26-3.66-4.53l2.23-.12Z"/>
      <path class="cls-4" d="m51.57,142.37l5.45,4.27,2.43-1.26,2.13,1.67-12.84,6.75-2.14-1.68,3.5-14.08,2.14,1.68-.66,2.65Zm-2.19,8.4l5.41-2.92-3.87-3.04-1.54,5.95Z"/>
    </g>
  </g>
</svg>