<?xml version="1.0" encoding="UTF-8"?>
<svg id="Camada_1" data-name="Camada 1" xmlns="http://www.w3.org/2000/svg" viewBox="0 0 187.54 187.54">
  <defs>
    <style>
      .cls-1 {
        fill: #c9741f;
      }

      .cls-2 {
        fill: #d48122;
      }

      .cls-3 {
        fill: #822f06;
      }

      .cls-4 {
        fill: #fbebce;
      }
    </style>
  </defs>
  <rect class="cls-4" width="187.54" height="187.54"/>
  <g>
    <circle class="cls-3" cx="93.77" cy="93.77" r="84.4"/>
    <g>
      <path class="cls-1" d="m89.17,76.17l-25.87,25.87c-2.2,2.2-1.75,5.89.92,7.47,9.08,5.35,20.95,4.13,28.75-3.67,7.8-7.8,9.02-19.67,3.67-28.75-1.58-2.68-5.28-3.12-7.47-.92Z"/>
      <path class="cls-2" d="m113.48,73.84l-29.29,29.29c-2.49,2.49-1.99,6.68,1.04,8.46,10.28,6.06,23.73,4.68,32.56-4.15,8.83-8.83,10.21-22.28,4.15-32.56-1.79-3.03-5.97-3.53-8.46-1.04Z"/>
    </g>
    <g>
      <path class="cls-4" d="m64.9,38.78l-2.47,1.64-5.66-1.56-2,1.33,2.45,3.69-2.08,1.38-7.33-11.05c1.75-1.16,3.51-2.3,5.26-3.46,2.61-1.71,5.13-.88,6.4,1.02,1,1.51,1.32,3.5-.49,5.32l5.84,1.55.09.14Zm-13.72-3.99l2.34,3.53,3.17-2.1c1.32-.88,1.31-2.14.72-3.02-.59-.88-1.75-1.38-3.06-.51l-3.17,2.1Z"/>
      <path class="cls-4" d="m65.7,38.7l-5.74-11.93,2.23-1.07,5.74,11.93-2.23,1.07Z"/>
      <path class="cls-4" d="m74.81,24.41c-.66-.58-2.07-.89-3.44-.46-1.77.56-2.38,1.57-2.08,2.5.35,1.1,1.74,1,3.32.7,2.74-.51,5.41-.6,6.36,2.41.89,2.81-1.22,4.81-4.03,5.7-2.58.82-4.81.65-6.48-1.36l1.66-1.66c1,1.21,2.65,1.36,4.19.88,1.5-.47,2.74-1.44,2.3-2.81-.38-1.19-1.78-1.28-3.51-.93-2.68.51-5.27.58-6.17-2.25-.82-2.6,1.4-4.47,3.72-5.23,1.97-.62,4.18-.71,5.75.94l-1.59,1.57Z"/>
      <path class="cls-4" d="m93.85,25.14c.28,3.41-1.49,7.01-6.12,7.45s-7.09-2.7-7.41-6.17c-.32-3.46,1.57-7.16,6.13-7.58,4.54-.42,7.12,2.85,7.41,6.3Zm-11.09,1.09c.26,2.16,1.64,4.37,4.75,4.08,3.11-.29,4.06-2.73,3.89-4.9-.17-2.23-1.64-4.6-4.75-4.31-3.11.29-4.15,2.91-3.89,5.13Z"/>
      <path class="cls-4" d="m99.72,18.96l-1.16,10.87,6.77.72-.25,2.29-9.25-.99,1.41-13.16,2.48.27Z"/>
      <path class="cls-4" d="m115.86,35.84l-9.51-2.78c1.24-4.23,2.48-8.47,3.72-12.7l9.51,2.78-.68,2.32-7.13-2.09-.85,2.92,6.88,2.01-.65,2.23-6.88-2.01-.84,2.87,7.13,2.09-.69,2.36Z"/>
      <path class="cls-4" d="m136.56,48.76l-2.35-1.82-.34-5.86-1.9-1.47-2.71,3.5-1.97-1.53,8.12-10.48c1.66,1.29,3.31,2.59,4.97,3.87,2.46,1.93,2.48,4.58,1.08,6.39-1.11,1.44-2.89,2.38-5.2,1.24l.4,6.03-.1.13Zm-.61-14.28l-2.59,3.35,3.01,2.33c1.26.97,2.44.55,3.09-.29.65-.84.74-2.1-.5-3.06l-3.01-2.33Z"/>
      <path class="cls-4" d="m136.9,49.51l9.46-9.26,1.73,1.77-9.46,9.26-1.73-1.77Z"/>
      <path class="cls-4" d="m153.37,53.56c.34-.81.18-2.25-.67-3.4-1.1-1.49-2.25-1.75-3.04-1.17-.93.68-.38,1.97.41,3.36,1.36,2.43,2.3,4.93-.24,6.8-2.38,1.75-4.95.39-6.69-1.98-1.6-2.18-2.16-4.35-.79-6.58l2.1,1.04c-.83,1.33-.44,2.95.51,4.25.93,1.26,2.25,2.13,3.4,1.28,1.01-.74.64-2.09-.25-3.62-1.34-2.37-2.24-4.81.15-6.57,2.19-1.61,4.68-.11,6.14,1.85,1.22,1.66,2.01,3.73.96,5.75l-2-1Z"/>
      <path class="cls-4" d="m158.81,71.79c-3.14,1.37-7.12.85-9.02-3.39-1.9-4.25.27-7.58,3.44-9.01,3.18-1.42,7.28-.82,9.15,3.36,1.86,4.16-.4,7.66-3.57,9.04Zm-4.61-10.14c-1.96.94-3.6,2.96-2.33,5.81s3.9,2.96,5.9,2.1c2.05-.88,3.82-3.04,2.54-5.89-1.28-2.85-4.1-2.99-6.11-2.03Z"/>
      <path class="cls-4" d="m166.55,75.38l-10.67,2.37,1.48,6.65-2.25.5-2.02-9.08,12.92-2.87.54,2.44Z"/>
      <path class="cls-4" d="m155.71,96.08l-.41-9.9c4.4-.18,8.82-.36,13.22-.54l.41,9.9-2.42.1-.31-7.42-3.04.13.29,7.16-2.32.1-.29-7.16-2.98.12.31,7.42-2.46.1Z"/>
      <path class="cls-4" d="m150.15,119.85l.97-2.81,5.44-2.21.78-2.27-4.18-1.44.81-2.36,12.54,4.32c-.68,1.98-1.39,3.96-2.07,5.95-1.04,2.95-3.54,3.82-5.7,3.08-1.72-.59-3.18-1.98-2.84-4.52l-5.58,2.32-.16-.06Zm13.33-5.17l-4.01-1.38-1.24,3.59c-.52,1.5.26,2.49,1.26,2.84,1,.35,2.23.03,2.74-1.46l1.24-3.59Z"/>
      <path class="cls-4" d="m149.55,120.42l11.8,6-1.12,2.21-11.8-6,1.12-2.21Z"/>
      <path class="cls-4" d="m150.99,137.29c.88.06,2.18-.55,3.01-1.72,1.06-1.52.94-2.69.13-3.25-.95-.66-1.99.27-3.06,1.46-1.86,2.07-3.93,3.76-6.51,1.95-2.42-1.69-1.96-4.56-.26-6.97,1.55-2.21,3.43-3.44,5.97-2.86l-.31,2.32c-1.53-.35-2.93.53-3.86,1.85-.9,1.29-1.3,2.81-.12,3.63,1.02.72,2.19-.06,3.35-1.39,1.81-2.03,3.84-3.66,6.27-1.96,2.23,1.56,1.6,4.4.22,6.41-1.18,1.69-2.89,3.1-5.14,2.75l.3-2.21Z"/>
      <path class="cls-4" d="m135.47,148.29c-2.3-2.53-3.09-6.47.32-9.63,3.41-3.16,7.26-2.18,9.63.37,2.37,2.55,3.11,6.63-.24,9.74-3.34,3.1-7.38,2.08-9.71-.48Zm8.12-7.62c-1.52-1.55-3.96-2.46-6.25-.34-2.29,2.12-1.55,4.64-.1,6.26,1.49,1.66,4.1,2.64,6.39.52,2.29-2.12,1.52-4.84-.04-6.44Z"/>
      <path class="cls-4" d="m134.56,156.78l-5.69-9.33-5.81,3.54-1.2-1.97,7.94-4.84,6.89,11.3-2.13,1.3Z"/>
      <path class="cls-4" d="m111.46,153.19l9.24-3.57c1.59,4.11,3.19,8.24,4.77,12.35l-9.24,3.57-.87-2.26,6.93-2.68-1.1-2.84-6.68,2.58-.84-2.17,6.68-2.58-1.08-2.79-6.93,2.68-.89-2.29Z"/>
      <path class="cls-4" d="m87.19,155.46l2.97.05,3.79,4.49,2.4.04.07-4.42,2.5.04-.21,13.25c-2.1-.03-4.2-.09-6.29-.12-3.12-.07-4.73-2.18-4.69-4.46.03-1.82.89-3.64,3.41-4.11l-3.94-4.58v-.17Zm9.05,11.06l.07-4.23-3.8-.06c-1.59-.03-2.29,1.02-2.3,2.08-.02,1.06.67,2.13,2.23,2.15l3.8.06Z"/>
      <path class="cls-4" d="m86.45,155.14l-1.87,13.11-2.45-.35,1.87-13.11,2.45.35Z"/>
      <path class="cls-4" d="m70.93,161.95c.22.85,1.22,1.89,2.6,2.29,1.78.52,2.85.02,3.12-.92.32-1.11-.9-1.8-2.37-2.42-2.56-1.1-4.83-2.51-3.94-5.54.82-2.83,3.68-3.32,6.52-2.5,2.6.75,4.36,2.13,4.63,4.73l-2.3.45c-.16-1.56-1.45-2.61-2.99-3.06-1.51-.44-3.08-.32-3.48,1.06-.35,1.2.76,2.05,2.4,2.73,2.51,1.06,4.7,2.45,3.87,5.3-.76,2.62-3.65,2.94-6,2.27-1.98-.58-3.87-1.74-4.26-3.98l2.19-.43Z"/>
      <path class="cls-4" d="m55.51,150.77c1.67-2.99,5.14-5,9.24-2.78s4.39,6.19,2.73,9.25c-1.66,3.06-5.29,5.07-9.32,2.89-4.01-2.17-4.34-6.33-2.65-9.36Zm9.82,5.26c.99-1.94,1.07-4.54-1.68-6.03-2.75-1.49-4.89.01-5.96,1.91-1.1,1.95-1.19,4.74,1.55,6.22s5.07-.11,6.09-2.1Z"/>
      <path class="cls-4" d="m47.18,152.61l7.03-8.37-5.21-4.38,1.48-1.77,7.12,5.98-8.51,10.14-1.91-1.6Z"/>
      <path class="cls-4" d="m43.19,129.6l6.36,7.6c-3.38,2.83-6.78,5.67-10.16,8.49l-6.36-7.6,1.86-1.55,4.77,5.7,2.34-1.95-4.6-5.5,1.79-1.49,4.6,5.5,2.29-1.92-4.77-5.7,1.89-1.58Z"/>
      <path class="cls-4" d="m33.15,107.35l.94,2.82-2.98,5.06.76,2.28,4.2-1.4.79,2.37-12.58,4.19c-.66-1.99-1.31-3.99-1.97-5.98-.97-2.97.48-5.19,2.66-5.91,1.72-.57,3.73-.36,5.01,1.86l3.02-5.23.16-.05Zm-7.43,12.21l4.02-1.34-1.2-3.61c-.5-1.51-1.72-1.82-2.73-1.48-1,.34-1.79,1.33-1.29,2.82l1.2,3.61Z"/>
      <path class="cls-4" d="m33.29,106.54l-13.02,2.41-.45-2.44,13.02-2.41.45,2.44Z"/>
      <path class="cls-4" d="m21.9,94.01c-.74.49-1.4,1.76-1.34,3.2.08,1.85.89,2.71,1.87,2.67,1.15-.05,1.42-1.42,1.54-3.02.22-2.77.83-5.37,3.99-5.5,2.95-.12,4.32,2.43,4.45,5.38.11,2.7-.63,4.81-3.01,5.9l-1.16-2.03c1.43-.65,2.01-2.2,1.94-3.81-.07-1.57-.68-3.02-2.11-2.96-1.25.05-1.7,1.38-1.82,3.14-.21,2.71-.82,5.24-3.79,5.36-2.72.11-3.95-2.52-4.07-4.96-.09-2.06.41-4.22,2.41-5.3l1.1,1.94Z"/>
      <path class="cls-4" d="m27.49,75.84c3.37.61,6.39,3.25,5.62,7.84s-4.44,6.15-7.87,5.57c-3.43-.58-6.51-3.37-5.74-7.88.76-4.49,4.59-6.15,8-5.53Zm-1.8,10.99c2.15.31,4.64-.46,5.16-3.54.52-3.08-1.6-4.62-3.73-5.03-2.19-.41-4.86.4-5.38,3.48-.52,3.08,1.74,4.76,3.95,5.08Z"/>
      <path class="cls-4" d="m23.07,68.55l10.19,3.96,2.47-6.34,2.15.84-3.37,8.67-12.34-4.8.9-2.33Z"/>
      <path class="cls-4" d="m43.62,57.36l-5.18,8.45c-3.76-2.3-7.53-4.62-11.29-6.92l5.18-8.45,2.06,1.27-3.89,6.34,2.6,1.59,3.75-6.11,1.98,1.22-3.75,6.11,2.55,1.56,3.89-6.34,2.1,1.29Z"/>
    </g>
  </g>
</svg>