<?xml version="1.0" encoding="UTF-8"?>
<svg id="Camada_1" data-name="Camada 1" xmlns="http://www.w3.org/2000/svg" xmlns:xlink="http://www.w3.org/1999/xlink" viewBox="0 0 180 180">
  <defs>
    <style>
      .cls-1 {
        clip-path: url(#clippath-2);
      }

      .cls-1, .cls-2, .cls-3, .cls-4, .cls-5, .cls-6, .cls-7 {
        fill: none;
      }

      .cls-8 {
        fill: #d48122;
      }

      .cls-9 {
        letter-spacing: -.02em;
      }

      .cls-10 {
        letter-spacing: -.06em;
      }

      .cls-11 {
        fill: #f9e5c4;
      }

      .cls-2 {
        clip-path: url(#clippath-3);
      }

      .cls-12 {
        font-family: CervanttisRegular, Cervanttis;
        font-size: 20.61px;
      }

      .cls-12, .cls-13 {
        fill: #fbebce;
      }

      .cls-14 {
        fill: #d88c33;
      }

      .cls-4 {
        clip-path: url(#clippath);
      }

      .cls-15 {
        fill: #973905;
      }

      .cls-5 {
        clip-path: url(#clippath-1);
      }

      .cls-16 {
        letter-spacing: -.03em;
      }

      .cls-6 {
        opacity: .61;
      }

      .cls-7 {
        opacity: .1;
      }
    </style>
    <clipPath id="clippath">
      <rect class="cls-3" x="196.44" width="180" height="180"/>
    </clipPath>
    <clipPath id="clippath-1">
      <rect class="cls-3" width="180" height="180"/>
    </clipPath>
    <clipPath id="clippath-2">
      <rect class="cls-3" x="77.72" y="49.83" width="112.19" height="144.36"/>
    </clipPath>
    <clipPath id="clippath-3">
      <rect class="cls-3" x="77.72" y="49.83" width="112.19" height="144.36"/>
    </clipPath>
  </defs>
  <g class="cls-6">
    <g class="cls-4">
      <path class="cls-11" d="m350.56-115.58c45.88,0,89.01,17.87,121.45,50.31,32.44,32.44,50.31,75.57,50.31,121.45s-17.87,89.01-50.31,121.45c-32.44,32.44-75.57,50.31-121.45,50.31s-89.01-17.87-121.45-50.31c-32.44-32.44-50.31-75.57-50.31-121.45s17.87-89.01,50.31-121.45c32.44-32.44,75.57-50.31,121.45-50.31m0-43.18c-118.71,0-214.94,96.23-214.94,214.94s96.23,214.94,214.94,214.94,214.94-96.23,214.94-214.94-96.23-214.94-214.94-214.94h0Z"/>
    </g>
  </g>
  <rect class="cls-8" width="180" height="180"/>
  <g class="cls-5">
    <g>
      <path class="cls-14" d="m154.77,38.84c50.74,0,92.01,41.28,92.01,92.01s-41.28,92.01-92.01,92.01-92.01-41.28-92.01-92.01,41.28-92.01,92.01-92.01m0-23.13c-63.59,0-115.14,51.55-115.14,115.14s51.55,115.14,115.14,115.14,115.14-51.55,115.14-115.14S218.36,15.7,154.77,15.7h0Z"/>
      <g id="Arte_9" data-name="Arte 9" class="cls-7">
        <g class="cls-1">
          <g class="cls-2">
            <path class="cls-13" d="m131.45,117.06c-.15-.02-.29-.02-.44-.02-3.58,0-6.88,4.61-7.51,10.49-.12,1.12-.14,2.25-.05,3.34,0,.03.03.2.08.46.76-.21,1.56-.37,2.39-.45.36-.04.89-.08,1.52-.1-.03-.14-.05-.24-.05-.28-.06-.67-.05-1.38.04-2.11.48-3.96,3.12-6.96,5.9-6.69,1.63.15,2.93,1.39,3.65,3.18-.19-1.5-.57-2.9-1.16-4.11-1.06-2.2-2.61-3.51-4.37-3.7"/>
            <path class="cls-13" d="m131.26,124.62c-.51-.2-1.17.29-1.49,1.09s-.16,1.62.34,1.82c.51.2,1.17-.29,1.49-1.09.32-.8.16-1.62-.34-1.82"/>
            <path class="cls-13" d="m103.95,127.63c.3-2.74,1.94-4.81,3.66-4.63.65.07,1.22.45,1.66,1.04-.51-2.84-1.68-4.32-2.52-4.44-.04,0-.09,0-.13,0-1.32,0-3.41,3.03-3.82,7.97-.07.89-.09,1.79-.03,2.68,0,.05.02.23.07.5.51-.15,1.02-.27,1.5-.37-.33-.62-.41-1.19-.42-1.28-.04-.47-.03-.96.02-1.46"/>
            <path class="cls-13" d="m106.7,124.48c-.51-.2-1.17.29-1.49,1.09-.32.8-.16,1.62.34,1.82.51.2,1.17-.29,1.49-1.09.32-.8.16-1.62-.34-1.82"/>
            <path class="cls-13" d="m111.39,161.06c-2.28,0-4.56-.22-6.8-.65,2.51,2.31,5.84,3.7,9.38,3.7.56,0,1.13-.04,1.69-.11,3.89-.49,7.26-2.62,9.45-5.65-3.72,1.52-7.61,2.41-11.62,2.64-.69.04-1.39.06-2.09.06"/>
            <path class="cls-13" d="m105.35,156.88c-1.19,0-2.39-.03-3.59-.09.24.45.51.87.8,1.29,2.89.76,5.86,1.15,8.83,1.15.66,0,1.33-.02,1.99-.06,4.61-.27,9.07-1.44,13.25-3.49.33-.78.61-1.58.8-2.42-2.99,1.01-6.06,1.81-9.15,2.4-4.24.81-8.59,1.22-12.93,1.22"/>
            <path class="cls-13" d="m188.19,166.8c-.6-.46-1.31-.76-2.09-.9-.12-.83-.43-1.61-.95-2.26-.75-.95-1.82-1.54-3.18-1.76.07-.76.04-1.58-.14-2.44-.49-2.31-1.62-4-3.35-5.03-.15-.09-.31-.18-.47-.25.09-.5.17-1,.23-1.51.23-1.97.33-4.98-.53-8.17-.24-.88-2.01-7.06-5.93-9.99,1-3.55.57-11.68.54-12.08-.25-4.68-.86-9.34-1.81-13.87l-.03-.14-.05-.13c-1.37-3.96-3.33-7.61-5.84-10.84-.35-.46-.72-.91-1.11-1.35.6-1.32,1.18-2.44,1.68-3.35,1.39.33,2.81.51,4.24.51,2.43,0,4.75-.49,6.88-1.45,7.8-3.52,12-13.01,9.36-21.13-2.13-6.58-8.39-11.43-15.21-11.79-.28-.01-.55-.02-.82-.02-1.06,0-2.06.11-2.99.29-2.85-5.62-8.24-9.3-13.9-9.3-.94,0-1.87.1-2.78.31-1.42.32-2.67.88-3.76,1.56-2.43-1.06-5-1.63-7.51-1.63-3.25,0-6.21.92-8.57,2.65-3.64,2.67-5.78,7.21-5.88,12.44-.09,4.92,1.74,9.49,4.79,11.91,1.75,1.39,3.95,2.17,6.54,2.33.07.1.14.2.22.3-.24.86-.5,1.65-.77,2.39-.15-.01-.31-.03-.45-.04-1.25-.1-2.61-.2-4.21-.2-3.24,0-6.29.41-9.32,1.25-10.32,2.87-21.85,11.28-24.34,23.6-.34,1.68-.49,8.97-.48,10.6v1.41s.14-.19.14-.19c-1.08,4.38-1.65,8.96-1.65,13.67,0,2.3.14,4.58.4,6.81-2.02,2.79-3.59,5.8-4.64,8.9-1.38,4.07-1.88,8.3-1.37,12.45-1.67,1.03-2.77,2.7-3.25,4.97-.18.87-.21,1.69-.15,2.44-1.36.22-2.43.81-3.18,1.76-.52.65-.83,1.43-.95,2.26-.77.14-1.48.44-2.09.9-2.12,1.61-1.95,4.95-1.51,6.61.9,3.33,4.61,5.83,9.28,6.16l-2.18-3.37c.6.18,1.23.28,1.87.28,1.28,0,2.45-.4,3.34-1.12.05.14.1.27.16.41-.9.87-1.47,2-1.51,3.21-.04,1.21.48,2.47,1.43,3.44.32.33.68.62,1.07.87-1.36-.18-2.72-.36-4.08-.54.54.82,1.97,2.74,4.57,3.65,1.03.36,1.98.47,2.71.48h0c.99,0,1.93-.2,2.8-.6,2.4-1.11,3.7-2.9,3.58-4.93-.04-.61-.21-1.2-.49-1.75.41-.53.7-1.14.83-1.8.19-.99.02-1.98-.5-2.95.39-.31.76-.67,1.11-1.1.48.28.96.56,1.45.81,6.67,3.47,14.93,4.63,23.31,3.02,2.87-.55,5.76-1.42,8.59-2.64,5.97-2.56,10.99-6.32,14.78-10.75,1.35-1.57,2.74-3.1,4.23-4.54.98-.95,1.93-1.93,2.84-2.94.22-.29.42-.59.61-.9.28.8.53,1.65.28,2.27-.09.22-.16.29-.66.64-.67.47-1.68,1.19-2.33,2.72-.82,1.92-.91,4.85.8,6.74.75.83,1.6,1.17,2.21,1.36-.62.19-1.43.54-2.13,1.37-1.28,1.5-1.79,4.24-.23,6.36.25.34.54.65.87.91-.14.26-1.07,2.1-.24,4.2.9,2.27,3.11,2.92,3.36,2.99-.77.33-1.54.66-2.31,1,.71.56,2.19,1.55,4.28,1.83.68.09,4.3.58,6.74-2.01,1.32-1.4,2.35-3.76,1.8-5.81,0,0,0,0,0,0,.32.15,1.36.6,2.8.6,3.59,0,6.05-2.81,6.58-3.43-.88-.24-1.76-.48-2.64-.72.08-.07.2-.18.33-.31.26-.28,1.49-1.55,1.43-3.44-.04-1.21-.61-2.34-1.51-3.21.06-.13.11-.27.15-.4,1.34,1.09,2.92,1.11,3.34,1.11.46,0,.85-.05,1.13-.1-.22.33-.48.68-.78,1.03-.52.62-1.04,1.12-1.52,1.52,5.1.16,9.23-2.27,10.14-5.52.76-2.69-.67-5.97-1.51-6.61m-15.02-3.92s0,0,0,0c0,0,.01,0,.02,0,0,0,0,0-.01.01m-67.77-24.14c.05.55.54,1.24,1.31,1.84,1.16.89,2.73,1.43,4.2,1.43.42,0,.75-.05.96-.08,2.45-.38,5.48-1.76,7.1-2.54l-.22.4c-.53.97-2.58,4.17-6.4,4.85-.47.08-.96.12-1.45.12-2.08,0-4.22-.73-5.86-2-1.42-1.09-2.26-2.44-2.37-3.78-.13-1.64.84-2.76,1.77-3.68.15-.15.31-.31.48-.47.52-.5,1.1-1.06,1.65-1.74.02-.02.04-.05.06-.07-3.44.21-7.63.69-7.68.69l-1.6.18,1.26-1c.53-.42,1.09-.78,1.65-1.08-.15-.64-.21-1.13-.22-1.32-.06-1.07-.05-2.12.03-3.15.49-5.98,3.31-10.49,6.55-10.49.17,0,.34.01.51.04,2.96.41,5.05,4.46,5.13,9.86l.07.02-.06.3h0s-.03.15-.03.15c-.08.39-.18.77-.28,1.14,0,.02-.01.04-.02.06-.31,1.12-.71,2.17-1.18,3.15,0,0,0,0,0,0l-.15.3h0c-.13.25-.26.49-.39.73l-.05.34h-.15c-.4.67-.84,1.3-1.33,1.89-.66.8-1.3,1.42-1.86,1.96-.16.16-.31.3-.46.44-.85.85-.99,1.17-.97,1.51m-3.05-26.14c1.47-1.91,4.59-5,6.18-3.98.29.18,1.03.82.99,3.41-1.02.41-2.24,1.02-3.53,1.93-1.7,1.2-2.96,2.51-3.84,3.58-.74-.11-1.48-.23-2.22-.34.4-1.19,1.12-2.91,2.42-4.6m51.74-20.15l-2.07,3.63c-1.49-.85-2.99-1.63-4.48-2.34l3.69-6.81-2.41-1.31-3.78,6.98c-1.85-.81-3.61-1.5-5.19-2.07l1.77-3.11-2.38-1.36-2.03,3.55c-.97-.32-1.81-.58-2.47-.78.91-1.38,2.22-3.72,3.26-6.93,1.82,1.36,4.08,2.22,6.51,2.43.38.03.77.05,1.15.05,2.56,0,5.1-.75,7.3-2.11.06.19.13.38.2.57,1.41,3.79,4.83,7.14,9.16,8.95.07.03.13.05.2.08-1.17,2.16-2.56,5.15-3.74,8.86-1.37-1.16-2.87-2.23-4.41-3.22l2.11-3.7-2.38-1.36Zm-20.48-21.7c-.96,2.87.28,5.29.5,5.7-1.31-.27-2.44-.78-3.37-1.52-2.39-1.9-3.83-5.62-3.76-9.71.08-4.31,1.86-8.15,4.76-10.28,1.89-1.39,4.29-2.12,6.94-2.12,1.67,0,3.38.3,5.04.87-.61.64-1.62,1.87-2.22,3.71-.75,2.3-.43,4.27-.23,5.16.49-.93.99-1.86,1.48-2.8.29-.64,1.48-3.03,3.71-4.87l.1.05.12-.23c1.06-.83,2.35-1.53,3.87-1.88.71-.16,1.45-.24,2.18-.24,4.46,0,8.75,2.87,11.19,7.32-.39.09-.97.28-1.58.68-1.17.77-1.67,1.82-1.87,2.26-.61,1.33-.54,2.56-.47,3.12,1.88-1.84,5.14-4.34,9.6-4.36.05,0,.35,0,.68.02,5.71.3,10.95,4.37,12.74,9.89,2.22,6.84-1.32,14.82-7.88,17.79-2.49,1.13-4.69,1.21-5.75,1.21-6.14.01-12.16-3.96-13.69-8.6-.7-2.13-.59-4.38-.59-4.38.09-1.38.4-2.65.74-3.66.38-1.06.77-2.13,1.15-3.19-.7.28-2.17.98-3.28,2.55-1.04,1.46-1.25,2.92-1.35,3.71-.13.99-.07,1.83.01,2.42-1.98,1.5-4.31,2.29-6.75,2.29-.3,0-.61-.01-.92-.04-2.68-.23-5.09-1.45-6.61-3.35-2.47-3.1-2.54-7.9-.16-11.67l.24-.39c-.36.12-3.49,1.23-4.6,4.56m-34.22,36.5c2.25-11.12,13.18-18.94,22.38-21.5,2.79-.78,5.6-1.15,8.58-1.15,1.31,0,2.46.07,3.52.15-1.26,2.57-2.44,3.93-2.45,3.95l-1.51,1.68,2.19.56c.17.04,17.39,4.54,26.41,13.24l1.67,1.61.61-2.23c.46-1.67.97-3.22,1.51-4.62.04.06.09.11.13.17,2.31,2.99,4.13,6.36,5.4,10.03.92,4.38,1.51,8.89,1.75,13.42.19,3.61.12,6.39-.03,8.32-.13-.18-.27-.35-.42-.5-.28-.63-.7-1.15-1.32-1.38-.23-.09-.42-.1-.57-.12-.11-.01-.22-.02-.33-.02-3.24,0-6.21,4.94-6.91,11.48-.01.12-.03.25-.04.37-.72-1.57-1.28-3.38-1.62-5.33-.08-.43-.15-.88-.21-1.38-.06-.48-.1-.98-.13-1.53,0-.25,0-.49-.02-.71,0-.08,0-.16,0-.23v-.06c-.38-8.77-3.45-16.92-8.63-22.95l-.03-.04c-5.68-6.86-14.75-10.79-24.88-10.79-5.49,0-10.94,1.14-16.18,3.39-2.62,1.12-3.74,1.82-5.86,3.26l-.09.06-.05.1c-.42.79-1.02,1.69-1.64,2.64-.54.81-1.08,1.64-1.55,2.44.07-.79.18-1.57.34-2.34m-10.43,72.15c-1.28,1.18-4.24.93-5.81-1.48-.15.26-.65,1.2-.43,2.4.3,1.63,1.67,2.38,1.85,2.48-.44-.14-3.56-1.23-4.39-4.13-.12-.41-.86-2.98.69-4.16.89-.68,2.25-.67,3.5-.06-.74-1.2-.76-2.61-.06-3.5.68-.87,1.81-.94,2.2-.97,1.38-.1,2.37.62,2.64.83-.3-.44-1.61-2.47-1.08-5.01.1-.47.39-1.85,1.46-2.91.34,1.5.81,2.98,1.43,4.44.28.66.6,1.3.93,1.93.05.14.12.26.2.37.35.63.72,1.24,1.11,1.83-.15.72-.15,1.48.05,2.23-.24.42-.6.79-1.06,1.04-1.12.6-2.61.33-3.57-.7,1.6,1.85,1.46,4.32.32,5.37m7.6.72c.29.06,1.28.3,1.97,1.22.2.26.76,1.02.59,1.93-.18.93-1.08,1.69-2.25,1.88,1.07.46,1.82,1.32,1.88,2.25.1,1.62-1.93,2.56-2.26,2.71-2.29,1.06-4.68-.33-5.01-.52.16.06,1.39.51,2.58-.18.88-.52,1.2-1.34,1.29-1.58-2.38.33-4.15-1.41-4.11-2.87.04-1.29,1.53-2.73,3.57-2.73-1.18-.05-2.16-.84-2.4-1.88-.26-1.15.47-2.26,1.28-2.66,1-.49,1.76.29,2.63-.28.44-.29.73-.82.82-1.35.91.85,1.88,1.63,2.9,2.35-1.3,1.43-3.07,1.68-3.48,1.72m34.94-24.86c-.05-.41-.28-2.19-1.54-3.78-.33,2.96-1.27,5.82-2.75,8.3-1.21,2.04-4.44,7.46-10.31,8.38-.56.09-1.13.13-1.69.13-5.03,0-8.97-3.45-10.86-5.11-2.51-2.2-4.53-5.06-5.83-8.26l-.28-.7.75.07c.18.02.35.03.53.04,1.25-.07,2.48-.28,3.66-.62,1.22-.35,1.83-.52,2.38-.87l.18-.12c.36-.24.91-.61,1.71-.91l.05-.02c.15-.06.43-.17.77-.23.34-.06.7-.1,1.08-.1,1.79,0,3.54.7,4.28,1.04,1.02-.94,2.14-1.55,3.33-1.82.42-.1.83-.14,1.25-.14.64,0,1.23.11,1.91.23.49.09,1.05.2,1.71.27.61.07,1.15.1,1.76.1.29,0,.59,0,.91-.02,1.06-.04,2.12-.17,3.16-.38.38-.14.77-.28,1.15-.42-1.4-1.04-2.77-1.1-3.15-1.1,1.24-1.4,3.01-1.85,4.34-1.13,1.87,1.01,2.93,4.34,1.53,7.14m-1.68-21.59c-1.21-.02-2.45-.03-3.66-.03-2.71,0-5.45.05-8.16.14.71-.44,1.72-1.01,2.92-1.53h0c-.13-.58-.19-.98-.2-1.08v-.08c-.11-1.27-.09-2.56.05-3.86.79-7.38,5.19-12.94,10.24-12.94.24,0,.49.01.73.04,2.74.29,5.07,2.15,6.55,5.24,1.31,2.72,1.82,6.16,1.44,9.69-.1.92-.26,1.84-.48,2.74-.03.24-.07.48-.12.72l-.05.23c1.07.47,1.9.91,2.42,1.19-3.87-.26-7.8-.42-11.68-.48m9.31-17.39c-1.13-1.23-2.76-2.74-4.96-4.11-1.67-1.04-3.26-1.75-4.57-2.22-.05-2.97.91-3.71,1.28-3.92,2.06-1.17,6.09,2.37,7.99,4.57,1.68,1.95,2.61,3.92,3.13,5.29l-2.87.39Zm27.58,74.3c-2,2.25-5.29,1.89-5.75,1.83.21,0,1.77-.1,2.74-1.44.72-.99.68-2.05.65-2.35-2.45,1.5-5.23.44-5.88-1.18-.57-1.44.37-3.73,2.61-4.7-1.32.51-2.77.11-3.53-.91-.83-1.13-.57-2.7.13-3.53.86-1.02,2.07-.52,2.74-1.57.46-.71.43-1.77,0-2.48-.68-1.12-1.93-.65-2.87-1.7-.98-1.08-.95-3.01-.39-4.31.79-1.85,2.3-1.64,3-3.4.62-1.54.04-3.13-.39-4.31-1.11-3.02-2.72-2.99-3.27-5.09-.65-2.51.75-6.02,3.53-7.31.06-.03.37-.17.84-.3l.73,1.23c1.24,2.93,3.09,3.55,3.09,3.55.98.1,1.95-.34,2.85-1.21,1.27,3.68.39,8.69.34,9-.57,3.07-1.96,5.56-2.74,6.79-.75,1.18-1.51,2.1-2.09,2.74.41.23,1.06.67,1.57,1.44,1.13,1.69.66,3.61.52,4.18-.61,2.52-2.67,3.78-3.13,4.05.34-.07,1.54-.29,2.74.39.34.19,1.33.75,1.57,1.83.25,1.11-.38,2.37-1.57,3.13,1.39-.01,2.62.57,3.13,1.57.89,1.73-.89,3.73-1.18,4.05m-.26-12.24s.02.04.02.06c-.01,0-.02-.02-.04-.03,0,0,.01-.02.02-.03m7.17,5.17c1.19.7,2.42.25,2.58.18-.33.2-2.72,1.58-5.01.52-.33-.15-2.36-1.09-2.26-2.71.06-.93.81-1.79,1.88-2.25-1.17-.19-2.07-.94-2.25-1.88-.17-.91.39-1.66.59-1.93.69-.92,1.68-1.16,1.97-1.22-.43-.05-2.35-.32-3.66-1.93-.18-.78-.49-1.51-.94-2.19-.06-.09-.12-.17-.19-.26-.01-.1-.02-.21-.02-.32.26-.37.52-.73.76-1.11.79-1.25,1.77-3.07,2.47-5.27.48.11.96.28,1.47.76.86.81,1.53,2.28,1.14,3.43-.38,1.12-1.49,1.17-1.63,2.26-.09.69.24,1.51.83,1.9.86.58,1.63-.21,2.63.28.81.4,1.54,1.51,1.28,2.66-.23,1.04-1.21,1.83-2.4,1.88,2.05,0,3.53,1.44,3.57,2.73.05,1.45-1.73,3.19-4.11,2.87.08.24.4,1.07,1.29,1.58m13.87-10.72c-.83,2.9-3.96,3.99-4.39,4.13.18-.1,1.55-.86,1.85-2.48.22-1.2-.28-2.14-.43-2.4-1.56,2.41-4.53,2.66-5.81,1.48-1.14-1.05-1.28-3.52.32-5.37-.97,1.03-2.45,1.3-3.58.7-.46-.25-.82-.62-1.06-1.04.25-.93.18-1.88-.09-2.76.5-.78,1.42-1.01,1.55-2.03.1-.84-.38-1.78-1.07-2.24-1.1-.72-2.02.24-3.33-.29-.44-.18-.82-.49-1.13-.87.28-2.24.58-6.89-1.19-10.31,1.13-1.98,1.98-4.7,2.31-7.75.16-1.48.18-2.91.08-4.24,2.6,2.8,3.91,7.46,3.99,7.76.81,3.02.64,5.86.46,7.31-.17,1.39-.45,2.54-.7,3.38.47.03,1.25.15,2.03.62,1.75,1.04,2.16,2.97,2.28,3.54.54,2.53-.78,4.57-1.08,5.01.28-.21,1.27-.93,2.64-.83.39.03,1.52.11,2.2.97.7.89.68,2.3-.06,3.5,1.25-.61,2.61-.62,3.5.06,1.55,1.17.81,3.75.69,4.16"/>
          </g>
        </g>
      </g>
      <path class="cls-14" d="m154.77,5.13c33.58,0,65.15,13.08,88.89,36.82,23.74,23.74,36.82,55.31,36.82,88.89s-13.08,65.15-36.82,88.89c-23.74,23.74-55.31,36.82-88.89,36.82s-65.15-13.08-88.89-36.82c-23.74-23.74-36.82-55.31-36.82-88.89s13.08-65.15,36.82-88.89C89.62,18.21,121.19,5.13,154.77,5.13m0-31.6C67.88-26.47-2.55,43.96-2.55,130.85s70.43,157.32,157.32,157.32,157.32-70.43,157.32-157.32S241.65-26.47,154.77-26.47h0Z"/>
      <path class="cls-14" d="m154.77-40.91c45.88,0,89.01,17.87,121.45,50.31,32.44,32.44,50.31,75.57,50.31,121.45s-17.87,89.01-50.31,121.45c-32.44,32.44-75.57,50.31-121.45,50.31s-89.01-17.87-121.45-50.31C.87,219.86-16.99,176.73-16.99,130.85S.87,41.84,33.31,9.4c32.44-32.44,75.57-50.31,121.45-50.31m0-43.18C36.06-84.09-60.17,12.14-60.17,130.85s96.23,214.94,214.94,214.94,214.94-96.23,214.94-214.94-96.23-214.94-214.94-214.94h0Z"/>
    </g>
  </g>
  <g>
    <polygon class="cls-15" points="34.8 79.75 34.7 79.61 34.16 79.58 33.12 79.81 32.95 79.64 31.87 79.81 31.74 79.69 31.17 79.64 31 79.75 25.68 79.75 25.68 88.54 35.14 92.3 35.51 97.3 29.62 97.3 29.45 96.09 29.55 95.87 29.55 93.31 29.75 93.17 29.52 92.89 29.52 91.57 27.33 91.57 25.92 91.63 25.78 91.8 25.78 97.81 26.02 99.58 26.25 100.17 35.98 100.17 36.32 100.11 38.84 100.22 38.98 99.27 38.71 98.9 38.71 98.23 39.18 96.37 39.08 96.32 39.04 96.01 38.81 95.9 39.01 95.08 38.81 91.07 38.98 90.98 38.98 90.79 37.46 90.23 37.46 90 29.69 86.63 29.25 86.35 29.25 85.76 29.35 85.51 29.21 85.39 29.21 84.72 29.35 84.41 29.15 84.13 29.15 83.04 32.85 83.04 34.43 82.95 35.04 83.01 35.04 86.77 35.34 87.67 38.74 87.92 38.74 83.09 38.5 82.73 38.64 82.53 38.64 81.74 38.24 81.27 38.44 81.18 38.3 79.95 37.53 79.75 37.36 79.58 34.8 79.75"/>
    <path class="cls-15" d="m48.99,86.6v-1.99l2.32,8.82h-3.94l1.62-6.82Zm.64-6.65h-3.23l-.17,1.63-.64,1.83-.4,1.91-.17.06-2.46,15.11h3.13l.77-3.73h5.55l1.11,3.88h2.83l-1.11-5.78-1.85-8.28-.88-3.23-.71-2.08-.2-.14.03-.62-.24-.62-1.38.08Z"/>
    <polygon class="cls-15" points="59.34 79.78 59.47 80.4 59.64 83.43 59.64 100.45 73.2 100.45 73.2 97.05 69.17 97.05 69 96.91 68.8 96.88 68.73 97.13 63.75 97.3 63.71 97.13 63.48 96.99 63.64 96.35 63.78 94.58 63.78 89.19 63.51 88.93 63.51 82.19 62.97 82.17 62.97 81.24 63.17 79.78 59.34 79.78"/>
    <polygon class="cls-15" points="76.58 79.67 76.58 100.22 88.77 100.22 88.77 88.15 82.21 88.15 82.21 91.88 85 91.88 85 97.13 84.8 97.22 84.26 97.22 84.02 97.1 83.28 97.47 83.01 97.1 81.13 97.1 80.56 96.99 80.25 96.29 80.25 83.51 80.69 82.78 85 82.78 85 85.59 88.57 85.59 89.07 80.59 89.07 79.67 76.58 79.67"/>
    <path class="cls-15" d="m98.85,84.95h.4l1.58,8.45-2.69.14-.71.11.3-.9.54-.98v-.17h-.3l.88-6.65Zm-2.73-3.96l-.34.53v.81l-.24.23v1.18l-.34.87-1.48,6.54-1.28,8.85,3.33.25.13-.98.54-1.83.37-.81.34.37,2.49-.08.84.06,1.08-.22-.17.42.61.81-.17.14v.22l.27.14-.07,1.07.71.62.44-.06,1.78.22h.74l.13-.11-.13-1.52-.2-1.8-.13-.31.17-.22v-.14l-.34-.53-.07-.98-.2-1.01-.67-2.11.1-.22-.44-1.35-.44-2.16-.3-.34-.71-2.89-.24.03.07-.62-.4-.56v-1.15l-.17-.11-.34-.56-.27-.73-.13-1.07-4.68-.17-.2,1.29Z"/>
    <path class="cls-15" d="m116.2,91.21l-.17-1.97.1-.17v-4.61l-.4-1.4h3.26v5.48l.2,1.68-.2.11.24.81.07.03-.1.25v.42l.5,1.69-.2.51.24,2.61v.28l-.07.28h-3.47v-6.01Zm2.42-11.65h-9.02l.1.81.13.2-.27.25.1.56v1.04l-.1.42h2.46l-.2.67-.13,1.52-.27,1.24.3.79v5.56l.3.25-.54.45v.42l.44.22-.2.59v.9l.1.28-.07.48.07.76-.17.23-2.22-.14v.17l-.2.17.07,1.38.2,1.6.1.28h11.61l1.38-.73,1.25-1.26v-.95l-.17-.22.1-1.07.17-.76-.2-.25.07-.56v-4.04l.24-.11v-.17l-.34-.73v-1.6l.24-.7-.2-.25.2-.11-.2-1.54-.3-4.07-2.36-2.13-2.46.2Z"/>
    <path class="cls-15" d="m131.29,97.19l.17-1.29v-.62l-.3-.31.3-.14-.1-2.58-.37-1.85.57-.39-.5-.25.24-.11.07-.11-.2-.2v-3.68l-.2-.56.2-.25v-.14l-.17-.06.13-.22-.13-1.69h5.42l-.1.84v2.89l-.24.31.27.08v5.98l.24.39.1,1.6v.48l-.2.11.07.34v1.43h-2.19l-2.96.17-.1-.17Zm-3.87-17.69l.27,4.04-.2.2.24.11v.2l-.24.51.2.17v.59l-.2.9v8.62l.5,5.5h.27l.17-.14.1.08,2.19.17h2.73l.1-.17,1.62.14h1.58v-.14l.4.14h1.51l.27.08.17-.14.17.23h.2l.17-.25.27.22.2.03-.13-1.6.17-.79-.2-.06.3-.22-.3-.45-.1-.31.27-.11-.17-.11.13-.22.1-1.21-.03-.48.2-.11-.24-.11v-1.99l.13-.31-.2-.11.07-.25-.1-.34.13-.17-.1-.28v-.67l.1-.25-.1-.34.2-.14-.4-.65.3-.2v-.42l-.2-.31.13-1.52-.27-.14.13-1.32-.2-.14.27-.65.03-.34-.34-.39v-4.13l-.57-.25h-11.71Z"/>
    <polygon class="cls-15" points="152.85 79.58 143.73 79.58 143.73 83.77 143.96 86.1 143.96 87.14 144.2 87.67 144.43 87.67 147.6 89.58 153.49 92.67 153.49 96.35 153.69 97.33 150.09 97.33 149.99 97.22 149.75 97.39 147.83 97.39 147.6 97.22 147.6 91.46 145.34 91.46 144.23 91.35 144.1 91.46 144.1 99.13 143.93 99.66 143.93 99.97 144.13 100.25 157.26 100.25 157.26 94.8 157.23 94.69 157.23 90.76 154.67 89.49 147.56 85.62 147.36 83.74 147.36 82.31 151.1 82.31 151.37 82.05 151.94 82.05 152.95 82.22 153.39 82.45 153.39 86.49 153.59 86.66 154.6 86.57 156.55 86.66 156.82 86.57 156.82 79.47 152.85 79.58"/>
  </g>
  <text class="cls-12" transform="translate(44.46 111.42)"><tspan class="cls-16" x="0" y="0">p</tspan><tspan x="8.25" y="0">a</tspan><tspan class="cls-10" x="19.5" y="0">r</tspan><tspan x="26.78" y="0">a Fe</tspan><tspan class="cls-9" x="68.99" y="0">st</tspan><tspan x="79.22" y="0">a</tspan></text>
</svg>