<?xml version="1.0" encoding="UTF-8"?>
<svg id="Camada_1" data-name="Camada 1" xmlns="http://www.w3.org/2000/svg" xmlns:xlink="http://www.w3.org/1999/xlink" viewBox="0 0 180 180">
  <defs>
    <style>
      .cls-1 {
        letter-spacing: -.06em;
      }

      .cls-2 {
        clip-path: url(#clippath-2);
      }

      .cls-2, .cls-3, .cls-4, .cls-5, .cls-6, .cls-7, .cls-8 {
        fill: none;
      }

      .cls-9 {
        fill: #d48122;
      }

      .cls-10 {
        fill: #f9e5c4;
      }

      .cls-11 {
        fill: #973905;
        font-family: CervanttisRegular, Cervanttis;
        font-size: 20.61px;
      }

      .cls-3 {
        clip-path: url(#clippath-3);
      }

      .cls-12 {
        fill: #fbebce;
      }

      .cls-13 {
        fill: #d88c33;
      }

      .cls-5 {
        clip-path: url(#clippath);
      }

      .cls-14 {
        letter-spacing: 0em;
      }

      .cls-6 {
        clip-path: url(#clippath-1);
      }

      .cls-15 {
        letter-spacing: -.04em;
      }

      .cls-7 {
        opacity: .61;
      }

      .cls-8 {
        opacity: .1;
      }

      .cls-16 {
        letter-spacing: -.04em;
      }
    </style>
    <clipPath id="clippath">
      <rect class="cls-4" width="180" height="180"/>
    </clipPath>
    <clipPath id="clippath-1">
      <rect class="cls-4" x="77.72" y="-42.91" width="117.85" height="151.64"/>
    </clipPath>
    <clipPath id="clippath-2">
      <rect class="cls-4" x="77.72" y="-42.91" width="117.85" height="151.64"/>
    </clipPath>
    <clipPath id="clippath-3">
      <rect class="cls-4" x="-196.44" width="180" height="180"/>
    </clipPath>
  </defs>
  <rect class="cls-12" width="180" height="180"/>
  <g class="cls-7">
    <g class="cls-5">
      <g>
        <path class="cls-10" d="m154.11-35.83c50.74,0,92.01,41.28,92.01,92.01s-41.28,92.01-92.01,92.01S62.1,106.92,62.1,56.18s41.28-92.01,92.01-92.01m0-23.13c-63.59,0-115.14,51.55-115.14,115.14s51.55,115.14,115.14,115.14,115.14-51.55,115.14-115.14-51.55-115.14-115.14-115.14h0Z"/>
        <g id="Arte_11" data-name="Arte 11" class="cls-8">
          <g class="cls-6">
            <g class="cls-2">
              <path class="cls-9" d="m134.16,27.7c-.15-.02-.31-.02-.46-.02-3.76,0-7.23,4.84-7.89,11.02-.13,1.18-.14,2.36-.05,3.51,0,.03.03.21.08.48.8-.22,1.64-.39,2.51-.48.37-.04.93-.08,1.6-.11-.03-.15-.05-.25-.05-.3-.06-.71-.06-1.45.04-2.21.5-4.16,3.28-7.31,6.2-7.03,1.71.16,3.08,1.46,3.83,3.34-.2-1.57-.6-3.05-1.21-4.32-1.11-2.31-2.74-3.69-4.59-3.88"/>
              <path class="cls-9" d="m133.96,35.64c-.53-.21-1.23.31-1.56,1.15s-.17,1.7.36,1.91c.53.21,1.23-.31,1.56-1.15.33-.84.17-1.7-.36-1.91"/>
              <path class="cls-9" d="m105.27,38.8c.31-2.88,2.03-5.06,3.84-4.87.68.07,1.28.47,1.74,1.09-.53-2.98-1.76-4.54-2.64-4.66-.04,0-.09,0-.13,0-1.39,0-3.59,3.19-4.01,8.38-.08.93-.09,1.88-.03,2.81,0,.05.03.24.07.52.54-.16,1.07-.29,1.58-.38-.34-.65-.43-1.25-.44-1.35-.04-.49-.03-1,.02-1.53"/>
              <path class="cls-9" d="m108.16,35.5c-.53-.21-1.23.31-1.56,1.15-.33.84-.17,1.7.36,1.91.53.21,1.23-.31,1.56-1.15.33-.84.17-1.7-.36-1.91"/>
              <path class="cls-9" d="m113.09,73.93c-2.39,0-4.79-.23-7.15-.68,2.64,2.43,6.14,3.88,9.85,3.88.59,0,1.19-.04,1.77-.11,4.09-.51,7.63-2.75,9.93-5.93-3.9,1.59-8,2.53-12.21,2.78-.72.04-1.46.06-2.2.06"/>
              <path class="cls-9" d="m106.75,69.54c-1.25,0-2.51-.03-3.77-.1.25.47.54.92.84,1.35,3.04.8,6.15,1.21,9.27,1.21.69,0,1.4-.02,2.09-.06,4.85-.28,9.53-1.52,13.92-3.67.35-.81.64-1.66.84-2.54-3.14,1.06-6.36,1.9-9.61,2.52-4.46.85-9.03,1.28-13.58,1.28"/>
              <path class="cls-9" d="m193.76,79.95c-.63-.48-1.38-.8-2.19-.94-.12-.87-.46-1.69-1-2.37-.79-1-1.91-1.62-3.34-1.85.07-.79.04-1.66-.15-2.56-.51-2.43-1.7-4.21-3.51-5.29-.16-.1-.32-.18-.49-.27.1-.53.18-1.05.24-1.58.25-2.07.35-5.23-.55-8.58-.25-.93-2.12-7.42-6.23-10.49,1.05-3.72.59-12.27.57-12.69-.26-4.91-.9-9.81-1.9-14.57l-.03-.15-.05-.14c-1.44-4.16-3.5-7.99-6.13-11.39-.37-.48-.76-.95-1.16-1.42.63-1.38,1.24-2.57,1.76-3.52,1.46.35,2.95.53,4.45.53,2.55,0,4.99-.51,7.23-1.53,8.19-3.7,12.6-13.66,9.83-22.2-2.24-6.91-8.81-12-15.97-12.38-.29-.02-.58-.02-.86-.02-1.11,0-2.16.12-3.14.31-3-5.91-8.65-9.77-14.6-9.77-.98,0-1.97.11-2.92.32-1.49.34-2.8.92-3.95,1.64-2.55-1.12-5.25-1.71-7.89-1.71-3.41,0-6.53.96-9,2.78-3.82,2.81-6.07,7.57-6.18,13.07-.1,5.17,1.83,9.96,5.04,12.51,1.84,1.46,4.15,2.28,6.87,2.44.07.11.15.21.23.31-.25.9-.52,1.73-.81,2.51-.16-.01-.32-.03-.47-.04-1.31-.11-2.74-.21-4.42-.21-3.4,0-6.6.43-9.79,1.32-10.84,3.01-22.95,11.85-25.56,24.79-.36,1.77-.52,9.42-.5,11.14v1.48s.15-.2.15-.2c-1.13,4.6-1.74,9.41-1.74,14.35,0,2.42.14,4.81.42,7.15-2.12,2.93-3.77,6.09-4.87,9.35-1.45,4.27-1.97,8.72-1.44,13.08-1.76,1.09-2.91,2.84-3.42,5.22-.19.91-.22,1.77-.15,2.57-1.43.23-2.55.85-3.34,1.85-.54.68-.87,1.5-1,2.37-.81.14-1.56.46-2.19.94-2.23,1.69-2.05,5.2-1.58,6.94.94,3.5,4.84,6.12,9.75,6.47l-2.29-3.54c.63.19,1.3.29,1.97.29,1.35,0,2.58-.42,3.51-1.17.05.15.1.29.16.43-.94.91-1.54,2.1-1.58,3.37-.04,1.27.51,2.59,1.5,3.62.34.35.71.65,1.12.91-1.43-.19-2.86-.38-4.29-.56.57.86,2.07,2.88,4.8,3.83,1.09.38,2.08.49,2.84.5h0c1.04,0,2.03-.21,2.94-.63,2.52-1.16,3.89-3.05,3.76-5.17-.04-.64-.22-1.26-.52-1.83.43-.56.74-1.2.87-1.89.2-1.04.02-2.08-.53-3.1.41-.32.8-.71,1.17-1.16.5.3,1.01.58,1.52.85,7.01,3.64,15.68,4.86,24.48,3.17,3.02-.58,6.05-1.49,9.03-2.78,6.27-2.69,11.54-6.64,15.52-11.29,1.41-1.65,2.88-3.26,4.44-4.77,1.03-.99,2.03-2.03,2.98-3.09.23-.31.44-.62.64-.94.3.85.55,1.74.29,2.39-.09.23-.17.31-.69.68-.7.5-1.76,1.25-2.45,2.85-.86,2.02-.96,5.09.84,7.08.79.87,1.68,1.23,2.32,1.43-.65.2-1.5.57-2.24,1.44-1.34,1.58-1.88,4.45-.24,6.68.26.36.57.68.91.96-.15.28-1.12,2.21-.25,4.41.95,2.39,3.27,3.07,3.53,3.14-.81.35-1.62.7-2.43,1.05.75.58,2.3,1.63,4.49,1.92.72.1,4.52.61,7.08-2.11,1.39-1.47,2.47-3.95,1.89-6.1,0,0,0,0,0,0,.33.15,1.43.63,2.94.63,3.77,0,6.36-2.95,6.91-3.6-.93-.25-1.85-.5-2.78-.75.08-.07.21-.18.35-.33.28-.29,1.57-1.63,1.5-3.62-.04-1.27-.64-2.46-1.58-3.37.06-.14.12-.28.16-.42,1.41,1.14,3.06,1.16,3.51,1.17.48,0,.89-.05,1.18-.1-.23.35-.5.71-.82,1.08-.54.65-1.09,1.17-1.59,1.59,5.35.17,9.69-2.39,10.65-5.8.8-2.82-.7-6.27-1.58-6.94m-15.78-4.11s0,0,0-.01c0,0,.01,0,.02,0,0,0,0,0-.01.01m-71.19-25.36c.05.58.56,1.3,1.38,1.93,1.22.94,2.87,1.5,4.41,1.5.44,0,.79-.05,1.01-.09,2.57-.4,5.76-1.85,7.46-2.67l-.23.42c-.56,1.01-2.71,4.38-6.72,5.09-.49.09-1,.13-1.52.13-2.18,0-4.43-.77-6.16-2.1-1.49-1.15-2.37-2.56-2.49-3.97-.14-1.72.88-2.9,1.86-3.86.16-.16.33-.32.5-.49.54-.52,1.15-1.11,1.74-1.82.02-.03.04-.05.06-.08-3.61.22-8.01.72-8.07.73l-1.68.19,1.33-1.05c.56-.44,1.15-.82,1.74-1.14-.16-.67-.22-1.19-.23-1.39-.07-1.13-.06-2.23.03-3.3.52-6.28,3.48-11.02,6.88-11.02.18,0,.36.01.53.04,3.11.43,5.31,4.68,5.39,10.36l.07.02-.07.31h0s-.03.16-.03.16c-.09.41-.19.81-.3,1.2,0,.02-.01.05-.02.07-.33,1.17-.74,2.28-1.24,3.31,0,0,0,0,0,0l-.15.32h0c-.13.26-.27.52-.41.77l-.05.35h-.16c-.42.7-.88,1.37-1.4,1.99-.69.84-1.36,1.49-1.96,2.06-.17.17-.33.32-.48.47-.89.89-1.04,1.23-1.01,1.58m-3.2-27.45c1.54-2.01,4.82-5.25,6.49-4.18.3.19,1.08.86,1.04,3.58-1.07.43-2.35,1.07-3.71,2.03-1.79,1.26-3.11,2.64-4.03,3.76-.78-.12-1.56-.24-2.33-.36.42-1.25,1.18-3.05,2.54-4.84M157.94,1.85l-2.18,3.82c-1.56-.89-3.14-1.71-4.7-2.46l3.88-7.16-2.53-1.37-3.97,7.33c-1.94-.85-3.79-1.57-5.45-2.18l1.86-3.27-2.5-1.43-2.13,3.73c-1.02-.34-1.9-.61-2.6-.82.95-1.45,2.33-3.9,3.42-7.28,1.91,1.43,4.29,2.33,6.83,2.55.4.03.81.05,1.21.05,2.69,0,5.35-.78,7.67-2.21.06.2.13.4.21.6,1.48,3.99,5.07,7.5,9.62,9.4.07.03.14.05.21.08-1.23,2.27-2.69,5.41-3.93,9.3-1.44-1.21-3.01-2.34-4.63-3.38l2.21-3.88-2.5-1.43Zm-21.51-22.79c-1.01,3.01.29,5.55.53,5.99-1.38-.29-2.56-.82-3.54-1.6-2.52-2-4.03-5.91-3.95-10.2.09-4.52,1.96-8.56,5-10.8,1.98-1.46,4.51-2.23,7.29-2.23,1.75,0,3.55.31,5.29.91-.64.67-1.7,1.96-2.33,3.9-.78,2.42-.45,4.49-.24,5.42.52-.98,1.03-1.96,1.55-2.94.31-.68,1.55-3.18,3.9-5.12l.1.05.13-.25c1.11-.87,2.46-1.61,4.07-1.97.75-.17,1.52-.26,2.29-.26,4.69,0,9.2,3.01,11.76,7.68-.41.1-1.02.29-1.66.71-1.23.81-1.75,1.91-1.96,2.37-.64,1.4-.57,2.69-.5,3.28,1.97-1.93,5.4-4.56,10.08-4.58.05,0,.37,0,.71.02,6,.32,11.5,4.59,13.38,10.39,2.33,7.18-1.38,15.57-8.28,18.68-2.62,1.18-4.93,1.27-6.04,1.27-6.45.01-12.78-4.16-14.38-9.03-.73-2.23-.62-4.6-.62-4.6.09-1.45.42-2.78.78-3.84.4-1.12.8-2.24,1.21-3.35-.74.29-2.28,1.03-3.45,2.68-1.09,1.53-1.31,3.07-1.41,3.9-.13,1.04-.07,1.92.01,2.54-2.08,1.57-4.53,2.41-7.09,2.41-.32,0-.64-.01-.96-.04-2.82-.24-5.35-1.52-6.94-3.52-2.6-3.26-2.66-8.3-.16-12.26l.26-.41c-.38.13-3.66,1.29-4.83,4.79m-35.94,38.34c2.36-11.68,13.84-19.9,23.51-22.59,2.93-.81,5.88-1.21,9.02-1.21,1.38,0,2.58.08,3.7.16-1.32,2.7-2.56,4.13-2.58,4.15l-1.59,1.77,2.3.59c.18.05,18.26,4.77,27.74,13.91l1.75,1.69.64-2.34c.48-1.76,1.02-3.38,1.59-4.86.05.06.09.12.14.18,2.43,3.14,4.34,6.68,5.68,10.53.97,4.6,1.59,9.34,1.84,14.1.2,3.79.12,6.71-.03,8.73-.14-.19-.29-.37-.44-.53-.3-.66-.74-1.21-1.39-1.45-.24-.09-.44-.11-.6-.12-.12-.01-.23-.02-.35-.02-3.4,0-6.52,5.18-7.25,12.06-.01.13-.03.26-.04.39-.76-1.65-1.34-3.55-1.7-5.59-.08-.45-.16-.93-.22-1.44-.06-.51-.11-1.03-.14-1.61,0-.26-.01-.52-.02-.74,0-.09,0-.17,0-.24v-.06c-.4-9.21-3.62-17.77-9.07-24.1l-.03-.04c-5.97-7.2-15.5-11.33-26.14-11.33-5.77,0-11.49,1.2-16.99,3.56-2.75,1.18-3.93,1.91-6.15,3.43l-.1.07-.06.1c-.44.83-1.07,1.77-1.73,2.77-.56.85-1.14,1.72-1.63,2.57.07-.83.19-1.65.36-2.46m-10.95,75.79c-1.35,1.24-4.46.98-6.1-1.56-.16.28-.68,1.26-.45,2.52.32,1.71,1.75,2.5,1.95,2.61-.46-.15-3.74-1.3-4.61-4.34-.12-.43-.9-3.13.73-4.37.94-.71,2.37-.7,3.68-.06-.78-1.26-.8-2.74-.06-3.68.72-.91,1.91-.99,2.32-1.02,1.44-.1,2.49.65,2.78.87-.31-.46-1.69-2.6-1.13-5.26.11-.5.41-1.95,1.53-3.05.36,1.58.85,3.13,1.51,4.66.3.7.63,1.37.98,2.03.06.15.13.28.21.39.36.66.75,1.3,1.17,1.92-.16.76-.16,1.56.05,2.34-.26.44-.63.83-1.12,1.09-1.18.63-2.74.35-3.75-.74,1.68,1.94,1.53,4.54.34,5.64m7.98.76c.3.06,1.34.31,2.07,1.28.21.27.8,1.07.62,2.02-.19.98-1.14,1.77-2.36,1.97,1.12.48,1.91,1.38,1.97,2.36.11,1.7-2.03,2.69-2.37,2.84-2.4,1.11-4.92-.34-5.27-.55.17.07,1.46.54,2.71-.19.93-.54,1.26-1.41,1.35-1.66-2.5.34-4.36-1.48-4.32-3.01.04-1.36,1.61-2.87,3.75-2.86-1.24-.05-2.27-.88-2.52-1.98-.27-1.2.49-2.37,1.34-2.79,1.05-.51,1.85.31,2.76-.3.46-.31.77-.86.86-1.42.96.89,1.97,1.71,3.05,2.47-1.37,1.5-3.22,1.76-3.66,1.81m36.7-26.11c-.05-.43-.3-2.31-1.62-3.97-.35,3.11-1.33,6.11-2.89,8.72-1.28,2.14-4.66,7.84-10.83,8.8-.59.09-1.19.14-1.78.14-5.29,0-9.42-3.62-11.41-5.37-2.64-2.31-4.76-5.32-6.13-8.68l-.3-.73.79.07c.18.02.37.03.56.05,1.31-.08,2.6-.29,3.85-.65,1.28-.36,1.92-.55,2.5-.92l.19-.12c.38-.25.95-.64,1.8-.95l.06-.02c.16-.06.46-.18.81-.24.35-.07.73-.1,1.13-.1,1.88,0,3.72.74,4.49,1.09,1.07-.98,2.25-1.63,3.5-1.91.45-.1.87-.15,1.31-.15.68,0,1.29.11,2,.25.52.1,1.1.21,1.8.28.64.07,1.21.1,1.85.1.3,0,.62,0,.96-.02,1.11-.04,2.23-.17,3.32-.39.4-.14.81-.29,1.21-.44-1.47-1.09-2.91-1.15-3.31-1.16,1.3-1.47,3.16-1.94,4.56-1.19,1.96,1.06,3.08,4.56,1.6,7.5m-1.76-22.68c-1.28-.02-2.57-.03-3.85-.03-2.85,0-5.73.05-8.57.15.74-.46,1.8-1.06,3.07-1.61h0c-.14-.6-.2-1.02-.21-1.14v-.08c-.11-1.33-.09-2.69.05-4.05.83-7.75,5.45-13.6,10.75-13.6.26,0,.51.01.77.04,2.88.31,5.32,2.26,6.88,5.5,1.37,2.86,1.91,6.48,1.52,10.18-.1.97-.27,1.94-.5,2.88-.03.26-.08.51-.13.76l-.05.24c1.12.49,2,.95,2.55,1.25-4.07-.27-8.19-.44-12.27-.5m9.78-18.27c-1.19-1.29-2.9-2.88-5.21-4.32-1.76-1.1-3.42-1.83-4.8-2.33-.05-3.12.95-3.89,1.34-4.12,2.16-1.23,6.4,2.49,8.4,4.8,1.77,2.05,2.74,4.11,3.29,5.56l-3.02.41Zm28.97,78.04c-2.1,2.37-5.56,1.98-6.04,1.92.22,0,1.86-.11,2.88-1.51.76-1.04.71-2.15.69-2.47-2.57,1.57-5.49.46-6.17-1.23-.6-1.51.39-3.91,2.74-4.94-1.38.54-2.91.12-3.7-.96-.87-1.19-.6-2.84.14-3.7.91-1.07,2.18-.55,2.88-1.65.48-.75.45-1.86,0-2.61-.71-1.18-2.02-.69-3.02-1.78-1.03-1.13-.99-3.16-.41-4.53.83-1.94,2.41-1.73,3.16-3.57.65-1.62.04-3.29-.41-4.53-1.16-3.18-2.86-3.14-3.43-5.35-.68-2.63.79-6.32,3.7-7.68.07-.03.39-.18.88-.32l.76,1.29c1.31,3.07,3.24,3.73,3.24,3.73,1.03.11,2.05-.36,2.99-1.27,1.34,3.86.41,9.13.35,9.45-.6,3.23-2.06,5.84-2.88,7.13-.79,1.24-1.58,2.21-2.2,2.88.43.24,1.11.71,1.65,1.51,1.18,1.78.69,3.79.55,4.39-.64,2.64-2.81,3.97-3.29,4.25.36-.08,1.62-.3,2.88.41.36.2,1.39.79,1.65,1.92.26,1.16-.4,2.49-1.65,3.29,1.46-.01,2.76.6,3.29,1.65.93,1.81-.94,3.92-1.23,4.25m-.27-12.86s.02.04.02.06c-.01,0-.02-.02-.04-.03,0,0,.01-.02.02-.03m7.53,5.43c1.25.73,2.54.26,2.71.19-.35.21-2.86,1.66-5.27.55-.34-.16-2.47-1.14-2.37-2.84.06-.98.85-1.88,1.97-2.36-1.22-.2-2.17-.99-2.36-1.97-.18-.95.41-1.75.62-2.02.73-.97,1.77-1.22,2.07-1.28-.45-.05-2.47-.34-3.84-2.03-.19-.82-.51-1.59-.98-2.3-.06-.09-.13-.18-.2-.27-.01-.11-.02-.22-.02-.33.28-.38.55-.77.8-1.17.83-1.32,1.86-3.22,2.6-5.53.5.12,1.01.29,1.54.79.9.85,1.61,2.39,1.2,3.61-.39,1.17-1.56,1.23-1.71,2.38-.1.72.26,1.59.87,2,.91.6,1.71-.22,2.76.3.85.42,1.62,1.59,1.35,2.79-.25,1.09-1.28,1.92-2.52,1.98,2.15,0,3.71,1.51,3.75,2.86.05,1.53-1.82,3.36-4.32,3.01.09.25.42,1.12,1.35,1.66m14.57-11.26c-.87,3.05-4.15,4.19-4.61,4.34.19-.1,1.63-.9,1.95-2.61.23-1.26-.29-2.25-.45-2.52-1.64,2.53-4.75,2.79-6.1,1.56-1.2-1.1-1.35-3.7.34-5.64-1.02,1.08-2.58,1.37-3.76.74-.49-.26-.86-.65-1.12-1.09.26-.98.19-1.98-.1-2.9.53-.82,1.49-1.06,1.62-2.14.11-.88-.4-1.87-1.13-2.35-1.15-.76-2.12.26-3.49-.3-.46-.19-.86-.51-1.19-.91.3-2.36.61-7.23-1.25-10.83,1.18-2.08,2.08-4.93,2.42-8.14.17-1.56.19-3.06.08-4.45,2.73,2.94,4.11,7.84,4.19,8.15.85,3.17.67,6.15.49,7.68-.17,1.46-.47,2.67-.73,3.55.49.03,1.31.16,2.14.65,1.83,1.09,2.26,3.12,2.39,3.72.57,2.66-.81,4.8-1.13,5.26.29-.22,1.33-.97,2.78-.87.41.03,1.6.11,2.32,1.02.74.94.72,2.42-.06,3.68,1.31-.64,2.74-.65,3.68.06,1.62,1.23.85,3.94.73,4.37"/>
            </g>
          </g>
        </g>
        <path class="cls-10" d="m154.11-69.53c33.58,0,65.15,13.08,88.89,36.82,23.74,23.74,36.82,55.31,36.82,88.89s-13.08,65.15-36.82,88.89c-23.74,23.74-55.31,36.82-88.89,36.82s-65.15-13.08-88.89-36.82c-23.74-23.74-36.82-55.31-36.82-88.89S41.48-8.97,65.22-32.71c23.74-23.74,55.31-36.82,88.89-36.82m0-31.6C67.23-101.14-3.21-30.7-3.21,56.18s70.43,157.32,157.32,157.32,157.32-70.43,157.32-157.32S241-101.14,154.11-101.14h0Z"/>
        <path class="cls-10" d="m154.11-115.58c45.88,0,89.01,17.87,121.45,50.31,32.44,32.44,50.31,75.57,50.31,121.45s-17.87,89.01-50.31,121.45c-32.44,32.44-75.57,50.31-121.45,50.31s-89.01-17.87-121.45-50.31C.22,145.19-17.65,102.06-17.65,56.18S.22-32.83,32.66-65.27c32.44-32.44,75.57-50.31,121.45-50.31m0-43.18c-118.71,0-214.94,96.23-214.94,214.94s96.23,214.94,214.94,214.94,214.94-96.23,214.94-214.94-96.23-214.94-214.94-214.94h0Z"/>
      </g>
    </g>
  </g>
  <g>
    <polygon class="cls-9" points="34.8 79.75 34.7 79.61 34.16 79.58 33.12 79.81 32.95 79.64 31.87 79.81 31.74 79.69 31.17 79.64 31 79.75 25.68 79.75 25.68 88.54 35.14 92.3 35.51 97.3 29.62 97.3 29.45 96.09 29.55 95.87 29.55 93.31 29.75 93.17 29.52 92.89 29.52 91.57 27.33 91.57 25.92 91.63 25.78 91.8 25.78 97.81 26.02 99.58 26.25 100.17 35.98 100.17 36.32 100.11 38.84 100.22 38.98 99.27 38.71 98.9 38.71 98.23 39.18 96.37 39.08 96.32 39.04 96.01 38.81 95.9 39.01 95.08 38.81 91.07 38.98 90.98 38.98 90.79 37.46 90.23 37.46 90 29.69 86.63 29.25 86.35 29.25 85.76 29.35 85.51 29.21 85.39 29.21 84.72 29.35 84.41 29.15 84.13 29.15 83.04 32.85 83.04 34.43 82.95 35.04 83.01 35.04 86.77 35.34 87.67 38.74 87.92 38.74 83.09 38.5 82.73 38.64 82.53 38.64 81.74 38.24 81.27 38.44 81.18 38.3 79.95 37.53 79.75 37.36 79.58 34.8 79.75"/>
    <path class="cls-9" d="m48.99,86.6v-1.99l2.32,8.82h-3.94l1.62-6.82Zm.64-6.65h-3.23l-.17,1.63-.64,1.83-.4,1.91-.17.06-2.46,15.11h3.13l.77-3.73h5.55l1.11,3.88h2.83l-1.11-5.78-1.85-8.28-.88-3.23-.71-2.08-.2-.14.03-.62-.24-.62-1.38.08Z"/>
    <polygon class="cls-9" points="59.34 79.78 59.47 80.4 59.64 83.43 59.64 100.45 73.2 100.45 73.2 97.05 69.17 97.05 69 96.91 68.8 96.88 68.73 97.13 63.75 97.3 63.71 97.13 63.48 96.99 63.64 96.35 63.78 94.58 63.78 89.19 63.51 88.93 63.51 82.19 62.97 82.17 62.97 81.24 63.17 79.78 59.34 79.78"/>
    <polygon class="cls-9" points="76.58 79.67 76.58 100.22 88.77 100.22 88.77 88.15 82.21 88.15 82.21 91.88 85 91.88 85 97.13 84.8 97.22 84.26 97.22 84.02 97.1 83.28 97.47 83.01 97.1 81.13 97.1 80.56 96.99 80.25 96.29 80.25 83.51 80.69 82.78 85 82.78 85 85.59 88.57 85.59 89.07 80.59 89.07 79.67 76.58 79.67"/>
    <path class="cls-9" d="m98.85,84.95h.4l1.58,8.45-2.69.14-.71.11.3-.9.54-.98v-.17h-.3l.88-6.65Zm-2.73-3.96l-.34.53v.81l-.24.23v1.18l-.34.87-1.48,6.54-1.28,8.85,3.33.25.13-.98.54-1.83.37-.81.34.37,2.49-.08.84.06,1.08-.22-.17.42.61.81-.17.14v.22l.27.14-.07,1.07.71.62.44-.06,1.78.22h.74l.13-.11-.13-1.52-.2-1.8-.13-.31.17-.22v-.14l-.34-.53-.07-.98-.2-1.01-.67-2.11.1-.22-.44-1.35-.44-2.16-.3-.34-.71-2.89-.24.03.07-.62-.4-.56v-1.15l-.17-.11-.34-.56-.27-.73-.13-1.07-4.68-.17-.2,1.29Z"/>
    <path class="cls-9" d="m116.2,91.21l-.17-1.97.1-.17v-4.61l-.4-1.4h3.26v5.48l.2,1.68-.2.11.24.81.07.03-.1.25v.42l.5,1.69-.2.51.24,2.61v.28l-.07.28h-3.47v-6.01Zm2.42-11.65h-9.02l.1.81.13.2-.27.25.1.56v1.04l-.1.42h2.46l-.2.67-.13,1.52-.27,1.24.3.79v5.56l.3.25-.54.45v.42l.44.22-.2.59v.9l.1.28-.07.48.07.76-.17.23-2.22-.14v.17l-.2.17.07,1.38.2,1.6.1.28h11.61l1.38-.73,1.25-1.26v-.95l-.17-.22.1-1.07.17-.76-.2-.25.07-.56v-4.04l.24-.11v-.17l-.34-.73v-1.6l.24-.7-.2-.25.2-.11-.2-1.54-.3-4.07-2.36-2.13-2.46.2Z"/>
    <path class="cls-9" d="m131.29,97.19l.17-1.29v-.62l-.3-.31.3-.14-.1-2.58-.37-1.85.57-.39-.5-.25.24-.11.07-.11-.2-.2v-3.68l-.2-.56.2-.25v-.14l-.17-.06.13-.22-.13-1.69h5.42l-.1.84v2.89l-.24.31.27.08v5.98l.24.39.1,1.6v.48l-.2.11.07.34v1.43h-2.19l-2.96.17-.1-.17Zm-3.87-17.69l.27,4.04-.2.2.24.11v.2l-.24.51.2.17v.59l-.2.9v8.62l.5,5.5h.27l.17-.14.1.08,2.19.17h2.73l.1-.17,1.62.14h1.58v-.14l.4.14h1.51l.27.08.17-.14.17.23h.2l.17-.25.27.22.2.03-.13-1.6.17-.79-.2-.06.3-.22-.3-.45-.1-.31.27-.11-.17-.11.13-.22.1-1.21-.03-.48.2-.11-.24-.11v-1.99l.13-.31-.2-.11.07-.25-.1-.34.13-.17-.1-.28v-.67l.1-.25-.1-.34.2-.14-.4-.65.3-.2v-.42l-.2-.31.13-1.52-.27-.14.13-1.32-.2-.14.27-.65.03-.34-.34-.39v-4.13l-.57-.25h-11.71Z"/>
    <polygon class="cls-9" points="152.85 79.58 143.73 79.58 143.73 83.77 143.96 86.1 143.96 87.14 144.2 87.67 144.43 87.67 147.6 89.58 153.49 92.67 153.49 96.35 153.69 97.33 150.09 97.33 149.99 97.22 149.75 97.39 147.83 97.39 147.6 97.22 147.6 91.46 145.34 91.46 144.23 91.35 144.1 91.46 144.1 99.13 143.93 99.66 143.93 99.97 144.13 100.25 157.26 100.25 157.26 94.8 157.23 94.69 157.23 90.76 154.67 89.49 147.56 85.62 147.36 83.74 147.36 82.31 151.1 82.31 151.37 82.05 151.94 82.05 152.95 82.22 153.39 82.45 153.39 86.49 153.59 86.66 154.6 86.57 156.55 86.66 156.82 86.57 156.82 79.47 152.85 79.58"/>
  </g>
  <text class="cls-11" transform="translate(14.16 111.42)"><tspan x="0" y="0">ta</tspan><tspan class="cls-15" x="15.27" y="0">m</tspan><tspan x="31.17" y="0">an</tspan><tspan class="cls-1" x="56.19" y="0">h</tspan><tspan x="65.53" y="0">o Nor</tspan><tspan class="cls-16" x="115.02" y="0">m</tspan><tspan class="cls-14" x="130.92" y="0">al</tspan></text>
  <g class="cls-3">
    <g>
      <path class="cls-13" d="m-41.68,38.84c50.74,0,92.01,41.28,92.01,92.01S9.06,222.86-41.68,222.86s-92.01-41.28-92.01-92.01S-92.42,38.84-41.68,38.84m0-23.13c-63.59,0-115.14,51.55-115.14,115.14s51.55,115.14,115.14,115.14,115.14-51.55,115.14-115.14S21.91,15.7-41.68,15.7h0Z"/>
      <path class="cls-13" d="m-41.68,5.13C-8.1,5.13,23.47,18.21,47.21,41.96c23.74,23.74,36.82,55.31,36.82,88.89s-13.08,65.15-36.82,88.89c-23.74,23.74-55.31,36.82-88.89,36.82s-65.15-13.08-88.89-36.82c-23.74-23.74-36.82-55.31-36.82-88.89s13.08-65.15,36.82-88.89C-106.83,18.21-75.26,5.13-41.68,5.13m0-31.6c-86.88,0-157.32,70.43-157.32,157.32s70.43,157.32,157.32,157.32S115.64,217.73,115.64,130.85,45.2-26.47-41.68-26.47h0Z"/>
      <path class="cls-13" d="m-41.68-40.91c45.88,0,89.01,17.87,121.45,50.31,32.44,32.44,50.31,75.57,50.31,121.45s-17.87,89.01-50.31,121.45c-32.44,32.44-75.57,50.31-121.45,50.31s-89.01-17.87-121.45-50.31c-32.44-32.44-50.31-75.57-50.31-121.45s17.87-89.01,50.31-121.45c32.44-32.44,75.57-50.31,121.45-50.31m0-43.18c-118.71,0-214.94,96.23-214.94,214.94s96.23,214.94,214.94,214.94,214.94-96.23,214.94-214.94S77.03-84.09-41.68-84.09h0Z"/>
    </g>
  </g>
</svg>