<?xml version="1.0" encoding="UTF-8"?>
<svg id="Camada_1" data-name="Camada 1" xmlns="http://www.w3.org/2000/svg" xmlns:xlink="http://www.w3.org/1999/xlink" viewBox="0 0 450 750">
  <defs>
    <style>
      .cls-1 {
        fill: url(#Gradiente_sem_nome_9);
      }

      .cls-2 {
        clip-path: url(#clippath-4);
      }

      .cls-2, .cls-3, .cls-4, .cls-5, .cls-6, .cls-7, .cls-8, .cls-9, .cls-10, .cls-11, .cls-12, .cls-13, .cls-14, .cls-15, .cls-16, .cls-17, .cls-18, .cls-19, .cls-20, .cls-21, .cls-22, .cls-23, .cls-24, .cls-25, .cls-26, .cls-27, .cls-28, .cls-29, .cls-30, .cls-31, .cls-32, .cls-33, .cls-34, .cls-35, .cls-36, .cls-37, .cls-38, .cls-39, .cls-40, .cls-41, .cls-42 {
        fill: none;
      }

      .cls-43 {
        fill: #262626;
      }

      .cls-3 {
        clip-path: url(#clippath-2);
      }

      .cls-44 {
        fill: #fff;
      }

      .cls-4 {
        clip-path: url(#clippath-6);
      }

      .cls-5 {
        clip-path: url(#clippath-9);
      }

      .cls-45 {
        fill: #c9741f;
      }

      .cls-46 {
        fill: #dbdbdb;
      }

      .cls-47 {
        fill: #f9e0cf;
      }

      .cls-6 {
        clip-path: url(#clippath-12);
      }

      .cls-7 {
        clip-path: url(#clippath-32);
      }

      .cls-8 {
        clip-path: url(#clippath-13);
      }

      .cls-48 {
        fill: #e8e3df;
      }

      .cls-9 {
        clip-path: url(#clippath-36);
      }

      .cls-49 {
        fill: #633809;
      }

      .cls-10 {
        clip-path: url(#clippath-21);
      }

      .cls-11 {
        clip-path: url(#clippath-28);
      }

      .cls-12 {
        clip-path: url(#clippath-7);
      }

      .cls-13 {
        clip-path: url(#clippath-18);
      }

      .cls-50 {
        fill: #c6c1be;
      }

      .cls-14 {
        clip-path: url(#clippath-27);
      }

      .cls-15 {
        clip-path: url(#clippath-37);
      }

      .cls-51 {
        fill: #d48122;
      }

      .cls-16 {
        clip-path: url(#clippath-10);
      }

      .cls-52 {
        fill: #a30036;
      }

      .cls-17 {
        clip-path: url(#clippath-34);
      }

      .cls-53 {
        fill: #472704;
      }

      .cls-18 {
        clip-path: url(#clippath-35);
      }

      .cls-19 {
        clip-path: url(#clippath-22);
      }

      .cls-20 {
        clip-path: url(#clippath-5);
      }

      .cls-21 {
        clip-path: url(#clippath-24);
      }

      .cls-22 {
        clip-path: url(#clippath-26);
      }

      .cls-54 {
        fill: #822f06;
      }

      .cls-55 {
        fill: #d4003e;
      }

      .cls-23 {
        clip-path: url(#clippath-31);
      }

      .cls-24 {
        clip-path: url(#clippath-16);
      }

      .cls-25 {
        clip-path: url(#clippath-15);
      }

      .cls-26 {
        clip-path: url(#clippath-3);
      }

      .cls-27 {
        clip-path: url(#clippath-11);
      }

      .cls-28 {
        clip-path: url(#clippath-29);
      }

      .cls-29 {
        clip-path: url(#clippath-33);
      }

      .cls-30 {
        clip-path: url(#clippath-19);
      }

      .cls-32 {
        clip-path: url(#clippath-20);
      }

      .cls-33 {
        clip-path: url(#clippath-23);
      }

      .cls-34 {
        clip-path: url(#clippath-17);
      }

      .cls-56 {
        fill: #fbebce;
      }

      .cls-35 {
        clip-path: url(#clippath-38);
      }

      .cls-36 {
        clip-path: url(#clippath);
      }

      .cls-57 {
        fill: #e2af8d;
      }

      .cls-58 {
        fill: #973905;
      }

      .cls-59 {
        fill: #f2c4a5;
      }

      .cls-60 {
        fill: #593204;
      }

      .cls-37 {
        clip-path: url(#clippath-1);
      }

      .cls-38 {
        clip-path: url(#clippath-8);
      }

      .cls-39 {
        clip-path: url(#clippath-25);
      }

      .cls-40 {
        clip-path: url(#clippath-14);
      }

      .cls-41 {
        clip-path: url(#clippath-39);
      }

      .cls-42 {
        clip-path: url(#clippath-30);
      }
    </style>
    <clipPath id="clippath">
      <rect class="cls-31" x="414.15" y="482.12" width="16.97" height="13"/>
    </clipPath>
    <clipPath id="clippath-1">
      <rect class="cls-31" x="414.15" y="482.12" width="16.97" height="13"/>
    </clipPath>
    <clipPath id="clippath-2">
      <rect class="cls-31" x="415.58" y="103.07" width="14.1" height="9.52"/>
    </clipPath>
    <clipPath id="clippath-3">
      <rect class="cls-31" x="415.58" y="103.07" width="14.1" height="9.52"/>
    </clipPath>
    <clipPath id="clippath-4">
      <rect class="cls-31" x="413.73" y="639.46" width="17.82" height="8.92"/>
    </clipPath>
    <clipPath id="clippath-5">
      <rect class="cls-31" x="413.73" y="639.46" width="17.82" height="8.92"/>
    </clipPath>
    <clipPath id="clippath-6">
      <rect class="cls-31" x="414.15" y="178.68" width="16.97" height="8.71"/>
    </clipPath>
    <clipPath id="clippath-7">
      <rect class="cls-31" x="414.15" y="178.68" width="16.97" height="8.71"/>
    </clipPath>
    <clipPath id="clippath-8">
      <rect class="cls-31" x="414.15" y="407.33" width="16.97" height="8.71"/>
    </clipPath>
    <clipPath id="clippath-9">
      <rect class="cls-31" x="414.15" y="407.33" width="16.97" height="8.71"/>
    </clipPath>
    <clipPath id="clippath-10">
      <rect class="cls-31" x="413.71" y="22.56" width="17.85" height="14.42"/>
    </clipPath>
    <clipPath id="clippath-11">
      <rect class="cls-31" x="413.71" y="22.56" width="17.85" height="14.42"/>
    </clipPath>
    <clipPath id="clippath-12">
      <rect class="cls-31" x="414.6" y="714.46" width="16.07" height="12.98"/>
    </clipPath>
    <clipPath id="clippath-13">
      <rect class="cls-31" x="414.6" y="714.46" width="16.07" height="12.98"/>
    </clipPath>
    <clipPath id="clippath-14">
      <rect class="cls-31" x="415.08" y="253.47" width="15.11" height="11.37"/>
    </clipPath>
    <clipPath id="clippath-15">
      <rect class="cls-31" x="415.08" y="253.47" width="15.11" height="11.37"/>
    </clipPath>
    <clipPath id="clippath-16">
      <rect class="cls-31" x="415.11" y="330.93" width="15.04" height="10.31"/>
    </clipPath>
    <clipPath id="clippath-17">
      <rect class="cls-31" x="415.11" y="330.93" width="15.04" height="10.31"/>
    </clipPath>
    <clipPath id="clippath-18">
      <rect class="cls-31" x="414.54" y="561.21" width="16.19" height="12.16"/>
    </clipPath>
    <clipPath id="clippath-19">
      <rect class="cls-31" x="414.54" y="561.21" width="16.19" height="12.16"/>
    </clipPath>
    <clipPath id="clippath-20">
      <rect class="cls-31" x="22.15" y="482.12" width="16.97" height="13"/>
    </clipPath>
    <clipPath id="clippath-21">
      <rect class="cls-31" x="22.15" y="482.12" width="16.97" height="13"/>
    </clipPath>
    <clipPath id="clippath-22">
      <rect class="cls-31" x="23.58" y="103.07" width="14.1" height="9.52"/>
    </clipPath>
    <clipPath id="clippath-23">
      <rect class="cls-31" x="23.58" y="103.07" width="14.1" height="9.52"/>
    </clipPath>
    <clipPath id="clippath-24">
      <rect class="cls-31" x="21.73" y="639.46" width="17.82" height="8.92"/>
    </clipPath>
    <clipPath id="clippath-25">
      <rect class="cls-31" x="21.73" y="639.46" width="17.82" height="8.92"/>
    </clipPath>
    <clipPath id="clippath-26">
      <rect class="cls-31" x="22.15" y="178.68" width="16.97" height="8.71"/>
    </clipPath>
    <clipPath id="clippath-27">
      <rect class="cls-31" x="22.15" y="178.68" width="16.97" height="8.71"/>
    </clipPath>
    <clipPath id="clippath-28">
      <rect class="cls-31" x="22.15" y="407.33" width="16.97" height="8.71"/>
    </clipPath>
    <clipPath id="clippath-29">
      <rect class="cls-31" x="22.15" y="407.33" width="16.97" height="8.71"/>
    </clipPath>
    <clipPath id="clippath-30">
      <rect class="cls-31" x="21.71" y="22.56" width="17.85" height="14.42"/>
    </clipPath>
    <clipPath id="clippath-31">
      <rect class="cls-31" x="21.71" y="22.56" width="17.85" height="14.42"/>
    </clipPath>
    <clipPath id="clippath-32">
      <rect class="cls-31" x="22.6" y="714.46" width="16.07" height="12.98"/>
    </clipPath>
    <clipPath id="clippath-33">
      <rect class="cls-31" x="22.6" y="714.46" width="16.07" height="12.98"/>
    </clipPath>
    <clipPath id="clippath-34">
      <rect class="cls-31" x="23.08" y="253.47" width="15.11" height="11.37"/>
    </clipPath>
    <clipPath id="clippath-35">
      <rect class="cls-31" x="23.08" y="253.47" width="15.11" height="11.37"/>
    </clipPath>
    <clipPath id="clippath-36">
      <rect class="cls-31" x="23.11" y="330.93" width="15.04" height="10.31"/>
    </clipPath>
    <clipPath id="clippath-37">
      <rect class="cls-31" x="23.11" y="330.93" width="15.04" height="10.31"/>
    </clipPath>
    <clipPath id="clippath-38">
      <rect class="cls-31" x="22.54" y="561.21" width="16.19" height="12.16"/>
    </clipPath>
    <clipPath id="clippath-39">
      <rect class="cls-31" x="22.54" y="561.21" width="16.19" height="12.16"/>
    </clipPath>
    <linearGradient id="Gradiente_sem_nome_9" data-name="Gradiente sem nome 9" x1="225" y1="750" x2="225" y2="373.18" gradientUnits="userSpaceOnUse">
      <stop offset=".09" stop-color="#973905"/>
      <stop offset="1" stop-color="#973905" stop-opacity="0"/>
    </linearGradient>
  </defs>
  <rect class="cls-56" width="450" height="750"/>
  <g>
    <circle class="cls-58" cx="225" cy="137.9" r="78.91"/>
    <circle class="cls-51" cx="225" cy="137.9" r="62.76"/>
    <g>
      <path class="cls-53" d="m165.22,190.44c-.89.69-1.87,1.32-2.53,2.24-.83,1.16-1.07,2.68-.84,4.09s.87,2.72,1.67,3.9c.52.78,1.14,1.53,1.97,1.96s1.92.47,2.65-.13.83-1.88.07-2.43c1.82.28,3.87.5,5.3-.66.44-.36.85-.86,1.42-.89.56-.03,1.06.45,1.21,1s.03,1.13-.14,1.67c-.45,1.41-1.27,2.86-.86,4.29.19.65.61,1.2.97,1.78s.65,1.25.54,1.92-.79,1.27-1.44,1.07c1.58.69,3.21,1.39,4.94,1.49s3.6-.55,4.51-2.02c1.12-1.8.48-4.13.71-6.24.24-2.18,1.45-4.37.73-6.44-.43-1.25-1.48-2.15-2.45-3.05-3.21-2.98-5.92-6.49-8-10.34-.57-1.06-1.39-4.46-3.13-3.58-.79.4-.9,1.5-1.2,2.25-.4,1-.88,1.96-1.43,2.87-1.22,2.01-2.8,3.81-4.66,5.24Z"/>
      <path class="cls-53" d="m189.66,107.73c7.44-12.89,22.8-18.33,37.33-19.37.08-.18.17-.35.25-.53-10.5-.49-21.46,1.15-30.23,6.95-3.97,2.63-7.36,6.18-9.77,10.29-1.83,3.12-4.24,8.14-3.71,11.9.27,1.88,1.31,1.51,2.66.33,1.53-1.35,2.77-3.05,4.33-4.4,3.81-3.28,8.29-5.78,13.09-7.31-4.82-.54-9.39-.34-13.95,2.15Z"/>
      <path class="cls-53" d="m260.87,137.27c-4.19,2.51-4.39,7.36-4.55,11.89.33-.8.63-1.62.94-2.42.83-2.12,1.93-4.29,3.88-5.46,1.95-1.17,4.96-.8,5.91,1.27.06-1.83.11-3.68.14-5.53,0-.15,0-.3,0-.45-2.06-.72-4.36-.53-6.32.7Z"/>
      <path class="cls-53" d="m261.2,106.43c-.54-.89-1.17-1.8-2.09-2.29-.92-.49-2.23-.42-2.85.42-.28.38-.39.86-.51,1.34,2.76,5.03,5.38,10.18,7.19,15.51,1.14.45,2.31.62,3.49.58-.8-5.51-2.35-10.8-5.24-15.57Z"/>
      <path class="cls-53" d="m266.44,122c-1.18.04-2.35-.14-3.49-.59,1.62,4.77,2.59,9.68,2.41,14.78.62.05,1.24.17,1.84.38.06-4.89-.06-9.81-.75-14.58Z"/>
      <path class="cls-53" d="m235.02,106.68c-10-4.76-22.14-4.79-33.33-1.27.63.04,1.27.1,1.91.17,3.31-1.06,6.76-1.66,10.24-1.71,11.8-.19,23.52,5.77,30.32,15.4,6.79,9.63,8.5,21.84,10.02,33.53.95-1.05,1.58-2.32,2.12-3.64,0-.04,0-.08,0-.12-1.18-16.63-5.53-35.41-21.3-42.36Z"/>
      <path class="cls-60" d="m262.95,121.41c-.09-.03-.18-.07-.26-.1.09.04.17.07.26.1-1.81-5.33-4.44-10.48-7.19-15.51-.13.54-.26,1.08-.65,1.45-.94.89-2.46.17-3.53-.55-.51-.34-1.02-.67-1.53-1,3.03,5.13,5.4,10.39,10.31,14.07-4.91-3.68-7.28-8.94-10.31-14.06-7.96-5.13-16.65-9.11-25.74-11.79.9-1.88,1.79-3.77,2.69-5.65-14.52,1.04-29.89,6.48-37.33,19.37,3.96-2.16,7.91-2.6,12.04-2.32,11.19-3.53,23.33-3.49,33.33,1.27,15.77,6.96,20.12,25.74,21.3,42.36.17-4.5.4-9.28,4.55-11.77,1.39-.87,2.95-1.21,4.48-1.08.18-5.1-.79-10.01-2.41-14.78Z"/>
      <path class="cls-49" d="m198.42,101.34c2.73-1.38,14.83-7.1,29.7-2.86,16.05,4.59,23.36,17.39,24.68,19.79-2.27-3.32-9.42-12.85-22.86-17.51-15.11-5.23-28.02-.77-31.51.57Z"/>
      <path class="cls-49" d="m201.82,98.01c2.73-1.38,14.83-7.1,29.7-2.86,16.05,4.59,23.36,17.39,24.68,19.79-2.27-3.32-9.42-12.85-22.86-17.51-15.11-5.23-28.02-.77-31.51.57Z"/>
      <path class="cls-53" d="m196.81,103.02c14.25-6.51,31.95-4.39,44.22,5.39,4.11,3.18,7.66,7.06,10.41,11.43-3.09-4.13-6.79-7.75-10.91-10.77-12.39-9.29-29.24-11.32-43.72-6.05h0Z"/>
      <path class="cls-53" d="m200.46,99.37c14.25-6.51,31.95-4.39,44.22,5.39,4.11,3.18,7.66,7.06,10.41,11.43-3.09-4.13-6.79-7.75-10.91-10.77-12.39-9.29-29.24-11.32-43.72-6.05h0Z"/>
      <path class="cls-53" d="m204.11,95.72c14.25-6.51,31.95-4.39,44.22,5.39,4.11,3.18,7.66,7.06,10.41,11.43-3.09-4.13-6.79-7.75-10.91-10.77-12.39-9.29-29.24-11.32-43.72-6.05h0Z"/>
      <path class="cls-43" d="m182.86,182.09c-.35.4-.76.72-1.23.91-1.51.61-2.57-.5-3.84.33-.8.53-1.36,1.62-1.24,2.58.18,1.42,1.68,1.51,2.07,3,.32,1.21-.19,2.97-1.62,3.73-1.3.69-3.01.38-4.13-.81,1.85,2.14,1.69,4.99.37,6.2-1.48,1.36-4.9,1.07-6.7-1.71-.18.3-.75,1.38-.49,2.77.35,1.87,1.93,2.75,2.14,2.86-.5-.17-4.11-1.42-5.07-4.77-.14-.47-.99-3.44.8-4.8,1.03-.78,2.6-.77,4.04-.07-.85-1.39-.88-3.02-.07-4.04.79-1,2.09-1.09,2.54-1.12,1.59-.11,2.73.71,3.05.96-.35-.51-1.86-2.85-1.24-5.78.14-.66.61-2.89,2.63-4.09.91-.54,1.8-.68,2.35-.71-.21-.69-.43-1.57-.62-2.61-.16-.05-.32-.1-.48-.14-.77.14-1.48.25-2.16.34.03.19.06.38.1.57-.18.09-.36.19-.54.29-1.99,1.19-3.29,3.14-3.86,5.81-.21,1-.25,1.95-.17,2.82-1.57.25-2.81.93-3.67,2.03-.59.75-.96,1.65-1.1,2.61-.89.16-1.71.51-2.41,1.04-2.45,1.86-2.25,5.71-1.74,7.63,1.03,3.84,5.32,6.72,10.71,7.11l-2.52-3.88c.7.21,1.42.32,2.16.32,1.59,0,3.05-.53,4.09-1.48,1.22-1.12,1.84-2.76,1.85-4.49.48-.11.93-.29,1.36-.51,2.68-1.43,3.51-4.54,2.93-6.73-.32-1.21-.99-1.98-1.53-2.48.28.04.61.07.97.07.71,0,1.36-.13,2.01-.39.74-.3,1.37-.75,1.91-1.29-.57-.67-1.13-1.36-1.68-2.06Z"/>
      <path class="cls-43" d="m192.06,190.58c-.84-.45-1.65-.95-2.42-1.51-.02.01-.04.03-.06.04-1.12.76-2.14,1.27-2.91,1.62.27.36.68,1,.83,1.88.34,1.93-.81,3.44-1.15,3.9-1.51,1.99-3.82,2.31-4.33,2.37.33.07,1.48.34,2.27,1.41.23.3.88,1.18.68,2.22-.21,1.08-1.25,1.95-2.6,2.17,1.23.53,2.1,1.52,2.17,2.6.12,1.87-2.23,2.95-2.6,3.12-2.64,1.22-5.41-.38-5.79-.6.19.07,1.6.59,2.98-.21,1.02-.59,1.39-1.55,1.49-1.83-2.75.38-4.79-1.63-4.74-3.31.05-1.49,1.76-3.15,4.12-3.15-1.36-.06-2.49-.97-2.76-2.17-.3-1.32.54-2.61,1.48-3.07,1.15-.56,2.03.34,3.03-.33.68-.45,1.06-1.4.96-2.19-.17-1.25-1.45-1.32-1.88-2.61-.45-1.33.33-3.02,1.32-3.96,1.26-1.19,2.4-.71,3.55-1.5-.62-.67-1.22-1.36-1.8-2.08-.07.02-.14.03-.24.05-.82.17-2.06.43-3.32,1.61-1.56,1.47-2.85,4.2-2.01,6.72.21.61.5,1.1.81,1.48-.55.05-1.07.2-1.57.44-1.86.91-3.5,3.32-2.89,6.02.07.33.18.65.31.95-1.04,1-1.69,2.31-1.74,3.7-.04,1.4.56,2.85,1.65,3.97.37.38.79.72,1.23,1-1.57-.21-3.14-.41-4.71-.62.62.94,2.28,3.16,5.27,4.21,1.19.42,2.28.54,3.12.55h0c1.14,0,2.23-.23,3.23-.7,2.77-1.28,4.27-3.35,4.13-5.68-.04-.7-.24-1.39-.57-2.01.48-.61.81-1.32.96-2.08.22-1.14.03-2.28-.58-3.4.52-.41,1.02-.9,1.47-1.5,1.81-2.38,1.9-4.55,1.65-5.95-.01-.07-.03-.14-.04-.21.34-.2.67-.41,1-.63.31-.21.65-.46,1-.72Z"/>
      <path class="cls-53" d="m223.59,98.53c10.1,3.66,19.7,8.71,28.43,14.96,1.16.83,2.32,1.69,3.66,2.18s2.9.58,4.13-.13c2.38-1.36,2.42-4.97.96-7.3-1.62-2.58-4.44-4.1-7.13-5.51-7.12-3.73-14.5-7.53-22.52-8.13-2.69-.2-6.96-.88-9.54.14-3.09,1.23.25,3.16,2,3.79Z"/>
      <path class="cls-43" d="m253.33,156.65c-1.45-2.46-2.54-5.53-3.13-8.86-.1-.55-.19-1.14-.27-1.77-.08-.62-.13-1.26-.17-1.96v-.13c0-.24-.01-.48-.03-.72v-.06s-.01-.34-.01-.34c-.41-9.39-3.68-18.1-9.22-24.53l-.18-.21v-.02c-5.98-7.07-15.5-11.13-26.15-11.13-5.91,0-11.77,1.23-17.42,3.65-2.48,1.07-4.88,2.35-7.12,3.83-1.08,2.07-2.06,4.24-2.91,6.46l-.02.06-5.06,7.09v-1.62c-.03-1.89.15-10.3.54-12.24,2.88-14.22,16.18-23.93,28.09-27.24,3.5-.97,7.02-1.45,10.75-1.45,1.85,0,3.41.11,4.86.23.55.04,1.18.11,1.86.19l1.17.14-.89.78c-.58.51-.82.97-.88,1.65l-.05.53-.53-.05c-.37-.04-.68-.06-.94-.09-1.38-.11-2.87-.22-4.61-.22-3.45,0-6.69.44-9.91,1.33-10.62,2.95-23.23,11.98-25.83,24.81-.18.89-.39,3.06-.47,3.97.54-.93,1.64-1.97,2.26-2.91.72-1.1,1.97-2.1,2.46-3.01l1.45-1.64,1.06-.94c2.44-1.66.45-1.3,3.47-2.59,6.05-2.59,12.33-3.91,18.67-3.91,11.69,0,22.16,4.54,28.72,12.45l.03.04c5.99,6.96,9.52,16.36,9.96,26.48v.07c0,.08.01.17.01.26.02.25.02.53.03.82.03.64.08,1.21.15,1.77.07.57.15,1.09.24,1.59.4,2.24,1.04,4.33,1.87,6.15.01-.14.03-.28.04-.43.81-7.55,4.23-13.25,7.97-13.25.13,0,.26,0,.38.02.18.02.4.04.66.14,1.12.42,1.67,1.65,1.95,2.9.2-2.22.34-5.69.09-10.32-.28-5.22-.95-10.43-2.02-15.49-1.47-4.23-3.57-8.13-6.24-11.57-.44-.57-.93-1.16-1.53-1.84l-.35-.39.39-.35c.08-.07.13-.13.18-.19l.03-.05c.11-.13.16-.22.2-.31v-.03s.03-.03.03-.03c.21-.36.35-.72.43-1.13l.21-1,.69.76c.77.85,1.52,1.73,2.21,2.63,2.89,3.73,5.16,7.94,6.74,12.51l.05.16.03.16c1.1,5.22,1.8,10.61,2.09,16,.03.54.71,13.31-1.37,15.5l-.78.82-1.16.02c-1.66,0-2.59-1.1-2.78-3.25-.13-1.42-.29-2.11-.4-2.44-1.42.45-3.94,4.31-4.59,10.37-.08.72-.12,1.42-.14,2.08l-.19,9.28-4.72-8Z"/>
      <g>
        <path class="cls-31" d="m275.04,198.08l1.9-1.59c.24-.21.48-.42.71-.64-1.56-.29-2.65-.96-3.35-1.57.04.12.09.24.14.36.45,1.1.61,2.26.6,3.44Z"/>
        <path class="cls-53" d="m285.36,186.65c-.28-.21-.66-.32-1.11-.32-.5,0-1.03.13-1.56.39l-4.09,2,2.39-3.88c.56-.9.62-1.95.15-2.54-.43-.54-1.28-.6-1.6-.62-.07,0-.13,0-.2,0-.95,0-1.68.49-1.95.69l-1.89-1.78c-.42.19-.91.3-1.41.36-.23.27-.47.48-.69.67-.39.34-.59.52-.67.83-.16.62.09,1.77.97,2.23.25.14.55.21.86.21.62,0,1.23-.28,1.68-.76l1.96,1.77c-1.41,1.63-1.23,3.67-.48,4.36.3.28.83.44,1.41.44,1.29,0,2.52-.71,3.29-1.9l1.17-1.8,1.08,1.86c.24.41.56,1.11.69,1.99.13-.26.24-.53.33-.83.36-1.25.46-2.79-.33-3.39Z"/>
        <path class="cls-60" d="m275.49,180.58c.47-.69,1.51-2.54,1.04-4.76-.12-.58-.49-2.32-2.01-3.23-.52-.31-1.11-.49-1.76-.53l-1.65-.11.47-1.58c.36-1.2.61-2.44.76-3.68.19-1.58.37-4.7-.5-7.94-.65-2.43-2.89-8.22-6.22-9.9-.35.26-.67.58-.94.92-.72.93-1.15,2.05-1.55,3.15-2.61,7.26-4.53,14.76-5.76,22.38-.39,2.42-.71,4.87-.84,7.31,2.55-1.72,5.13-3.37,7.96-4.45-.39-.4-.75-.86-1.06-1.36l-.65-1.03.97-.73c.2-.15.35-.28.47-.41.38-.42.68-.86.9-1.36l1.26-2.77,1.16,2.81c.34.82.85,1.42,1.4,1.64.16.07.32.1.51.1.21,0,.45-.04.7-.08.31-.05.65-.11,1.03-.11.67,0,1.26.18,1.82.54,1.25.82,2,2.4,1.82,3.85-.09.74-.4,1.27-.75,1.67.5-.07.99-.18,1.41-.36h0Z"/>
        <path class="cls-53" d="m256.96,190.82c.7,3.93,2.31,7.78,4.98,10.78.89,1,1.99,2.43,3.27,2.94,1.8.72,4.39.33,6.3.38.73.02,1.54.02,2.11-.44.58-.47.75-1.26.88-2,.22-1.24.44-2.51.51-3.77l-.73-.02.75-.63c0-1.18-.15-2.35-.6-3.44-.05-.12-.1-.24-.14-.36-.05-.04-.1-.08-.14-.12-1.23-1.13-2-2.7-2.22-4.48-.25-.1-.49-.21-.72-.33-1.01-.54-1.84-1.29-2.49-2.23l-.36-.53.2-.61c.48-1.52.28-3.26-.52-4.53l-.37-.59s.28-.65.29-.66c-.34-.08-.67-.18-1-.32-.91-.37-1.74-.95-2.45-1.69-2.83,1.08-5.41,2.73-7.96,4.45-.15,2.75-.06,5.49.42,8.2Z"/>
        <path class="cls-43" d="m274.29,198.71l.73.02c.01-.22.02-.43.02-.65l-.75.63Z"/>
        <path class="cls-53" d="m274.29,194.28s-.01-.04-.02-.07c0,.01-.01.02-.02.03.01.01.02.02.04.03Z"/>
        <path class="cls-53" d="m287.2,185.96c-1.83-4.33-7.53-6.27-8.82-10.8-.4-1.41-.35-3.02-1.25-4.17-.47-.6-1.15-1-1.62-1.6-1.03-1.31-.8-3.17-.69-4.83.29-4.51-.73-9.1-2.92-13.07-.91-1.66-2.33-3.38-4.23-3.36-.74,0-1.44.29-2.04.74,3.33,1.68,5.57,7.47,6.22,9.9.87,3.24.69,6.36.5,7.94-.15,1.24-.4,2.47-.76,3.68l-.47,1.58,1.65.11c.65.04,1.24.22,1.76.53,1.52.91,1.89,2.65,2.01,3.23.47,2.22-.57,4.07-1.04,4.76l1.9,1.78c.27-.21,1-.69,1.95-.69.07,0,.13,0,.2,0,.32.02,1.17.08,1.6.62.47.59.4,1.63-.15,2.54l-2.39,3.88,4.09-2c.52-.26,1.06-.39,1.56-.39.45,0,.83.11,1.11.32.79.6.68,2.14.33,3.39-.08.29-.2.57-.33.83-.12-.88-.45-1.58-.69-1.99l-1.08-1.86-1.17,1.8c-.77,1.19-2,1.9-3.29,1.9-.58,0-1.11-.16-1.41-.44-.75-.69-.94-2.73.48-4.36l-1.96-1.77c-.45.48-1.06.76-1.68.76-.31,0-.61-.07-.86-.21-.88-.47-1.13-1.62-.97-2.23.08-.32.28-.49.67-.83.54-.47,1.28-1.11,1.44-2.34.18-1.44-.57-3.02-1.82-3.85-.55-.36-1.15-.54-1.82-.54-.38,0-.73.06-1.03.11-.25.04-.49.08-.7.08-.19,0-.35-.03-.51-.1-.55-.22-1.06-.82-1.4-1.64l-1.16-2.81-1.26,2.77c-.23.49-.52.94-.9,1.36-.12.13-.27.26-.47.41l-.97.73.65,1.03c.49.78,1.08,1.44,1.74,1.98,1.49-1.3,3.28-.78,4.66.14,2.88,1.44-.36,5.07.63,8.1.91.2,1.67.53,2,.87,1.07,1.43,2.14,3.34,2.06,5.09.34-.24.84-.32,1.28-.35,1.05-.06,2.12-.12,3.13.15,1.01.28,1.98.95,2.32,1.94.1.29.15.62.38.82.31.28.8.2,1.2.06,1.88-.63,3.47-2.08,4.29-3.89.81-1.81.84-3.96.07-5.78Z"/>
        <path class="cls-53" d="m272.48,187.91c-.33-.33-1.09-.67-2-.87.1.3.23.59.42.87-.46,0-.98.02-1.5.03.52.56,1.13,1.03,1.81,1.4.23.12.47.24.72.33.22,1.78.98,3.35,2.22,4.48.03.03.07.06.1.09,0-.01.01-.02.02-.03-.09-.25-.14-.51-.07-.76.06-.19.18-.34.34-.45.08-1.74-.99-3.66-2.06-5.09Z"/>
        <path class="cls-53" d="m269.84,178.94c-1.39-.92-3.17-1.44-4.66-.14.55.44,1.14.81,1.77,1.06.32.13.66.24,1,.32,0,0-.29.66-.29.66l.37.59c.8,1.28,1,3.01.52,4.53l-.2.61.36.53c.21.3.44.57.68.83.52,0,1.03-.03,1.5-.03-2.11-3.17,2.11-7.39-1.06-8.97Z"/>
      </g>
      <path class="cls-53" d="m268.68,154.22c3.04,5.32,3.37,11.89,1.08,17.29,1.8-5.59.8-11.85-2.42-16.45l1.34-.84h0Z"/>
      <path class="cls-53" d="m268.48,160.32c.93,2.59,1.08,5.36.51,7.89.05-2.6-.66-5.13-1.94-7.21l1.43-.68h0Z"/>
      <path class="cls-53" d="m270.66,173.48c2.21-.69,4.83,1.24,4.81,3.56-.82-2.07-2.59-3.38-4.81-3.56h0Z"/>
      <path class="cls-43" d="m287.75,183.5c-.7-.53-1.51-.88-2.41-1.04-.14-.96-.5-1.86-1.09-2.61-.87-1.1-2.1-1.78-3.67-2.03.08-.87.04-1.82-.17-2.82-.57-2.67-1.86-4.62-3.86-5.81-.18-.11-.36-.2-.54-.29.11-.58.2-1.16.27-1.74.27-2.27.38-5.75-.61-9.43-.36-1.32-3.7-12.93-11.54-13.29-.12,0-.24,0-.36,0-.56,0-1.09.06-1.59.17.28.86.38,1.73.39,2.61.45-.1.93-.16,1.44-.14,6.02.28,8.99,10.86,9.12,11.34.94,3.48.73,6.76.53,8.44-.19,1.61-.52,2.94-.81,3.9.54.04,1.44.17,2.35.71,2.02,1.2,2.49,3.42,2.63,4.09.62,2.92-.9,5.27-1.24,5.78.32-.25,1.46-1.07,3.05-.96.45.03,1.75.12,2.54,1.12.81,1.03.79,2.66-.07,4.04,1.44-.71,3.01-.71,4.04.07,1.78,1.36.93,4.32.8,4.8-.96,3.35-4.56,4.6-5.07,4.77.21-.11,1.79-.99,2.14-2.86.26-1.39-.32-2.47-.49-2.77-1.8,2.78-5.22,3.07-6.7,1.71-1.31-1.21-1.48-4.06.37-6.2-1.12,1.19-2.83,1.5-4.13.81-1.43-.76-1.94-2.53-1.62-3.73.39-1.49,1.9-1.58,2.07-3,.12-.97-.44-2.06-1.24-2.58-1.27-.83-2.33.28-3.84-.33-.96-.39-1.69-1.32-2.12-2.36-.27.6-.64,1.16-1.13,1.7-.2.21-.42.4-.64.57.69,1.09,1.65,2.02,2.9,2.53.64.26,1.31.39,2.01.39.37,0,.69-.03.98-.07-.43.4-.93.96-1.28,1.77,1.03,1.64,1.25,3.78.66,5.63.49.72,1.16,1.36,2.02,1.81.43.23.89.4,1.36.51.01,1.73.63,3.37,1.85,4.49,1.59,1.46,3.58,1.48,4.09,1.48.53,0,.98-.05,1.3-.11-.26.38-.55.78-.9,1.19-.6.71-1.2,1.29-1.75,1.75,5.88.18,10.65-2.62,11.71-6.37.88-3.1-.77-6.89-1.74-7.63Z"/>
      <path class="cls-43" d="m274.8,201.89c.09-.08.23-.2.38-.36.31-.32,1.72-1.79,1.65-3.97-.04-1.4-.7-2.7-1.74-3.7.13-.3.24-.62.31-.95.61-2.69-1.04-5.11-2.89-6.02-.49-.24-1.02-.39-1.57-.44.31-.38.6-.86.81-1.48.85-2.52-.45-5.25-2.01-6.72-1.25-1.18-2.5-1.44-3.32-1.61-.52-.11-.54-.12-.62-.2-.07-.06-.12-.15-.17-.24-.25.88-.61,1.73-1.11,2.56,1.11.66,2.2.27,3.4,1.41.99.94,1.77,2.63,1.32,3.96-.43,1.29-1.72,1.36-1.88,2.61-.1.79.28,1.74.96,2.19,1,.66,1.87-.24,3.03.33.94.46,1.78,1.74,1.48,3.07-.27,1.2-1.4,2.11-2.76,2.17,2.36,0,4.08,1.66,4.12,3.15.05,1.68-2,3.69-4.74,3.31.1.28.47,1.23,1.49,1.83,1.38.8,2.79.28,2.98.21-.38.23-3.14,1.82-5.79.6-.37-.17-2.72-1.26-2.6-3.12.07-1.08.93-2.07,2.17-2.6-1.35-.22-2.39-1.09-2.6-2.17-.2-1.04.45-1.92.68-2.22.8-1.06,1.94-1.34,2.27-1.41-.51-.06-2.82-.38-4.33-2.37-.34-.45-1.49-1.97-1.15-3.9.15-.87.56-1.51.83-1.88-.34-.15-.73-.34-1.15-.57-.08.55-.24,1.09-.5,1.6.06.21.12.42.18.62.44,1.49.76,2.82.91,4.39.08.8-.06,1.57-.36,2.28.2.19.4.37.61.54-.6,1.12-.8,2.26-.58,3.4.15.76.48,1.47.96,2.08-.33.63-.53,1.31-.57,2.02-.14,2.33,1.36,4.4,4.13,5.68.37.17,1.57.7,3.23.7,4.14,0,6.99-3.24,7.59-3.96-1.02-.28-2.03-.55-3.05-.83Z"/>
      <path class="cls-43" d="m264.95,203.08c.29-.92.35-1.89.14-2.83-.31-1.37-1.12-2.51-2.43-3.42.45-.75.83-1.62,1.07-2.61.64-2.65.32-4.97-.97-6.91-.11-.17-.23-.34-.36-.5.35-.47.68-.96.99-1.45,1.22-1.93,2.83-5.02,3.53-8.76.25-1.35,2.27-13.25-4.66-16.98-1.19-.64-2.51-.96-3.94-.96-2.07,0-3.7.68-4.15.89-4.18,1.95-6.65,7.1-5.51,11.49.47,1.82,1.43,2.81,2.19,3.6.66.68,1.17,1.21,1.65,2.52.38,1.05.82,2.24.48,3.08-.1.25-.19.34-.76.74-.77.55-1.94,1.37-2.69,3.13-.94,2.21-1.06,5.59.92,7.78.86.96,1.85,1.35,2.55,1.57-.71.22-1.64.62-2.46,1.58-1.47,1.73-2.07,4.89-.27,7.34.29.39.63.75,1,1.05-.16.31-1.24,2.43-.27,4.85,1.04,2.62,3.59,3.37,3.88,3.45-.89.38-1.78.77-2.67,1.15.82.64,2.53,1.79,4.94,2.11.79.11,4.96.67,7.78-2.32,1.72-1.83,3.03-5.08,1.73-7.62-.4-.78-.99-1.45-1.72-1.97Zm-1.98,7.85c-2.31,2.6-6.11,2.18-6.63,2.11.24-.01,2.04-.12,3.17-1.66.83-1.14.78-2.36.75-2.71-2.83,1.73-6.04.51-6.78-1.36-.66-1.66.42-4.3,3.01-5.43-1.52.59-3.2.13-4.07-1.06-.96-1.31-.66-3.12.15-4.07,1-1.17,2.39-.6,3.17-1.81.53-.82.5-2.04,0-2.86-.78-1.3-2.22-.75-3.32-1.96-1.13-1.24-1.09-3.47-.45-4.97.91-2.13,2.65-1.9,3.47-3.92.72-1.77.05-3.61-.45-4.97-1.28-3.49-3.14-3.45-3.77-5.88-.75-2.89.86-6.95,4.07-8.44.23-.11,3.12-1.4,5.73,0,5.31,2.86,3.41,13.67,3.32,14.17-.66,3.55-2.26,6.41-3.17,7.84-.87,1.37-1.74,2.42-2.41,3.17.47.27,1.22.78,1.81,1.66,1.3,1.95.76,4.16.6,4.82-.7,2.9-3.09,4.36-3.62,4.67.39-.08,1.78-.33,3.17.45.39.22,1.53.87,1.81,2.11.29,1.28-.44,2.73-1.81,3.62,1.61-.01,3.03.66,3.62,1.81,1.02,1.99-1.03,4.3-1.36,4.67Z"/>
      <path class="cls-53" d="m262.97,210.93c-2.31,2.6-6.11,2.18-6.63,2.11.24-.01,2.04-.12,3.17-1.66.83-1.14.78-2.36.75-2.71-2.83,1.73-6.04.51-6.78-1.36-.66-1.66.42-4.3,3.01-5.43-1.52.59-3.2.13-4.07-1.06-.96-1.31-.66-3.12.15-4.07,1-1.17,2.39-.6,3.17-1.81.53-.82.5-2.04,0-2.86-.78-1.3-2.22-.75-3.32-1.96-1.13-1.24-1.09-3.47-.45-4.97.91-2.13,2.65-1.9,3.47-3.92.72-1.77.05-3.61-.45-4.97-1.28-3.49-3.14-3.45-3.77-5.88-.75-2.89.86-6.95,4.07-8.44.23-.11,3.12-1.4,5.73,0,5.31,2.86,3.41,13.67,3.32,14.17-.66,3.55-2.26,6.41-3.17,7.84-.87,1.37-1.74,2.42-2.41,3.17.47.27,1.22.78,1.81,1.66,1.3,1.95.76,4.16.6,4.82-.7,2.9-3.09,4.36-3.62,4.67.39-.08,1.78-.33,3.17.45.39.22,1.53.87,1.81,2.11.29,1.28-.44,2.73-1.81,3.62,1.61-.01,3.03.66,3.62,1.81,1.02,1.99-1.03,4.3-1.36,4.67Z"/>
      <path class="cls-60" d="m257.92,195.28c.51-1.37.39-3.02-.37-4.28-.83-1.38-2.09-1.75-2.83-1.97-.47-.14-.62-.2-.73-.31-.43-.48-.47-1.8-.07-2.73.21-.5.46-.7,1.06-1.12.75-.53,1.78-1.26,2.42-2.84,1.02-2.53.12-5.01-.43-6.49-.82-2.25-1.91-3.37-2.7-4.19-.63-.65-.86-.91-1.01-1.49-.5-1.91.67-4.95,2.92-6,.01,0,.98-.45,2.15-.45.63,0,1.2.13,1.69.4,3.31,1.78,2.71,9.4,2.24,11.92-.59,3.16-2.05,5.8-2.87,7.09-.64,1.01-1.38,1.98-2.19,2.88l-1.78,1.96,2.3,1.3c.46.26.82.59,1.09.99.79,1.18.43,2.67.31,3.16-.22.92-.7,1.64-1.2,2.18Z"/>
      <path class="cls-53" d="m253.42,164.85c3.3,3.07,5.28,7.34,5.53,11.63-.78-4.23-3.22-8.02-6.54-10.41l1.01-1.22h0Z"/>
      <path class="cls-53" d="m255.97,162.33c4.37,4.75,5.76,11.73,3.77,17.54,1.49-5.96-.57-12.5-4.89-16.42l1.12-1.12h0Z"/>
      <path class="cls-43" d="m284.82,72.53c-2.46-7.59-9.68-13.19-17.55-13.6-.32-.02-.64-.02-.95-.02-1.22,0-2.37.13-3.45.34-3.29-6.49-9.51-10.73-16.04-10.73-1.08,0-2.16.12-3.2.36-1.64.37-3.08,1.01-4.33,1.8-2.8-1.23-5.77-1.88-8.67-1.88-3.75,0-7.17,1.06-9.89,3.06-4.2,3.08-6.67,8.32-6.79,14.36-.11,5.68,2.01,10.95,5.53,13.74,2.02,1.61,4.56,2.5,7.55,2.68.08.12.16.23.25.34-1.85,6.72-5,10.35-5.03,10.39l-1.74,1.94,2.53.64c.2.05,20.06,5.24,30.47,15.28l1.92,1.85.7-2.58c1.5-5.49,3.58-9.83,5.06-12.5,1.61.39,3.24.59,4.89.59,2.81,0,5.48-.56,7.94-1.68,9-4.07,13.84-15.01,10.8-24.39Z"/>
      <path class="cls-50" d="m240.84,99.18c.93.44,1.86.91,2.8,1.4.37-3.21.49-6.36,1.39-9.12l-4.18,7.72Z"/>
      <path class="cls-50" d="m231.97,95.48c.64.23,1.31.49,2,.76v-4.27l-2,3.51Z"/>
      <path class="cls-50" d="m250.85,99.82s-.02.02-.03.03l-2.1,3.68c.71.46,1.4.93,2.09,1.41.7-1.48-.41-3.3.05-5.12Z"/>
      <path class="cls-48" d="m247.32,86.61c-.08-.22-.16-.44-.23-.66-2.55,1.57-5.47,2.43-8.43,2.43-.45,0-.89-.02-1.33-.06-2.8-.23-5.41-1.23-7.51-2.8-1.21,3.71-2.72,6.4-3.76,8,.77.23,1.73.53,2.86.9l2.34-4.1,2.75,1.57-.04.08v4.27c1.27.49,2.6,1.03,3.98,1.63l4.36-8.05,2.78,1.51-.08.14c-.9,2.76-1.02,5.92-1.39,9.12.79.42,1.59.85,2.37,1.3l2.39-4.19,2.75,1.57-.33.58s.02-.02.03-.03c-.31,1.23.1,2.46.18,3.59,1.66-2.5,2.82-5.41,3.67-8.14-3.46-2.19-6.12-5.26-7.37-8.66Z"/>
      <path class="cls-50" d="m257.89,96.93c-1.12-.47-2.19-1.03-3.19-1.67-.85,2.73-2.01,5.63-3.67,8.14.04.54,0,1.06-.23,1.54,1.04.73,2.05,1.5,3,2.3,1.36-4.27,2.97-7.73,4.31-10.22-.08-.03-.15-.06-.23-.09Z"/>
      <path class="cls-50" d="m221.33,77.37s.08.07.12.11c1.08.86,2.38,1.44,3.89,1.76-.26-.48-1.69-3.27-.58-6.58.76-2.27,2.33-3.64,3.58-4.42-3.94.59-6.53,5.06-7.01,9.13Z"/>
      <path class="cls-48" d="m277.22,88.74c2.06-1.47,3.63-3.6,4.8-6.03.78-3,.77-6.2-.21-9.2-2.07-6.37-8.11-11.07-14.7-11.42-.38-.02-.72-.02-.78-.02-5.15.02-8.91,2.91-11.08,5.03-.04-.35-.08-.92,0-1.61-.69-2.91.62-6,2.5-8.33-2.87-3.41-6.82-5.49-10.89-5.49-.85,0-1.7.09-2.52.28-1.76.4-3.24,1.21-4.47,2.17l-.14.27-.11-.06c-2.58,2.13-3.95,4.88-4.28,5.62-.57,1.08-1.14,2.15-1.71,3.23-.08-.34-.17-.83-.22-1.42-2.18-3.1-2.13-6.92-.19-9.61-.86-.13-1.72-.2-2.58-.2-3.06,0-5.83.85-8.01,2.45-3.35,2.46-5.4,6.89-5.49,11.86-.09,4.64,1.52,8.87,4.21,11.1.48-4.07,3.07-8.55,7.01-9.13.86-.53,1.56-.79,1.73-.84l-.28.45c-2.75,4.35-2.67,9.89.18,13.46,1.75,2.2,4.53,3.6,7.63,3.86.35.03.71.04,1.06.04,1.57,0,3.09-.29,4.53-.84-1.83-5.09,2.5-8.47,6.4-10.54.87-.69,1.7-1.07,2.2-1.27-.44,1.23-.88,2.46-1.32,3.68-.39,1.17-.75,2.63-.85,4.22,0,0-.06,1.41.22,3.12,7,7.14,18.39,10.67,27.4,5.16Z"/>
      <path class="cls-50" d="m277.22,88.74c-9.01,5.51-20.4,1.98-27.4-5.16.1.62.25,1.28.46,1.93,1.76,5.35,8.71,9.94,15.8,9.92,1.22,0,3.76-.1,6.64-1.4,4.69-2.12,8.04-6.46,9.3-11.32-1.17,2.42-2.73,4.55-4.8,6.03Z"/>
      <path class="cls-50" d="m233.4,61.77c-.11-1.17-.09-2.77.49-4.54.69-2.12,1.85-3.54,2.56-4.28-1.07-.36-2.15-.63-3.24-.8-1.94,2.7-1.98,6.52.19,9.61Z"/>
      <path class="cls-50" d="m255.25,65.5c.07-.59.22-1.28.55-1.99.23-.51.81-1.72,2.15-2.61.7-.46,1.37-.67,1.82-.78-.59-1.07-1.27-2.05-2.03-2.95-1.88,2.33-3.19,5.42-2.5,8.33Z"/>
      <path class="cls-50" d="m248,75.49c.49-.69,1.05-1.24,1.59-1.67-3.89,2.07-8.22,5.46-6.4,10.54,1.15-.44,2.25-1.04,3.26-1.8-.09-.68-.16-1.65-.01-2.79.12-.91.35-2.6,1.55-4.28Z"/>
      <path class="cls-59" d="m267.89,145.65c-.75-2.77-2.07-4.74-3.74-5.28-5.98,6.86-7.12,18.38-3.43,26.74,3.48.3,6.91-5.39,7.71-12.76.35-3.25.12-6.28-.53-8.7Z"/>
      <path class="cls-57" d="m264.15,140.38s-.06-.02-.09-.03c-.17-.05-.35-.08-.53-.11-3.5-.37-6.98,5.34-7.77,12.76-.08.78-.14,1.55-.15,2.31-1.24-2.11-2.25-4.88-2.81-7.99-.1-.54-.18-1.09-.24-1.62-.05.04-.02-.52-.08-.49.01-.64-.07-.67-.08-1.3v-.03c0-.28-.01-.55-.03-.83,0-.09,0-.17-.01-.26v-.05c-.44-10.22-4.08-19.48-9.86-26.19,0-.01-.01-.02-.02-.02-3.63-4.38-8.47-7.67-14.01-9.74,14.77,13.19,24.6,34.65,13.93,52.11-5.8,8.97-10.02,17.94-14.77,26.9-5.44,11.29-17.51,13.96-28.85,16.69,5.66,1.31,11.82,1.45,18.05.26,3.31-.63,6.64-1.64,9.92-3.05,6.89-2.95,12.68-7.29,17.05-12.4,1.55-1.81,3.16-3.58,4.88-5.24,1.13-1.09,2.22-2.23,3.28-3.4.3-.4.57-.82.83-1.25-1.8-2.19-2.74-4.85-2.51-7.99-.13-.46-.19-.95-.13-1.51.29-2.65,2.09-4.38,3.56-6.38.64-.86,1.87-.93,2.51-.26-.04-1.09-.11-1.74-.11-1.74,1.06,6.41,4.54,7.59,4.54,7.59.02,0,.04,0,.06,0-3.69-8.37-2.55-19.88,3.43-26.74Z"/>
      <path class="cls-59" d="m227.64,185.8c4.75-8.97,8.97-17.94,14.77-26.9,10.67-17.45.83-38.92-13.93-52.11-9.71-3.62-21.55-3.46-32.76,1.35-2.9,1.24-4.62,3.46-7.11,5.16-1.27,2.36-3.37,4.08-4.34,6.61-2.83,7.34-4.38,15.32-4.38,23.65,0,2.66.16,5.29.46,7.86-2.33,3.22-4.14,6.69-5.35,10.28-2.51,7.37-2.5,15.22.59,22.41,2.86,6.68,7.98,11.84,14.35,15.15,2.74,1.43,5.72,2.51,8.85,3.23,11.34-2.73,23.41-5.4,28.85-16.69Zm-6.02-72.45c2.37-1.35,7.03,2.74,9.23,5.28,1.94,2.25,3.02,4.52,3.62,6.1l-3.32.45c-1.31-1.42-3.19-3.16-5.73-4.75-1.93-1.21-3.76-2.01-5.28-2.56-.06-3.43,1.05-4.28,1.48-4.52Zm-11.49,30.26c-.16-.65-.22-1.12-.23-1.24v-.09c-.13-1.46-.1-2.96.06-4.45.91-8.52,5.99-14.94,11.81-14.94.28,0,.56.01.84.04,3.16.34,5.85,2.48,7.56,6.04,1.51,3.14,2.1,7.11,1.67,11.18-.11,1.06-.3,2.13-.55,3.16-.04.28-.09.56-.14.83l-.05.27c1.23.54,2.2,1.04,2.8,1.38-4.47-.3-9-.48-13.48-.55-1.4-.02-2.82-.03-4.23-.03-3.13,0-6.3.06-9.42.17.82-.5,1.98-1.16,3.37-1.77h0Zm-21.44-22.67c1.69-2.21,5.3-5.77,7.13-4.59.33.21,1.18.95,1.14,3.94-1.17.48-2.58,1.18-4.08,2.23-1.96,1.38-3.42,2.9-4.43,4.13-.85-.13-1.71-.26-2.56-.39.47-1.38,1.29-3.36,2.8-5.31Zm-4.32,23.41c.62-.49,1.26-.9,1.91-1.25-.17-.74-.24-1.31-.26-1.52-.07-1.24-.06-2.45.04-3.63.57-6.9,3.82-12.11,7.56-12.11.2,0,.39.01.58.04,3.41.47,5.83,5.14,5.92,11.38v.36s0,0,0,0l-.04.17c-.1.45-.21.89-.33,1.32,0,.03-.02.05-.02.07-.36,1.29-.82,2.5-1.36,3.64,0,0,0,0,0,0l-.17.35h0c-.14.29-.29.57-.45.84l-.11.22-.11.16c-.46.77-.97,1.51-1.53,2.19-.76.92-1.5,1.63-2.15,2.26-.19.18-.36.35-.53.51-.98.98-1.15,1.35-1.11,1.74.05.64.62,1.43,1.51,2.12,1.34,1.03,3.15,1.65,4.85,1.65.49,0,.86-.06,1.11-.09,2.82-.44,6.33-2.03,8.19-2.94l-.26.46c-.62,1.11-2.97,4.81-7.39,5.59-.54.1-1.1.14-1.67.14-2.4,0-4.86-.84-6.76-2.31-1.64-1.26-2.61-2.81-2.74-4.37-.15-1.89.97-3.18,2.04-4.24.18-.18.36-.35.55-.54.59-.57,1.27-1.22,1.91-2,.02-.03.04-.06.07-.09-3.97.24-8.8.79-8.86.8l-1.85.21,1.46-1.15Zm37.97,25.82c-.05-.47-.33-2.53-1.78-4.36-.38,3.42-1.47,6.71-3.17,9.58-1.4,2.35-5.12,8.61-11.9,9.67-.65.1-1.3.15-1.96.15-5.81,0-10.35-3.98-12.53-5.9-2.9-2.54-5.23-5.84-6.73-9.54l-.33-.81.87.08c.2.02.41.03.61.05,1.44-.08,2.86-.32,4.23-.71,1.4-.4,2.11-.6,2.74-1.01l.2-.13c.42-.28,1.05-.7,1.97-1.05l.06-.02c.18-.07.5-.2.89-.27.39-.07.81-.11,1.24-.11,2.06,0,4.09.81,4.93,1.2,1.17-1.08,2.47-1.79,3.85-2.1.49-.11.96-.16,1.44-.16.74,0,1.42.13,2.2.27.57.11,1.21.23,1.98.31.7.08,1.33.11,2.03.11.33,0,.68,0,1.05-.02,1.22-.04,2.45-.19,3.65-.43.44-.16.89-.32,1.33-.48-1.62-1.2-3.2-1.26-3.64-1.27.52-.09,2.47-.35,4.27.87,1.88,1.26,2.84,3.63,2.49,6.07Z"/>
      <path class="cls-57" d="m189.51,126.72c1.01-1.23,2.46-2.75,4.43-4.13,1.49-1.05,2.9-1.75,4.08-2.23.04-2.99-.81-3.72-1.14-3.94-1.83-1.18-5.44,2.38-7.13,4.59-1.5,1.96-2.33,3.94-2.8,5.31.85.13,1.71.26,2.56.39Z"/>
      <path class="cls-57" d="m223.33,114.02c-.43.24-1.53,1.09-1.48,4.52,1.52.55,3.34,1.36,5.28,2.56,2.54,1.59,4.42,3.33,5.73,4.75l3.32-.45c-.6-1.58-1.68-3.85-3.62-6.1-2.19-2.54-6.85-6.63-9.23-5.28Z"/>
      <path class="cls-43" d="m208.53,204.88c-5.66,0-11.43-1.09-16.45-3.17-8.47-3.5-14.7-9.67-18.02-17.84-6.73-16.58,2.96-30.33,4.95-32.89-.11-2.96-.57-17.71,1.38-23.4,2.44-7.13,12.58-29.94,40.77-24.06,12.33,2.57,21.35,8.83,26.83,18.6,3.26,5.82,5.12,12.54,5.69,20.54.2,2.86.64,5.18,1.12,7,1.36-7,5.2-10.73,8.73-10.73,4.13,0,6.22,5.19,6.22,15.44,0,9.6-5.42,14.08-9.09,14.08-3.07,0-4.68-4.19-5.31-6.34-.38.08-.75.25-1.1.52-1.37,1.04-2.43,3.44-2.79,6.26-.51,4.07,2.25,7.92,2.28,7.96l.61.84-.67.79c-16.71,19.71-26.4,24.22-39.45,26.02-1.86.26-3.77.38-5.7.38Zm-27.17-52.61c-.17.2-11.55,14.13-4.85,30.61,7.33,18.05,26.93,20.44,37.36,19.01,12.22-1.68,21.39-5.94,37.16-24.37-.95-1.59-2.67-5.1-2.19-8.96.45-3.6,1.84-6.53,3.8-8.03,1.17-.89,2.52-1.26,3.91-1.06l.9.13.2.88c.57,2.51,1.95,5.32,3,5.32,2.25,0,6.45-3.36,6.45-11.44s-1.34-12.8-3.58-12.8c-2.48,0-6.28,4.02-6.59,12.64-.03.75-.55,1.38-1.29,1.53-.73.15-1.47-.21-1.79-.89-.86-1.81-2.37-5.77-2.81-12.01-1.43-20.18-11.95-32.88-30.43-36.74-25.35-5.29-34.84,13.86-37.73,22.34-1.96,5.74-1.23,22.76-1.22,22.93l.02.51-.33.39Z"/>
      <path class="cls-55" d="m188.01,170.54c.2,0,.41,0,.61.01-.08-.02-.16-.04-.24-.07-.12.02-.24.04-.37.06Z"/>
      <path class="cls-47" d="m194.69,149.09c-.45.32-.86.69-.81,1.14.03.29.27.53.55.62s.58.07.86,0c1.24-.31,2.09-1.43,2.83-2.48.45-.63.91-1.27,1.21-1.99s.44-1.53.24-2.28c-.07-.25-.2-.52-.44-.6-.55-.19-1.42,2.39-1.66,2.78-.51.82-1.15,1.56-1.88,2.19-.21.18-.56.38-.9.61Z"/>
      <path class="cls-43" d="m261.57,149.52c-.65,1.07-1.53,2.88-1.64,5.22-.13,2.67.76,5.82,1.76,5.86.46.02,1.12-.62,1.99-3.46-1.04.59-1.62.51-1.93.35-1.92-.94-.31-7.44-.18-7.97Z"/>
      <g>
        <path class="cls-43" d="m188.45,126.66c1.01-1.23,2.46-2.75,4.43-4.13,1.49-1.05,2.9-1.75,4.08-2.23.04-2.99-.81-3.72-1.14-3.94-1.83-1.18-5.44,2.38-7.13,4.59-1.5,1.96-2.33,3.94-2.8,5.31.85.13,1.71.26,2.56.39Z"/>
        <path class="cls-43" d="m220.78,163.71c-.98-.7-2.31-.87-2.4-.88-1.31-.15-2.34.22-2.81.42.44,0,2.02.07,3.64,1.27-.44.17-.88.33-1.33.48-1.2.24-2.42.39-3.65.43-.38.01-.72.02-1.05.02-.7,0-1.33-.04-2.03-.11-.77-.09-1.41-.21-1.98-.31-.78-.15-1.46-.27-2.2-.27-.48,0-.95.05-1.44.16-1.38.31-2.67,1.02-3.85,2.1-.85-.39-2.87-1.2-4.93-1.2-.43,0-.85.04-1.24.11-.39.07-.71.2-.89.27l-.06.02c-.93.34-1.56.77-1.97,1.05l-.2.13c-.63.41-1.34.61-2.74,1.01-1.36.39-2.79.63-4.23.71-.2-.02-.41-.03-.61-.05l-.87-.08.33.81c1.5,3.7,3.83,6.99,6.73,9.54,2.18,1.91,6.73,5.9,12.53,5.9.65,0,1.31-.05,1.96-.15,6.78-1.06,10.5-7.32,11.9-9.67,1.71-2.87,2.79-6.16,3.17-9.58,1.46,1.82,1.73,3.88,1.78,4.36.7-2.71.07-5.31-1.56-6.48Z"/>
        <path class="cls-43" d="m231.08,144.44l.05-.27c.06-.27.1-.55.14-.83.25-1.03.44-2.1.55-3.16.43-4.07-.16-8.04-1.67-11.18-1.71-3.56-4.39-5.71-7.56-6.04-.28-.03-.56-.04-.84-.04-5.83,0-10.9,6.42-11.81,14.94-.16,1.49-.18,2.99-.06,4.45v.09c.02.13.08.59.24,1.24h0c-1.39.62-2.55,1.27-3.37,1.78,3.12-.11,6.29-.17,9.42-.17,1.4,0,2.82.01,4.23.03,4.47.07,9.01.26,13.48.55-.6-.33-1.56-.84-2.8-1.38Z"/>
        <path class="cls-43" d="m221.62,113.36c-.43.24-1.53,1.09-1.48,4.52,1.52.55,3.34,1.36,5.28,2.56,2.54,1.59,4.42,3.33,5.73,4.75l3.32-.45c-.6-1.58-1.68-3.85-3.62-6.1-2.19-2.54-6.85-6.63-9.23-5.28Z"/>
        <path class="cls-43" d="m184.75,145.3c.06,0,4.9-.56,8.86-.8-.02.03-.04.06-.07.09-.64.78-1.31,1.43-1.91,2-.19.19-.38.36-.55.54-1.07,1.06-2.19,2.35-2.04,4.24.13,1.55,1.1,3.1,2.74,4.37,1.9,1.47,4.37,2.31,6.76,2.31.57,0,1.13-.05,1.67-.14,4.41-.78,6.77-4.48,7.39-5.59l.26-.46c-1.86.91-5.37,2.5-8.19,2.94-.25.04-.62.09-1.11.09-1.7,0-3.51-.62-4.85-1.65-.9-.69-1.46-1.48-1.51-2.12-.03-.39.13-.76,1.11-1.74.16-.16.34-.33.53-.51.65-.63,1.39-1.34,2.15-2.26.56-.68,1.07-1.42,1.53-2.19h.17s.05-.38.05-.38c.16-.28.31-.56.45-.84h0s.17-.35.17-.35c0,0,0,0,0,0,.55-1.13,1-2.35,1.36-3.64,0-.03.02-.05.02-.07.12-.43.23-.87.33-1.32l.04-.17h0s.07-.34.07-.34l-.08-.02c-.09-6.24-2.51-10.9-5.92-11.38-.19-.03-.39-.04-.58-.04-3.74,0-7,5.21-7.56,12.11-.1,1.18-.11,2.39-.04,3.63.02.21.09.78.26,1.52-.65.35-1.29.76-1.91,1.25l-1.46,1.15,1.85-.21Z"/>
      </g>
      <g>
        <path class="cls-44" d="m222.27,126.09c-.17-.02-.34-.03-.5-.03-4.13,0-7.94,5.32-8.67,12.11-.14,1.3-.16,2.59-.06,3.86,0,.03.03.23.09.53.88-.24,1.8-.42,2.75-.52.41-.04,1.03-.09,1.75-.12-.04-.16-.05-.28-.06-.32-.07-.78-.06-1.59.04-2.43.55-4.57,3.6-8.03,6.81-7.72,1.88.18,3.38,1.6,4.21,3.67-.22-1.73-.66-3.35-1.33-4.74-1.22-2.54-3.01-4.05-5.04-4.27Z"/>
        <path class="cls-44" d="m222.05,134.82c-.58-.23-1.35.34-1.72,1.26-.37.93-.19,1.87.39,2.1.58.23,1.35-.34,1.72-1.26.37-.93.19-1.87-.39-2.1Z"/>
      </g>
      <g>
        <path class="cls-44" d="m190.53,138.29c.34-3.16,2.23-5.55,4.22-5.35.75.08,1.41.52,1.91,1.2-.59-3.28-1.93-4.99-2.91-5.12-.05,0-.1,0-.15,0-1.52,0-3.94,3.5-4.41,9.2-.09,1.03-.1,2.07-.04,3.09,0,.06.03.27.08.57.59-.18,1.17-.31,1.73-.42-.38-.72-.47-1.37-.48-1.48-.04-.54-.04-1.1.03-1.68Z"/>
        <path class="cls-44" d="m193.71,134.66c-.58-.23-1.35.34-1.72,1.26-.37.93-.19,1.87.39,2.1.58.23,1.35-.34,1.72-1.26.37-.93.19-1.87-.39-2.1Z"/>
      </g>
      <g>
        <path class="cls-44" d="m201.54,176.81c-.8.05-1.61.07-2.42.07-2.04,0-4.07-.16-6.09-.45,1.21,1.07,2.64,2.03,3.97,3.12,1.61.55,3.33.85,5.08.85.65,0,1.3-.04,1.95-.12,2.5-.31,4.81-1.21,6.81-2.55.83-.95,1.52-1.97,1.9-3.14-3.62,1.25-7.36,2.01-11.21,2.23Z"/>
        <path class="cls-46" d="m191.27,176.13c1.65,1.52,3.61,2.69,5.74,3.42-1.34-1.09-2.77-2.05-3.97-3.12-.59-.09-1.18-.18-1.77-.29Z"/>
        <path class="cls-46" d="m214.95,173.76c-.73.3-1.47.57-2.21.82-.38,1.17-1.07,2.19-1.9,3.14,1.59-1.07,2.98-2.41,4.1-3.96Z"/>
        <path class="cls-46" d="m188.01,171.95c.13.25.28.5.44.76.76,1.17,1.68,1.98,2.46,2.53.34.05.71.11,1.09.16-.85-.95-1.48-2.03-1.73-3.36-.75-.02-1.51-.04-2.26-.08Z"/>
        <path class="cls-44" d="m215.09,168.69c-2.64.79-5.32,1.45-8.02,1.96-4.9.93-9.92,1.4-14.92,1.4-.63,0-1.25,0-1.88-.02.25,1.33.88,2.41,1.73,3.36,1.78.24,3.97.44,6.49.43,2.4-.01,4.19-.2,5.55-.35,2.75-.3,5.17-.58,8.13-1.6.47-.16.9-.33,1.3-.49,1.08-1.52,1.77-2.85,1.62-4.69Z"/>
        <path class="cls-46" d="m215.09,168.69c.15,1.84-.54,3.18-1.62,4.69.73-.29,1.35-.57,1.82-.8.64-.73,1.41-1.82,1.94-3.27.18-.5.31-.98.4-1.42-.84.28-1.69.55-2.54.81Z"/>
      </g>
      <path class="cls-52" d="m198.9,167.51c-.85-.09-1.74-.06-2.63.18-1.09.3-1.58.73-2.98,1.36-1.18.53-2.81,1.11-4.92,1.43.08.03.16.05.24.07.56.01,1.13.02,1.72.02.33-.03.64-.07.91-.07,2.7-.77,5.12-2.38,7.66-2.99Z"/>
      <path class="cls-55" d="m211.03,166.79c-2.04-.26-2.85-.72-4.38-.63-2.11.12-3.79,1.18-4.92,2.11-.86-.36-1.82-.65-2.83-.76-2.55.61-4.97,2.22-7.66,2.99-.27,0-.58.04-.91.07,3.48,0,7.39-.19,11.64-.73,4.72-.61,8.93-1.54,12.57-2.55-4.1.06-8.43-1.32-12.22.58,3.79-1.89,8.12-.52,12.22-.58.73-.2,1.44-.41,2.12-.61-2.41.39-4.32.29-5.63.12Z"/>
      <path class="cls-55" d="m213.41,177.58s-.09.09-.13.13c-3.56,3.33-7.78,3.89-9.03,4.04-5.36.65-9.43-1.55-10.76-2.34.13.14.35.37.66.65,6.5,4.56,14.4,3.61,19.26-2.48Z"/>
      <path class="cls-52" d="m213.41,177.58c-4.86,6.1-12.76,7.04-19.26,2.48,1.33,1.23,4.27,3.46,8.49,3.66,3.7.17,6.4-1.31,7.3-1.85,3.78-2.27,5.19-5.75,5.57-6.8-.45.68-1.13,1.58-2.09,2.5Z"/>
    </g>
  </g>
  <g>
    <g>
      <path class="cls-51" d="m298.77,367.67l-.39,1.53v.55l.22.3-.11.79-2.08-.09-.28.05h-8.01l-.19-.49-.19-1.46v-4.95l.11-.14,1.16-.05h1.8v1.09l.19.23-.17.12v2.1l-.08.18.14.99h4.85l-.3-4.11-7.79-3.1v-7.23h4.38l.14-.09.47.05.11.09.89-.14.14.14.86-.18.44.02.08.12,2.11-.14.14.14.64.16.11,1.02-.17.07.33.39v.65l-.11.16.19.3v3.98l-2.8-.21-.25-.74v-3.1l-.5-.05-1.3.07h-3.05v.9l.17.23-.11.25v.55l.11.09-.08.21v.49l.36.23,6.4,2.77v.18l1.25.46v.16l-.14.07.17,3.31-.17.67.19.09.03.25.08.05Z"/>
      <path class="cls-51" d="m296.4,392.69l-.91-3.19h-4.57l-.64,3.07h-2.58l2.02-12.44.14-.05.33-1.57.53-1.5.14-1.34h2.66l1.14-.07.19.51-.03.51.17.12.58,1.71.72,2.66,1.52,6.82.91,4.76h-2.33Zm-1.5-5.92l-1.91-7.26v1.64l-1.33,5.62h3.24Z"/>
      <path class="cls-51" d="m298.92,414.47h-11.17v-14.01l-.14-2.5-.11-.51h3.16l-.17,1.2v.76l.44.02v5.55l.22.21v4.44l-.11,1.46-.14.53.19.12.03.14,4.1-.14.06-.21.17.02.14.12h3.32v2.8Z"/>
      <path class="cls-51" d="m298.35,419.23v.76l-.42,4.11h-2.94v-2.31h-3.55l-.36.6v10.52l.25.58.47.09h1.55l.22.3.61-.3.19.09h.44l.17-.07v-4.32h-2.3v-3.07h5.4v9.94h-10.03v-16.92h10.28Z"/>
      <path class="cls-51" d="m298.73,457.81l-.11.09h-.61l-1.47-.18-.36.05-.58-.51.06-.88-.22-.12v-.18l.14-.12-.5-.67.14-.35-.89.18-.69-.05-2.05.07-.28-.3-.3.67-.44,1.5-.11.81-2.74-.21,1.05-7.28,1.22-5.39.28-.72v-.97l.19-.18v-.67l.28-.44.17-1.06,3.85.14.11.88.22.6.28.46.14.09v.95l.33.46-.06.51.19-.02.58,2.38.25.28.36,1.78.36,1.11-.08.18.55,1.73.17.83.06.81.28.44v.12l-.14.18.11.25.17,1.48.11,1.25Zm-5.43-12.57h-.33l-.72,5.48h.25v.14l-.44.81-.25.74.58-.09,2.22-.12-1.3-6.96Z"/>
      <path class="cls-51" d="m299.31,471.85v.14l-.19.09v3.33l-.06.46.17.21-.14.62-.08.88.14.18v.79l-1.03,1.04-1.14.6h-9.56l-.08-.23-.17-1.32-.06-1.13.17-.14v-.14l1.83.12.14-.18-.06-.62.06-.39-.08-.23v-.74l.17-.49-.36-.18v-.35l.44-.37-.25-.21v-4.58l-.25-.65.22-1.02.11-1.25.17-.55h-2.02l.08-.35v-.86l-.08-.46.22-.21-.11-.16-.08-.67h7.43l2.02-.16,1.94,1.76.25,3.35.17,1.27-.17.09.17.21-.19.58v1.32l.28.6Zm-3.55,5.06l-.19-2.15.17-.42-.42-1.39v-.35l.08-.21-.06-.02-.19-.67.17-.09-.17-1.39v-4.51h-2.69l.33,1.16v3.79l-.08.14.14,1.62v4.95h2.85l.06-.23v-.23Z"/>
      <path class="cls-51" d="m298.37,497.74l.03.39-.08.99-.11.18.14.09-.22.09.08.25.25.37-.25.18.17.05-.14.65.11,1.32-.17-.02-.22-.18-.14.21h-.17l-.14-.18-.14.12-.22-.07h-1.25l-.33-.12v.12h-1.3l-1.33-.12-.08.14h-2.24l-1.8-.14-.08-.07-.14.12h-.22l-.42-4.53v-7.1l.17-.74v-.49l-.17-.14.19-.42v-.16l-.19-.09.17-.16-.22-3.33h9.64l.47.21v3.4l.28.32-.03.28-.22.53.17.12-.11,1.09.22.12-.11,1.25.17.25v.35l-.25.16.33.53-.17.12.08.28-.08.21v.55l.08.23-.11.14.08.28-.06.21.17.09-.11.25v1.64l.19.09-.17.09Zm-2.85-.16l-.08-1.32-.19-.32v-4.92l-.22-.07.19-.25v-2.38l.08-.69h-4.46l.11,1.39-.11.18.14.05v.12l-.17.21.17.46v3.03l.17.16-.06.09-.19.09.42.21-.47.32.3,1.53.08,2.13-.25.12.25.25v.51l-.14,1.06.08.14,2.44-.14h1.8v-1.18l-.06-.28.17-.09v-.39Z"/>
      <path class="cls-51" d="m298.78,519.7v4.48h-10.81l-.17-.23v-.25l.14-.44v-6.31l.11-.09.91.09h1.86v4.74l.19.14h1.58l.19-.14.08.09h2.96l-.17-.81v-3.03l-4.85-2.54-2.6-1.57h-.19l-.19-.44v-.86l-.19-1.92v-3.44h7.51l3.27-.09v5.85l-.22.07-1.61-.07-.83.07-.17-.14v-3.33l-.36-.18-.83-.14h-.47l-.22.21h-3.08v1.18l.17,1.55,5.85,3.19,2.11,1.04v3.24l.03.09Z"/>
    </g>
    <g>
      <path class="cls-58" d="m221.35,266.28l-.55,1.93v12.4l-12.13.8,1.64,8.53.55.34,5.45,21.16-.41,1.36,4.64,18.99h-12.54l-14.59-50.95-1.91.34h-4.36l-2.18-.34h-1.5l1.23,23.77-.82,1.59.82,2.5v1.25l-.41,1.02.82,3.87-1.23.68,1.23,1.48-1.36,4.21v6.94l.41,3.07h-14.45l.41-3.64v-37.99l-1.64-17.63.55-10.35v-12.17l.27-1.71h50.45l1.23,1.36-.41,1.25v15.47l.82.45Zm-15.13-2.73l-.27-2.62h-22.77v5.35l22.77.45.27-3.18Z"/>
      <path class="cls-58" d="m278.19,272.62l-32.99-.04-.55,4.89.41,3.64v9.33l-1.33,16.3h24.68l-.68,8.08.55.45-.27,4.89-8.86-.8h-13.63l-1.09.8-.31-1.06-.68,4.32v7.96l.82.68,5.59.23h26.18l1.13-.69,1.05,11.95-2.86.91h-46.49l1.23-.45v-74.27l1.09-3.98v-5.12h34.09l5.32.68,1.23-.68,2.05.34,3.24-.14,1.11,11.78Z"/>
    </g>
    <g>
      <path class="cls-58" d="m222.44,400.74l-.41.46v17.83l-1.09.35v6.49l.55,3.36h-12l-24.68-50.95v50.61h-13.36l-1.5-7.3.82-.7-2.32-20.73.68-2.32v-49.33l-.68-3.47h10.5l.68-.58,1.64.58,3.14-.58,2.73,9.15,1.91,1.62,4.23,9.38,1.5.69-.68.7,2.32,3.94-.41.69,11.18,23.86,1.09,1.27v-6.02l-2.32-20.15.68-.69v-11l-1.09-.58,1.09-.81v-11.46h14.32v28.14l1.09.93-.82,1.74,1.09,1.39v20.27l.14,3.24Z"/>
      <path class="cls-58" d="m277.93,436.95l-.56.45h-3.06l-7.36-.91-1.81.23-2.92-2.5.2-3.15-1.04-1.74v-.91l.69-.57.1-2.32,1.14-.62h-1.27l-2.21-.23-10.28.34-2.05-.51-.87,1.29-2.22,7.39-.56,3.98-13.75-1.02,5.28-35.83,6.11-26.5,1.39-3.53v-4.78l.97-.91v-3.3l1.39-2.16.83-5.23,9.12.32,3.25,4.57,1.11,2.96,1.39,2.27.69.45v4.66l1.67,2.27-.28,2.5.97-.11,2.92,11.71,1.25,1.36,1.81,8.76,1.81,5.46-.42.91,2.78,8.53.83,4.09.28,3.98,1.39,2.16v.57l-.69.91.56,1.25.83,7.28.56,6.14Zm-23.96-62.99h-1.26l-2.73,28.19h.95v.68l-1.68,3.98-.21,7.07,2.21-.45,8.41-.57-5.68-38.9Z"/>
    </g>
    <g>
      <path class="cls-58" d="m267.15,531.34l-.56.45h-3.06l-7.36-.91-1.81.23-2.92-2.5.2-3.15-1.04-1.74v-.91l.69-.57.1-2.32,1.14-.62h-1.27l-2.21-.23-10.28.34-2.05-.51-.87,1.29-2.22,7.39-.56,3.98-13.75-1.02,5.28-35.83,6.11-26.5,1.39-3.53v-4.78l.97-.91v-3.3l1.39-2.16.83-5.23,9.12.32,3.25,4.57,1.11,2.96,1.39,2.27.69.45v4.66l1.67,2.27-.28,2.5.97-.11,2.92,11.71,1.25,1.36,1.81,8.76,1.81,5.46-.42.91,2.78,8.53.83,4.09.28,3.98,1.39,2.16v.57l-.69.91.56,1.25.83,7.28.56,6.14Zm-23.96-62.99h-1.26l-2.73,28.19h.95v.68l-1.68,3.98-.21,7.07,2.21-.45,8.41-.57-5.68-38.9Z"/>
      <path class="cls-58" d="m220.52,453.23l-1.77,1.46-6.41-1.12h-7.77l-2.45.34v21.75l.55,3.92v27.46l.41,1.68v6.28l.82,1.01-.82.22v1.01l-.68,1.46v2.69l.68,1.68-1.64,1.12h-13.23l-.82-1.01v-68.71h-18.39l.55-2.35v-10.31l-1.09-1.91v-.67l.55-.45,12.68,1.12h12.26l1.64-.22,3.82.45,6.14-.22.95.45.41-.56,1.09-.34,2.05.11,1.64.78h7.5l.68,2.24v9.53l.68,1.12Z"/>
    </g>
  </g>
  <path class="cls-51" d="m189.17,626.65c6.25,4.78,8.68,13.04,14.79,17.9,7,5.57,19.05,12.25,28.15,8.79,3.1-1.18,5.6-3.52,8.01-5.8,3.92-3.71,7.83-7.42,11.53-11.34,1.64-1.74,3.11-3.62,4.7-5.41.95-1.07,2.26-1.68,3.34-2.59.42-.36,1.14-1.05,1.13-1.66-.02-.94-2.1-.46-2.62-.58-1.26-.3-2.4-1.01-3.55-1.57-2.35-1.16-4.55-2.69-7.03-3.59-2.86,3.76-5.4,7.84-8.06,11.77-1.64,2.43-4.87,2.65-7.17,4.18-1.63,1.09-2.43,2.94-3.28,4.63-.15.29-1.84,3.55-1.28,3.69-2.45-.64-4.18-2.25-6.16-3.86-8.8-7.16-17.6-14.56-27.16-20.7l-5.35,2.8s0,3.36,0,3.36Z"/>
  <path class="cls-51" d="m189.17,658.65c6.25,4.78,8.68,13.04,14.79,17.9,7,5.57,19.05,12.25,28.15,8.79,3.1-1.18,5.6-3.52,8.01-5.8,3.92-3.71,7.83-7.42,11.53-11.34,1.64-1.74,3.11-3.62,4.7-5.41.95-1.07,2.26-1.68,3.34-2.59.42-.36,1.14-1.05,1.13-1.66-.02-.94-2.1-.46-2.62-.58-1.26-.3-2.4-1.01-3.55-1.57-2.35-1.16-4.55-2.69-7.03-3.59-2.86,3.76-5.4,7.84-8.06,11.77-1.64,2.43-4.87,2.65-7.17,4.18-1.63,1.09-2.43,2.94-3.28,4.63-.15.29-1.84,3.55-1.28,3.69-2.45-.64-4.18-2.25-6.16-3.86-8.8-7.16-17.6-14.56-27.16-20.7l-5.35,2.8s0,3.36,0,3.36Z"/>
  <g>
    <g id="COXINHA">
      <g class="cls-36">
        <g class="cls-37">
          <path class="cls-45" d="m431.12,487.56c0-1.74-1.41-3.15-3.15-3.15s-3.15,1.41-3.15,3.15,1.41,3.15,3.15,3.15,3.15-1.41,3.15-3.15"/>
          <path class="cls-45" d="m424.81,487.56s.12-2.72,3.15-5.44v5.44h-3.15Z"/>
          <path class="cls-45" d="m431.12,487.56s-.12-2.72-3.15-5.44v5.44h3.15Z"/>
          <path class="cls-45" d="m420.46,487.56c0-1.74-1.41-3.15-3.15-3.15s-3.15,1.41-3.15,3.15,1.41,3.15,3.15,3.15,3.15-1.41,3.15-3.15"/>
          <path class="cls-45" d="m414.15,487.56s.12-2.72,3.15-5.44v5.44h-3.15Z"/>
          <path class="cls-45" d="m420.46,487.56s-.12-2.72-3.15-5.44v5.44h3.15Z"/>
          <path class="cls-51" d="m427.03,490.77c0-2.4-1.95-4.35-4.35-4.35s-4.35,1.95-4.35,4.35,1.95,4.35,4.35,4.35,4.35-1.95,4.35-4.35"/>
          <path class="cls-51" d="m418.33,490.77s.17-3.76,4.35-7.51v7.51h-4.35Z"/>
          <path class="cls-51" d="m427.03,490.77s-.17-3.76-4.35-7.51v7.51h4.35Z"/>
        </g>
      </g>
    </g>
    <g id="RISOLE">
      <g class="cls-3">
        <g class="cls-26">
          <path class="cls-45" d="m421.62,103.93l-5.72,5.72c-.49.49-.39,1.3.2,1.65,2.01,1.18,4.64.91,6.36-.81,1.72-1.73,2-4.35.81-6.36-.35-.59-1.17-.69-1.65-.2"/>
          <path class="cls-51" d="m427,103.42l-6.48,6.48c-.55.55-.44,1.48.23,1.87,2.27,1.34,5.25,1.03,7.2-.92,1.95-1.95,2.26-4.93.92-7.2-.4-.67-1.32-.78-1.87-.23"/>
        </g>
      </g>
    </g>
    <g id="EMPADA">
      <g class="cls-2">
        <g class="cls-20">
          <path class="cls-51" d="m427.61,640.8h-4.58l.41,1.69c.15.63.54,1.11,1.03,1.27.38.12.8.23,1.24.31.58.11,1.11.16,1.6.18.47-.02.99-.07,1.55-.18.44-.08.86-.19,1.24-.31.49-.15.88-.63,1.03-1.27l.41-1.69h-3.94Z"/>
          <path class="cls-45" d="m431.54,640.8c0,.74-1.91,1.34-4.26,1.34s-4.26-.6-4.26-1.34,1.91-1.34,4.26-1.34,4.26.6,4.26,1.34"/>
          <path class="cls-51" d="m418.31,640.8h-4.58l.41,1.69c.15.63.54,1.11,1.03,1.27.38.12.8.23,1.24.31.58.11,1.11.16,1.6.18.47-.02.99-.07,1.55-.18.44-.08.86-.19,1.24-.31.49-.15.88-.63,1.03-1.27l.41-1.69h-3.94Z"/>
          <path class="cls-45" d="m422.24,640.8c0,.74-1.91,1.34-4.26,1.34s-4.26-.6-4.26-1.34,1.91-1.34,4.26-1.34,4.26.6,4.26,1.34"/>
          <path class="cls-51" d="m422.96,644.92h-4.58l.41,1.69c.15.63.54,1.11,1.03,1.27.38.12.8.23,1.24.31.58.11,1.11.16,1.6.18.47-.02.99-.07,1.55-.18.44-.08.86-.19,1.24-.31.49-.15.88-.63,1.03-1.27l.41-1.69h-3.94Z"/>
          <path class="cls-45" d="m426.89,644.92c0,.74-1.91,1.34-4.26,1.34s-4.26-.6-4.26-1.34,1.91-1.34,4.26-1.34,4.26.6,4.26,1.34"/>
        </g>
      </g>
    </g>
    <g id="BOLINHO_OU_BOLIVIANO" data-name="BOLINHO OU BOLIVIANO">
      <g class="cls-4">
        <g class="cls-12">
          <path class="cls-45" d="m431.12,182.03c0-1.74-1.41-3.15-3.15-3.15s-3.15,1.41-3.15,3.15,1.41,3.15,3.15,3.15,3.15-1.41,3.15-3.15"/>
          <path class="cls-45" d="m420.46,182.03c0-1.74-1.41-3.15-3.15-3.15s-3.15,1.41-3.15,3.15,1.41,3.15,3.15,3.15,3.15-1.41,3.15-3.15"/>
          <path class="cls-51" d="m427.03,183.03c0-2.4-1.95-4.35-4.35-4.35s-4.35,1.95-4.35,4.35,1.95,4.35,4.35,4.35,4.35-1.95,4.35-4.35"/>
        </g>
      </g>
    </g>
    <g id="BOLINHO_OU_BOLIVIANO-2" data-name="BOLINHO OU BOLIVIANO">
      <g class="cls-38">
        <g class="cls-5">
          <path class="cls-45" d="m431.12,410.68c0-1.74-1.41-3.15-3.15-3.15s-3.15,1.41-3.15,3.15,1.41,3.15,3.15,3.15,3.15-1.41,3.15-3.15"/>
          <path class="cls-45" d="m420.46,410.68c0-1.74-1.41-3.15-3.15-3.15s-3.15,1.41-3.15,3.15,1.41,3.15,3.15,3.15,3.15-1.41,3.15-3.15"/>
          <path class="cls-51" d="m427.03,411.68c0-2.4-1.95-4.35-4.35-4.35s-4.35,1.95-4.35,4.35,1.95,4.35,4.35,4.35,4.35-1.95,4.35-4.35"/>
        </g>
      </g>
    </g>
    <g id="QUIBE1">
      <g class="cls-16">
        <g class="cls-27">
          <path class="cls-54" d="m423.72,29.14s-2.56,2.76-2.8,7.84c5.08-.24,7.84-2.8,7.84-2.8,0,0,2.56-2.76,2.8-7.84-5.08.24-7.84,2.8-7.84,2.8"/>
          <path class="cls-54" d="m416.51,25.36s-2.56,2.76-2.8,7.84c5.08-.24,7.84-2.8,7.84-2.8,0,0,2.56-2.76,2.8-7.84-5.08.24-7.84,2.8-7.84,2.8"/>
          <path class="cls-58" d="m420.12,27.25s-2.56,2.76-2.8,7.84c5.08-.24,7.84-2.8,7.84-2.8,0,0,2.56-2.76,2.8-7.84-5.08.24-7.84,2.8-7.84,2.8"/>
        </g>
      </g>
    </g>
    <g id="QUIBE2">
      <g class="cls-6">
        <g class="cls-8">
          <path class="cls-51" d="m423.61,720.38s-2.31,2.48-2.52,7.06c4.57-.22,7.06-2.52,7.06-2.52,0,0,2.31-2.48,2.52-7.06-4.57.22-7.06,2.52-7.06,2.52"/>
          <path class="cls-51" d="m417.12,716.99s-2.31,2.48-2.52,7.06c4.57-.22,7.06-2.52,7.06-2.52,0,0,2.31-2.48,2.52-7.06-4.57.22-7.06,2.52-7.06,2.52"/>
          <path class="cls-45" d="m420.37,718.68s-2.31,2.48-2.52,7.06c4.57-.22,7.06-2.52,7.06-2.52,0,0,2.31-2.48,2.52-7.06-4.57.22-7.06,2.52-7.06,2.52"/>
        </g>
      </g>
    </g>
    <g id="RABO_DE_TATU" data-name="RABO DE TATU">
      <g class="cls-40">
        <g class="cls-25">
          <path class="cls-45" d="m415.15,263.78l5.28-10c.18-.34.63-.42.92-.17l4.18,3.74c.29.26.26.73-.07.94l-9.46,6.26c-.51.34-1.14-.23-.85-.77"/>
          <path class="cls-51" d="m419.61,263.96l5.28-10c.18-.34.63-.42.92-.17l4.18,3.74c.29.26.26.73-.07.94l-9.46,6.26c-.51.34-1.14-.23-.85-.77"/>
        </g>
      </g>
    </g>
    <g id="PASTEL">
      <g class="cls-24">
        <g class="cls-34">
          <path class="cls-45" d="m422.86,331.89l-7.75,7.75c2.14,2.14,5.61,2.14,7.75,0,2.14-2.14,2.14-5.61,0-7.75"/>
          <path class="cls-51" d="m428.42,330.93l-8.39,8.39c2.32,2.32,6.07,2.32,8.39,0,2.32-2.32,2.32-6.07,0-8.39"/>
        </g>
      </g>
    </g>
    <g id="ENROLADINHO">
      <g class="cls-13">
        <g class="cls-30">
          <path class="cls-45" d="m415.77,571.14l-.61-.61c-.83-.83-.83-2.18,0-3.01l5.68-5.68c.83-.83,2.18-.83,3.01,0l.61.61c.83.83.83,2.18,0,3.01l-5.68,5.68c-.83.83-2.18.83-3.01,0"/>
          <path class="cls-51" d="m420.06,572.66l-.7-.7c-.95-.95-.95-2.5,0-3.45l6.51-6.51c.95-.95,2.5-.95,3.45,0l.7.7c.95.95.95,2.5,0,3.45l-6.51,6.51c-.95.95-2.5.95-3.45,0"/>
        </g>
      </g>
    </g>
  </g>
  <g>
    <g id="COXINHA-2" data-name="COXINHA">
      <g class="cls-32">
        <g class="cls-10">
          <path class="cls-45" d="m39.12,487.56c0-1.74-1.41-3.15-3.15-3.15s-3.15,1.41-3.15,3.15,1.41,3.15,3.15,3.15,3.15-1.41,3.15-3.15"/>
          <path class="cls-45" d="m32.81,487.56s.12-2.72,3.15-5.44v5.44h-3.15Z"/>
          <path class="cls-45" d="m39.12,487.56s-.12-2.72-3.15-5.44v5.44h3.15Z"/>
          <path class="cls-45" d="m28.46,487.56c0-1.74-1.41-3.15-3.15-3.15s-3.15,1.41-3.15,3.15,1.41,3.15,3.15,3.15,3.15-1.41,3.15-3.15"/>
          <path class="cls-45" d="m22.15,487.56s.12-2.72,3.15-5.44v5.44h-3.15Z"/>
          <path class="cls-45" d="m28.46,487.56s-.12-2.72-3.15-5.44v5.44h3.15Z"/>
          <path class="cls-51" d="m35.03,490.77c0-2.4-1.95-4.35-4.35-4.35s-4.35,1.95-4.35,4.35,1.95,4.35,4.35,4.35,4.35-1.95,4.35-4.35"/>
          <path class="cls-51" d="m26.33,490.77s.17-3.76,4.35-7.51v7.51h-4.35Z"/>
          <path class="cls-51" d="m35.03,490.77s-.17-3.76-4.35-7.51v7.51h4.35Z"/>
        </g>
      </g>
    </g>
    <g id="RISOLE-2" data-name="RISOLE">
      <g class="cls-19">
        <g class="cls-33">
          <path class="cls-45" d="m29.62,103.93l-5.72,5.72c-.49.49-.39,1.3.2,1.65,2.01,1.18,4.64.91,6.36-.81,1.72-1.73,2-4.35.81-6.36-.35-.59-1.17-.69-1.65-.2"/>
          <path class="cls-51" d="m35,103.42l-6.48,6.48c-.55.55-.44,1.48.23,1.87,2.27,1.34,5.25,1.03,7.2-.92,1.95-1.95,2.26-4.93.92-7.2-.4-.67-1.32-.78-1.87-.23"/>
        </g>
      </g>
    </g>
    <g id="EMPADA-2" data-name="EMPADA">
      <g class="cls-21">
        <g class="cls-39">
          <path class="cls-51" d="m35.61,640.8h-4.58l.41,1.69c.15.63.54,1.11,1.03,1.27.38.12.8.23,1.24.31.58.11,1.11.16,1.6.18.47-.02.99-.07,1.55-.18.44-.08.86-.19,1.24-.31.49-.15.88-.63,1.03-1.27l.41-1.69h-3.94Z"/>
          <path class="cls-45" d="m39.54,640.8c0,.74-1.91,1.34-4.26,1.34s-4.26-.6-4.26-1.34,1.91-1.34,4.26-1.34,4.26.6,4.26,1.34"/>
          <path class="cls-51" d="m26.31,640.8h-4.58l.41,1.69c.15.63.54,1.11,1.03,1.27.38.12.8.23,1.24.31.58.11,1.11.16,1.6.18.47-.02.99-.07,1.55-.18.44-.08.86-.19,1.24-.31.49-.15.88-.63,1.03-1.27l.41-1.69h-3.94Z"/>
          <path class="cls-45" d="m30.24,640.8c0,.74-1.91,1.34-4.26,1.34s-4.26-.6-4.26-1.34,1.91-1.34,4.26-1.34,4.26.6,4.26,1.34"/>
          <path class="cls-51" d="m30.96,644.92h-4.58l.41,1.69c.15.63.54,1.11,1.03,1.27.38.12.8.23,1.24.31.58.11,1.11.16,1.6.18.47-.02.99-.07,1.55-.18.44-.08.86-.19,1.24-.31.49-.15.88-.63,1.03-1.27l.41-1.69h-3.94Z"/>
          <path class="cls-45" d="m34.89,644.92c0,.74-1.91,1.34-4.26,1.34s-4.26-.6-4.26-1.34,1.91-1.34,4.26-1.34,4.26.6,4.26,1.34"/>
        </g>
      </g>
    </g>
    <g id="BOLINHO_OU_BOLIVIANO-3" data-name="BOLINHO OU BOLIVIANO">
      <g class="cls-22">
        <g class="cls-14">
          <path class="cls-45" d="m39.12,182.03c0-1.74-1.41-3.15-3.15-3.15s-3.15,1.41-3.15,3.15,1.41,3.15,3.15,3.15,3.15-1.41,3.15-3.15"/>
          <path class="cls-45" d="m28.46,182.03c0-1.74-1.41-3.15-3.15-3.15s-3.15,1.41-3.15,3.15,1.41,3.15,3.15,3.15,3.15-1.41,3.15-3.15"/>
          <path class="cls-51" d="m35.03,183.03c0-2.4-1.95-4.35-4.35-4.35s-4.35,1.95-4.35,4.35,1.95,4.35,4.35,4.35,4.35-1.95,4.35-4.35"/>
        </g>
      </g>
    </g>
    <g id="BOLINHO_OU_BOLIVIANO-4" data-name="BOLINHO OU BOLIVIANO">
      <g class="cls-11">
        <g class="cls-28">
          <path class="cls-45" d="m39.12,410.68c0-1.74-1.41-3.15-3.15-3.15s-3.15,1.41-3.15,3.15,1.41,3.15,3.15,3.15,3.15-1.41,3.15-3.15"/>
          <path class="cls-45" d="m28.46,410.68c0-1.74-1.41-3.15-3.15-3.15s-3.15,1.41-3.15,3.15,1.41,3.15,3.15,3.15,3.15-1.41,3.15-3.15"/>
          <path class="cls-51" d="m35.03,411.68c0-2.4-1.95-4.35-4.35-4.35s-4.35,1.95-4.35,4.35,1.95,4.35,4.35,4.35,4.35-1.95,4.35-4.35"/>
        </g>
      </g>
    </g>
    <g id="QUIBE1-2" data-name="QUIBE1">
      <g class="cls-42">
        <g class="cls-23">
          <path class="cls-54" d="m31.72,29.14s-2.56,2.76-2.8,7.84c5.08-.24,7.84-2.8,7.84-2.8,0,0,2.56-2.76,2.8-7.84-5.08.24-7.84,2.8-7.84,2.8"/>
          <path class="cls-54" d="m24.51,25.36s-2.56,2.76-2.8,7.84c5.08-.24,7.84-2.8,7.84-2.8,0,0,2.56-2.76,2.8-7.84-5.08.24-7.84,2.8-7.84,2.8"/>
          <path class="cls-58" d="m28.12,27.25s-2.56,2.76-2.8,7.84c5.08-.24,7.84-2.8,7.84-2.8,0,0,2.56-2.76,2.8-7.84-5.08.24-7.84,2.8-7.84,2.8"/>
        </g>
      </g>
    </g>
    <g id="QUIBE2-2" data-name="QUIBE2">
      <g class="cls-7">
        <g class="cls-29">
          <path class="cls-51" d="m31.61,720.38s-2.31,2.48-2.52,7.06c4.57-.22,7.06-2.52,7.06-2.52,0,0,2.31-2.48,2.52-7.06-4.57.22-7.06,2.52-7.06,2.52"/>
          <path class="cls-51" d="m25.12,716.99s-2.31,2.48-2.52,7.06c4.57-.22,7.06-2.52,7.06-2.52,0,0,2.31-2.48,2.52-7.06-4.57.22-7.06,2.52-7.06,2.52"/>
          <path class="cls-45" d="m28.37,718.68s-2.31,2.48-2.52,7.06c4.57-.22,7.06-2.52,7.06-2.52,0,0,2.31-2.48,2.52-7.06-4.57.22-7.06,2.52-7.06,2.52"/>
        </g>
      </g>
    </g>
    <g id="RABO_DE_TATU-2" data-name="RABO DE TATU">
      <g class="cls-17">
        <g class="cls-18">
          <path class="cls-45" d="m23.15,263.78l5.28-10c.18-.34.63-.42.92-.17l4.18,3.74c.29.26.26.73-.07.94l-9.46,6.26c-.51.34-1.14-.23-.85-.77"/>
          <path class="cls-51" d="m27.61,263.96l5.28-10c.18-.34.63-.42.92-.17l4.18,3.74c.29.26.26.73-.07.94l-9.46,6.26c-.51.34-1.14-.23-.85-.77"/>
        </g>
      </g>
    </g>
    <g id="PASTEL-2" data-name="PASTEL">
      <g class="cls-9">
        <g class="cls-15">
          <path class="cls-45" d="m30.86,331.89l-7.75,7.75c2.14,2.14,5.61,2.14,7.75,0,2.14-2.14,2.14-5.61,0-7.75"/>
          <path class="cls-51" d="m36.42,330.93l-8.39,8.39c2.32,2.32,6.07,2.32,8.39,0,2.32-2.32,2.32-6.07,0-8.39"/>
        </g>
      </g>
    </g>
    <g id="ENROLADINHO-2" data-name="ENROLADINHO">
      <g class="cls-35">
        <g class="cls-41">
          <path class="cls-45" d="m23.77,571.14l-.61-.61c-.83-.83-.83-2.18,0-3.01l5.68-5.68c.83-.83,2.18-.83,3.01,0l.61.61c.83.83.83,2.18,0,3.01l-5.68,5.68c-.83.83-2.18.83-3.01,0"/>
          <path class="cls-51" d="m28.06,572.66l-.7-.7c-.95-.95-.95-2.5,0-3.45l6.51-6.51c.95-.95,2.5-.95,3.45,0l.7.7c.95.95.95,2.5,0,3.45l-6.51,6.51c-.95.95-2.5.95-3.45,0"/>
        </g>
      </g>
    </g>
  </g>
  <rect class="cls-1" y="373.18" width="450" height="376.82"/>
</svg>