<?xml version="1.0" encoding="UTF-8"?>
<svg id="Camada_1" data-name="Camada 1" xmlns="http://www.w3.org/2000/svg" xmlns:xlink="http://www.w3.org/1999/xlink" viewBox="0 0 1920 1080">
  <defs>
    <style>
      .cls-1 {
        fill: url(#Gradiente_sem_nome_9);
      }

      .cls-2 {
        clip-path: url(#clippath-4);
      }

      .cls-2, .cls-3, .cls-4, .cls-5, .cls-6, .cls-7, .cls-8, .cls-9, .cls-10, .cls-11, .cls-12, .cls-13, .cls-14, .cls-15, .cls-16, .cls-17, .cls-18, .cls-19, .cls-20, .cls-21, .cls-22, .cls-23, .cls-24, .cls-25, .cls-26, .cls-27, .cls-28, .cls-29, .cls-30, .cls-31, .cls-32, .cls-33, .cls-34, .cls-35, .cls-36, .cls-37, .cls-38, .cls-39, .cls-40, .cls-41, .cls-42 {
        fill: none;
      }

      .cls-43 {
        fill: #262626;
      }

      .cls-3 {
        clip-path: url(#clippath-2);
      }

      .cls-44 {
        fill: #fff;
      }

      .cls-4 {
        clip-path: url(#clippath-6);
      }

      .cls-5 {
        clip-path: url(#clippath-9);
      }

      .cls-45 {
        fill: #c9741f;
      }

      .cls-46 {
        fill: #dbdbdb;
      }

      .cls-47 {
        fill: #f9e0cf;
      }

      .cls-6 {
        clip-path: url(#clippath-12);
      }

      .cls-7 {
        clip-path: url(#clippath-32);
      }

      .cls-8 {
        clip-path: url(#clippath-13);
      }

      .cls-48 {
        fill: #e8e3df;
      }

      .cls-9 {
        clip-path: url(#clippath-36);
      }

      .cls-49 {
        fill: #633809;
      }

      .cls-10 {
        clip-path: url(#clippath-21);
      }

      .cls-11 {
        clip-path: url(#clippath-28);
      }

      .cls-12 {
        clip-path: url(#clippath-7);
      }

      .cls-13 {
        clip-path: url(#clippath-18);
      }

      .cls-50 {
        fill: #c6c1be;
      }

      .cls-14 {
        clip-path: url(#clippath-27);
      }

      .cls-15 {
        clip-path: url(#clippath-37);
      }

      .cls-51 {
        fill: #d48122;
      }

      .cls-16 {
        clip-path: url(#clippath-10);
      }

      .cls-52 {
        fill: #a30036;
      }

      .cls-17 {
        clip-path: url(#clippath-34);
      }

      .cls-53 {
        fill: #472704;
      }

      .cls-18 {
        clip-path: url(#clippath-35);
      }

      .cls-19 {
        clip-path: url(#clippath-22);
      }

      .cls-20 {
        clip-path: url(#clippath-5);
      }

      .cls-21 {
        clip-path: url(#clippath-24);
      }

      .cls-22 {
        clip-path: url(#clippath-26);
      }

      .cls-54 {
        fill: #822f06;
      }

      .cls-55 {
        fill: #d4003e;
      }

      .cls-23 {
        clip-path: url(#clippath-31);
      }

      .cls-24 {
        clip-path: url(#clippath-16);
      }

      .cls-25 {
        clip-path: url(#clippath-15);
      }

      .cls-26 {
        clip-path: url(#clippath-3);
      }

      .cls-27 {
        clip-path: url(#clippath-11);
      }

      .cls-28 {
        clip-path: url(#clippath-29);
      }

      .cls-29 {
        clip-path: url(#clippath-33);
      }

      .cls-30 {
        clip-path: url(#clippath-19);
      }

      .cls-32 {
        clip-path: url(#clippath-20);
      }

      .cls-33 {
        clip-path: url(#clippath-23);
      }

      .cls-34 {
        clip-path: url(#clippath-17);
      }

      .cls-56 {
        fill: #fbebce;
      }

      .cls-35 {
        clip-path: url(#clippath-38);
      }

      .cls-36 {
        clip-path: url(#clippath);
      }

      .cls-57 {
        fill: #e2af8d;
      }

      .cls-58 {
        fill: #973905;
      }

      .cls-59 {
        fill: #f2c4a5;
      }

      .cls-60 {
        fill: #593204;
      }

      .cls-37 {
        clip-path: url(#clippath-1);
      }

      .cls-38 {
        clip-path: url(#clippath-8);
      }

      .cls-39 {
        clip-path: url(#clippath-25);
      }

      .cls-40 {
        clip-path: url(#clippath-14);
      }

      .cls-41 {
        clip-path: url(#clippath-39);
      }

      .cls-42 {
        clip-path: url(#clippath-30);
      }
    </style>
    <clipPath id="clippath">
      <rect class="cls-31" x="1861.44" y="633.56" width="21.85" height="16.74"/>
    </clipPath>
    <clipPath id="clippath-1">
      <rect class="cls-31" x="1861.44" y="633.56" width="21.85" height="16.74"/>
    </clipPath>
    <clipPath id="clippath-2">
      <rect class="cls-31" x="1863.28" y="145.47" width="18.16" height="12.26"/>
    </clipPath>
    <clipPath id="clippath-3">
      <rect class="cls-31" x="1863.28" y="145.47" width="18.16" height="12.26"/>
    </clipPath>
    <clipPath id="clippath-4">
      <rect class="cls-31" x="1860.89" y="836.15" width="22.94" height="11.48"/>
    </clipPath>
    <clipPath id="clippath-5">
      <rect class="cls-31" x="1860.89" y="836.15" width="22.94" height="11.48"/>
    </clipPath>
    <clipPath id="clippath-6">
      <rect class="cls-31" x="1861.44" y="242.83" width="21.85" height="11.21"/>
    </clipPath>
    <clipPath id="clippath-7">
      <rect class="cls-31" x="1861.44" y="242.83" width="21.85" height="11.21"/>
    </clipPath>
    <clipPath id="clippath-8">
      <rect class="cls-31" x="1861.44" y="537.25" width="21.85" height="11.21"/>
    </clipPath>
    <clipPath id="clippath-9">
      <rect class="cls-31" x="1861.44" y="537.25" width="21.85" height="11.21"/>
    </clipPath>
    <clipPath id="clippath-10">
      <rect class="cls-31" x="1860.87" y="41.8" width="22.99" height="18.57"/>
    </clipPath>
    <clipPath id="clippath-11">
      <rect class="cls-31" x="1860.87" y="41.8" width="22.99" height="18.57"/>
    </clipPath>
    <clipPath id="clippath-12">
      <rect class="cls-31" x="1862.02" y="932.73" width="20.69" height="16.71"/>
    </clipPath>
    <clipPath id="clippath-13">
      <rect class="cls-31" x="1862.02" y="932.73" width="20.69" height="16.71"/>
    </clipPath>
    <clipPath id="clippath-14">
      <rect class="cls-31" x="1862.63" y="339.14" width="19.46" height="14.64"/>
    </clipPath>
    <clipPath id="clippath-15">
      <rect class="cls-31" x="1862.63" y="339.14" width="19.46" height="14.64"/>
    </clipPath>
    <clipPath id="clippath-16">
      <rect class="cls-31" x="1862.68" y="438.87" width="19.37" height="13.28"/>
    </clipPath>
    <clipPath id="clippath-17">
      <rect class="cls-31" x="1862.68" y="438.87" width="19.37" height="13.28"/>
    </clipPath>
    <clipPath id="clippath-18">
      <rect class="cls-31" x="1861.94" y="735.4" width="20.85" height="15.66"/>
    </clipPath>
    <clipPath id="clippath-19">
      <rect class="cls-31" x="1861.94" y="735.4" width="20.85" height="15.66"/>
    </clipPath>
    <clipPath id="clippath-20">
      <rect class="cls-31" x="45.25" y="633.56" width="21.85" height="16.74"/>
    </clipPath>
    <clipPath id="clippath-21">
      <rect class="cls-31" x="45.25" y="633.56" width="21.85" height="16.74"/>
    </clipPath>
    <clipPath id="clippath-22">
      <rect class="cls-31" x="47.09" y="145.47" width="18.16" height="12.26"/>
    </clipPath>
    <clipPath id="clippath-23">
      <rect class="cls-31" x="47.09" y="145.47" width="18.16" height="12.26"/>
    </clipPath>
    <clipPath id="clippath-24">
      <rect class="cls-31" x="44.7" y="836.15" width="22.94" height="11.48"/>
    </clipPath>
    <clipPath id="clippath-25">
      <rect class="cls-31" x="44.7" y="836.15" width="22.94" height="11.48"/>
    </clipPath>
    <clipPath id="clippath-26">
      <rect class="cls-31" x="45.25" y="242.83" width="21.85" height="11.21"/>
    </clipPath>
    <clipPath id="clippath-27">
      <rect class="cls-31" x="45.25" y="242.83" width="21.85" height="11.21"/>
    </clipPath>
    <clipPath id="clippath-28">
      <rect class="cls-31" x="45.25" y="537.25" width="21.85" height="11.21"/>
    </clipPath>
    <clipPath id="clippath-29">
      <rect class="cls-31" x="45.25" y="537.25" width="21.85" height="11.21"/>
    </clipPath>
    <clipPath id="clippath-30">
      <rect class="cls-31" x="44.68" y="41.8" width="22.99" height="18.57"/>
    </clipPath>
    <clipPath id="clippath-31">
      <rect class="cls-31" x="44.68" y="41.8" width="22.99" height="18.57"/>
    </clipPath>
    <clipPath id="clippath-32">
      <rect class="cls-31" x="45.83" y="932.73" width="20.69" height="16.71"/>
    </clipPath>
    <clipPath id="clippath-33">
      <rect class="cls-31" x="45.83" y="932.73" width="20.69" height="16.71"/>
    </clipPath>
    <clipPath id="clippath-34">
      <rect class="cls-31" x="46.44" y="339.14" width="19.46" height="14.64"/>
    </clipPath>
    <clipPath id="clippath-35">
      <rect class="cls-31" x="46.44" y="339.14" width="19.46" height="14.64"/>
    </clipPath>
    <clipPath id="clippath-36">
      <rect class="cls-31" x="46.49" y="438.87" width="19.37" height="13.28"/>
    </clipPath>
    <clipPath id="clippath-37">
      <rect class="cls-31" x="46.49" y="438.87" width="19.37" height="13.28"/>
    </clipPath>
    <clipPath id="clippath-38">
      <rect class="cls-31" x="45.75" y="735.4" width="20.85" height="15.66"/>
    </clipPath>
    <clipPath id="clippath-39">
      <rect class="cls-31" x="45.75" y="735.4" width="20.85" height="15.66"/>
    </clipPath>
    <linearGradient id="Gradiente_sem_nome_9" data-name="Gradiente sem nome 9" x1="960" y1="1080" x2="960" y2="530.33" gradientUnits="userSpaceOnUse">
      <stop offset=".09" stop-color="#973905"/>
      <stop offset="1" stop-color="#973905" stop-opacity="0"/>
    </linearGradient>
  </defs>
  <rect class="cls-56" width="1920" height="1080"/>
  <g>
    <circle class="cls-58" cx="1345.05" cy="541.7" r="306.16"/>
    <circle class="cls-51" cx="1345.05" cy="541.7" r="243.51"/>
    <g>
      <path class="cls-53" d="m1113.08,745.59c-3.47,2.68-7.25,5.12-9.81,8.68-3.23,4.49-4.14,10.39-3.27,15.85.87,5.47,3.39,10.56,6.47,15.15,2.02,3.01,4.41,5.94,7.63,7.61,3.22,1.67,7.47,1.81,10.28-.49,2.81-2.3,3.22-7.3.28-9.43,7.05,1.08,15.03,1.92,20.58-2.55,1.72-1.39,3.31-3.32,5.52-3.45,2.19-.12,4.11,1.75,4.7,3.87.59,2.11.12,4.37-.55,6.46-1.75,5.49-4.93,11.1-3.35,16.64.72,2.53,2.37,4.67,3.75,6.92s2.53,4.84,2.1,7.43c-.43,2.6-3.07,4.94-5.59,4.17,6.15,2.68,12.46,5.4,19.15,5.77,6.69.36,13.96-2.12,17.49-7.82,4.33-7,1.85-16.03,2.77-24.21.94-8.44,5.61-16.96,2.83-24.99-1.68-4.83-5.75-8.36-9.5-11.84-12.45-11.56-22.96-25.18-31.06-40.12-2.22-4.1-5.4-17.3-12.13-13.89-3.06,1.55-3.51,5.84-4.66,8.72-1.54,3.86-3.4,7.6-5.55,11.15-4.73,7.8-10.86,14.77-18.09,20.34Z"/>
      <path class="cls-53" d="m1207.91,424.66c28.86-50.03,88.48-71.11,144.84-75.16.33-.68.65-1.37.98-2.05-40.75-1.89-83.26,4.46-117.29,26.95-15.42,10.19-28.54,23.98-37.89,39.93-7.1,12.1-16.46,31.6-14.4,46.17,1.03,7.3,5.08,5.86,10.31,1.26,5.96-5.23,10.74-11.84,16.81-17.08,14.77-12.73,32.19-22.44,50.78-28.38-18.71-2.09-36.42-1.31-54.13,8.35Z"/>
      <path class="cls-53" d="m1484.23,539.28c-16.26,9.76-17.02,28.55-17.67,46.13,1.28-3.1,2.43-6.28,3.65-9.39,3.21-8.21,7.47-16.66,15.04-21.18,7.57-4.52,19.26-3.09,22.94,4.93.23-7.1.43-14.27.53-21.45,0-.58,0-1.16.02-1.74-8-2.78-16.91-2.05-24.52,2.7Z"/>
      <path class="cls-53" d="m1485.5,419.61c-2.11-3.47-4.53-6.98-8.11-8.88-3.59-1.9-8.64-1.63-11.06,1.62-1.1,1.49-1.53,3.36-1.97,5.2,10.71,19.52,20.89,39.51,27.92,60.19,4.44,1.73,8.97,2.41,13.55,2.27-3.09-21.37-9.1-41.9-20.32-60.4Z"/>
      <path class="cls-53" d="m1505.82,480.02c-4.58.14-9.11-.54-13.55-2.27,6.29,18.51,10.03,37.57,9.34,57.34,2.42.2,4.81.68,7.13,1.48.24-18.96-.24-38.06-2.92-56.55Z"/>
      <path class="cls-53" d="m1383.94,420.56c-38.78-18.47-85.9-18.6-129.31-4.92,2.46.16,4.93.38,7.43.66,12.83-4.09,26.24-6.43,39.75-6.63,45.77-.74,91.27,22.37,117.65,59.77,26.36,37.37,32.99,84.74,38.89,130.09,3.67-4.09,6.12-9.01,8.22-14.13,0-.16.01-.31.02-.47-4.58-64.51-21.46-137.38-82.64-164.37Z"/>
      <path class="cls-60" d="m1492.28,477.75c-.34-.13-.68-.26-1.02-.4.34.14.68.27,1.02.4-7.02-20.68-17.21-40.67-27.92-60.19-.5,2.1-1.01,4.17-2.54,5.62-3.64,3.45-9.53.66-13.7-2.14-1.96-1.32-3.94-2.61-5.93-3.89,11.75,19.89,20.96,40.31,39.99,54.58-19.04-14.27-28.25-34.67-39.99-54.57-30.89-19.89-64.62-35.35-99.86-45.75,3.48-7.31,6.96-14.61,10.42-21.92-56.35,4.05-115.97,25.13-144.83,75.16,15.35-8.37,30.71-10.07,46.71-9.01,43.42-13.68,90.53-13.55,129.31,4.92,61.18,26.99,78.06,99.86,82.64,164.37.65-17.44,1.54-35.99,17.65-45.66,5.4-3.38,11.46-4.69,17.38-4.19.7-19.77-3.05-38.83-9.34-57.34Z"/>
      <path class="cls-49" d="m1241.9,399.87c10.59-5.34,57.55-27.56,115.23-11.08,62.29,17.8,90.64,67.46,95.75,76.8-8.8-12.87-36.55-49.87-88.69-67.93-58.65-20.31-108.7-2.99-122.28,2.21Z"/>
      <path class="cls-49" d="m1255.11,386.95c10.59-5.34,57.55-27.56,115.23-11.08,62.29,17.8,90.64,67.46,95.75,76.8-8.8-12.87-36.55-49.87-88.69-67.93-58.65-20.31-108.7-2.99-122.28,2.21Z"/>
      <path class="cls-53" d="m1235.66,406.39c55.29-25.24,123.98-17.03,171.56,20.92,15.94,12.35,29.73,27.41,40.4,44.35-11.97-16.03-26.34-30.08-42.32-41.8-48.09-36.04-113.44-43.93-169.64-23.47h0Z"/>
      <path class="cls-53" d="m1249.83,392.22c55.29-25.24,123.98-17.03,171.56,20.92,15.94,12.35,29.73,27.41,40.4,44.35-11.97-16.03-26.34-30.08-42.32-41.8-48.09-36.04-113.44-43.93-169.64-23.47h0Z"/>
      <path class="cls-53" d="m1264,378.04c55.29-25.24,123.98-17.03,171.56,20.92,15.94,12.35,29.73,27.41,40.4,44.35-11.97-16.03-26.34-30.08-42.32-41.8-48.09-36.04-113.44-43.93-169.64-23.47h0Z"/>
      <path class="cls-43" d="m1181.55,713.18c-1.36,1.54-2.96,2.79-4.79,3.54-5.85,2.38-9.97-1.93-14.89,1.29-3.11,2.04-5.27,6.27-4.8,10.02.68,5.51,6.52,5.87,8.04,11.64,1.23,4.68-.75,11.53-6.3,14.49-5.03,2.68-11.67,1.47-16.01-3.14,7.18,8.29,6.54,19.36,1.44,24.04-5.74,5.27-19.01,4.16-26-6.63-.68,1.18-2.91,5.37-1.91,10.76,1.35,7.28,7.47,10.67,8.29,11.11-1.95-.65-15.94-5.53-19.66-18.51-.53-1.84-3.83-13.36,3.09-18.62,3.99-3.03,10.09-3,15.69-.26-3.32-5.39-3.41-11.7-.26-15.69,3.06-3.88,8.13-4.23,9.87-4.35,6.16-.43,10.6,2.77,11.83,3.73-1.34-1.97-7.23-11.07-4.82-22.42.55-2.57,2.38-11.21,10.2-15.86,3.53-2.1,7-2.63,9.11-2.77-.8-2.68-1.68-6.1-2.39-10.13-.62-.19-1.24-.38-1.86-.55-2.98.54-5.74.98-8.38,1.32.12.73.24,1.46.37,2.19-.71.35-1.41.73-2.09,1.13-7.74,4.6-12.78,12.18-14.98,22.53-.82,3.88-.96,7.55-.65,10.94-6.1.97-10.89,3.62-14.25,7.88-2.31,2.92-3.72,6.41-4.25,10.12-3.47.61-6.64,1.97-9.34,4.02-9.5,7.22-8.74,22.16-6.74,29.59,4.02,14.9,20.65,26.09,41.56,27.6l-9.76-15.07c2.7.81,5.52,1.23,8.39,1.23,6.19,0,11.82-2.05,15.86-5.76,4.75-4.36,7.13-10.7,7.18-17.42,1.84-.44,3.62-1.11,5.28-1.99,10.4-5.55,13.62-17.6,11.38-26.13-1.24-4.7-3.83-7.67-5.94-9.64,1.1.16,2.36.29,3.78.29,2.74,0,5.29-.5,7.79-1.52,2.87-1.17,5.33-2.91,7.43-5-2.22-2.62-4.4-5.28-6.5-8.01Z"/>
      <path class="cls-43" d="m1217.23,746.1c-3.27-1.73-6.41-3.7-9.39-5.84-.07.05-.16.11-.23.16-4.35,2.94-8.31,4.94-11.28,6.27,1.06,1.41,2.62,3.89,3.22,7.28,1.32,7.49-3.14,13.36-4.47,15.12-5.87,7.72-14.84,8.96-16.82,9.19,1.28.26,5.73,1.32,8.82,5.45.87,1.17,3.42,4.57,2.63,8.62-.81,4.17-4.85,7.56-10.07,8.4,4.79,2.05,8.14,5.89,8.4,10.07.45,7.25-8.64,11.45-10.1,12.12-10.25,4.73-20.98-1.46-22.45-2.34.73.28,6.22,2.3,11.56-.82,3.95-2.31,5.39-6.01,5.76-7.08-10.65,1.46-18.6-6.33-18.4-12.84.18-5.78,6.84-12.23,16.01-12.21-5.28-.23-9.68-3.77-10.72-8.42-1.16-5.13,2.09-10.12,5.73-11.9,4.48-2.19,7.89,1.31,11.76-1.26,2.63-1.75,4.13-5.43,3.72-8.51-.64-4.87-5.63-5.13-7.31-10.13-1.73-5.16,1.27-11.74,5.12-15.37,4.89-4.61,9.3-2.75,13.79-5.83-2.4-2.61-4.74-5.3-6.99-8.06-.26.06-.56.12-.95.2-3.19.66-8,1.65-12.87,6.25-6.05,5.71-11.07,16.31-7.79,26.07.8,2.38,1.94,4.25,3.12,5.73-2.13.2-4.16.78-6.08,1.71-7.2,3.52-13.58,12.89-11.23,23.34.29,1.28.7,2.51,1.21,3.69-4.02,3.9-6.57,8.94-6.74,14.37-.17,5.42,2.16,11.04,6.41,15.42,1.44,1.48,3.05,2.79,4.79,3.89-6.1-.8-12.19-1.6-18.29-2.4,2.41,3.65,8.83,12.27,20.47,16.34,4.63,1.62,8.85,2.09,12.12,2.15h0c4.43,0,8.65-.91,12.54-2.7,10.75-4.96,16.59-13,16.02-22.05-.17-2.73-.94-5.38-2.21-7.82,1.85-2.38,3.15-5.12,3.72-8.08.86-4.44.11-8.86-2.24-13.2,2-1.58,3.94-3.49,5.7-5.81,7.03-9.25,7.36-17.66,6.4-23.09-.05-.28-.1-.55-.16-.83,1.31-.79,2.6-1.61,3.86-2.46,1.2-.81,2.52-1.77,3.89-2.8Z"/>
      <path class="cls-53" d="m1339.57,388.95c39.19,14.19,76.43,33.78,110.33,58.03,4.49,3.21,9,6.55,14.18,8.46,5.18,1.91,11.24,2.23,16.04-.51,9.24-5.29,9.38-19.29,3.73-28.31-6.27-10-17.21-15.91-27.67-21.38-27.64-14.46-56.26-29.21-87.37-31.55-10.42-.78-27.01-3.43-37.01.54-12.01,4.77.96,12.25,7.78,14.72Z"/>
      <path class="cls-43" d="m1454.97,614.46c-5.64-9.56-9.84-21.46-12.15-34.39-.4-2.15-.74-4.41-1.03-6.87-.29-2.41-.51-4.9-.65-7.6v-.49c-.03-.94-.05-1.87-.1-2.8v-.24s-.06-1.32-.06-1.32c-1.58-36.44-14.28-70.25-35.77-95.17l-.7-.82-.05-.09c-23.14-27.45-60.08-43.18-101.4-43.18-22.93,0-45.67,4.77-67.59,14.17-9.64,4.14-18.93,9.13-27.62,14.86-4.2,8.04-8,16.47-11.3,25.06l-.09.24-19.64,27.5-.05-6.3c-.06-7.33.63-39.95,2.15-47.47,11.16-55.18,62.78-92.84,108.98-105.68,13.58-3.78,27.23-5.61,41.73-5.61,7.18,0,13.25.44,18.85.88,2.14.17,4.58.41,7.22.72l4.55.54-3.43,3.03c-2.23,1.97-3.19,3.77-3.42,6.42l-.18,2.07-2.07-.21c-1.42-.14-2.64-.25-3.64-.33-5.35-.43-11.14-.85-17.87-.85-13.37,0-25.94,1.69-38.44,5.16-41.21,11.46-90.15,46.47-100.23,96.28-.7,3.45-1.5,11.88-1.82,15.41,2.11-3.61,6.38-7.65,8.78-11.28,2.81-4.25,7.66-8.14,9.55-11.67l5.61-6.37,4.09-3.64c9.49-6.45,1.74-5.03,13.46-10.06,23.46-10.06,47.83-15.17,72.43-15.17,45.36,0,85.98,17.61,111.42,48.31l.13.16c23.23,26.99,36.95,63.47,38.65,102.74v.27c.02.31.04.65.04,1.02.06.97.08,2.06.1,3.17.13,2.48.32,4.7.58,6.85.26,2.21.56,4.22.92,6.16,1.55,8.71,4.03,16.82,7.27,23.85.05-.55.11-1.1.17-1.65,3.12-29.3,16.42-51.41,30.92-51.41.49,0,.99.03,1.49.08.68.06,1.54.14,2.57.53,4.36,1.64,6.47,6.39,7.58,11.25.79-8.63,1.31-22.07.36-40.04-1.07-20.27-3.7-40.48-7.83-60.09-5.69-16.43-13.84-31.54-24.2-44.91-1.72-2.21-3.61-4.49-5.94-7.15l-1.34-1.52,1.51-1.35c.3-.27.52-.51.69-.76l.13-.2c.41-.52.63-.87.78-1.2l.05-.11.06-.1c.81-1.41,1.35-2.79,1.68-4.37l.83-3.9,2.68,2.94c3,3.3,5.89,6.72,8.58,10.19,11.22,14.47,20.01,30.8,26.15,48.54l.21.6.13.63c4.27,20.27,7,41.16,8.1,62.1.12,2.1,2.75,51.66-5.32,60.15l-3.02,3.18-4.49.07c-6.43-.04-10.04-4.29-10.78-12.63-.49-5.52-1.11-8.2-1.56-9.48-5.49,1.76-15.29,16.72-17.8,40.25-.3,2.81-.48,5.52-.54,8.07l-.74,36.02-18.31-31.03Z"/>
      <g>
        <path class="cls-31" d="m1539.19,775.22l7.36-6.18c.95-.8,1.86-1.63,2.75-2.49-6.06-1.11-10.27-3.71-13-6.09.17.47.36.94.55,1.39,1.75,4.26,2.36,8.77,2.34,13.37Z"/>
        <path class="cls-53" d="m1579.23,730.86c-1.08-.82-2.57-1.25-4.31-1.25-1.92,0-4.01.52-6.04,1.52l-15.87,7.76,9.26-15.04c2.16-3.51,2.4-7.55.6-9.84-1.66-2.1-4.96-2.33-6.2-2.41-.26-.02-.52-.03-.78-.03-3.69,0-6.52,1.88-7.57,2.7l-7.35-6.91c-1.64.72-3.53,1.16-5.49,1.42-.89,1.04-1.84,1.87-2.68,2.59-1.53,1.32-2.28,2.01-2.6,3.23-.63,2.39.35,6.85,3.76,8.67.99.53,2.14.81,3.34.81,2.4,0,4.78-1.07,6.53-2.93l7.6,6.86c-5.48,6.33-4.76,14.25-1.85,16.92,1.17,1.08,3.22,1.72,5.48,1.72,5.01,0,9.78-2.75,12.77-7.36l4.54-7,4.18,7.22c.93,1.6,2.18,4.29,2.66,7.72.51-1,.95-2.06,1.28-3.21,1.39-4.83,1.78-10.82-1.27-13.14Z"/>
        <path class="cls-60" d="m1540.97,707.34c1.82-2.68,5.87-9.85,4.04-18.47-.47-2.23-1.91-9.02-7.81-12.53-2.01-1.2-4.31-1.89-6.83-2.06l-6.39-.42,1.83-6.14c1.39-4.66,2.38-9.46,2.95-14.26.72-6.11,1.44-18.24-1.94-30.8-2.53-9.42-11.21-31.89-24.13-38.41-1.37,1.01-2.61,2.24-3.65,3.57-2.81,3.6-4.45,7.95-6,12.24-10.11,28.17-17.6,57.29-22.36,86.84-1.51,9.38-2.74,18.88-3.25,28.37,9.89-6.66,19.9-13.08,30.88-17.25-1.51-1.57-2.9-3.32-4.13-5.26l-2.51-3.98,3.75-2.84c.77-.59,1.35-1.1,1.82-1.61,1.49-1.62,2.64-3.35,3.51-5.26l4.89-10.73,4.5,10.9c1.31,3.18,3.29,5.5,5.42,6.37.64.26,1.25.38,1.98.38.82,0,1.75-.15,2.72-.31,1.19-.19,2.54-.41,4.01-.41,2.6,0,4.9.68,7.04,2.09,4.86,3.19,7.77,9.33,7.08,14.93-.36,2.88-1.55,4.92-2.89,6.49,1.96-.26,3.85-.7,5.49-1.42h-.01Z"/>
        <path class="cls-53" d="m1469.06,747.06c2.73,15.23,8.97,30.2,19.32,41.84,3.44,3.87,7.73,9.44,12.68,11.42,7,2.8,17.05,1.28,24.45,1.49,2.85.08,5.97.08,8.19-1.71,2.25-1.81,2.92-4.91,3.43-7.75.87-4.79,1.72-9.73,1.97-14.62l-2.82-.09,2.9-2.43c.02-4.59-.59-9.11-2.34-13.37-.19-.45-.38-.92-.55-1.39-.18-.16-.38-.32-.55-.47-4.78-4.39-7.76-10.46-8.6-17.37-.96-.38-1.9-.81-2.81-1.3-3.9-2.08-7.15-5-9.67-8.66l-1.42-2.06.76-2.38c1.87-5.89,1.11-12.63-2.01-17.59l-1.44-2.29s1.1-2.53,1.11-2.55c-1.32-.3-2.61-.71-3.87-1.23-3.53-1.44-6.74-3.67-9.51-6.54-10.98,4.17-21,10.59-30.88,17.25-.57,10.65-.25,21.31,1.63,31.8Z"/>
        <path class="cls-43" d="m1536.29,777.65l2.82.09c.04-.84.07-1.68.08-2.52l-2.9,2.43Z"/>
        <path class="cls-53" d="m1536.3,760.46c-.03-.09-.06-.17-.09-.26-.02.04-.04.09-.06.13.05.04.1.08.14.12Z"/>
        <path class="cls-53" d="m1586.38,728.18c-7.11-16.82-29.22-24.34-34.21-41.9-1.55-5.47-1.35-11.72-4.86-16.19-1.82-2.32-4.48-3.89-6.3-6.21-4-5.09-3.11-12.3-2.7-18.76,1.12-17.51-2.85-35.32-11.31-50.7-3.54-6.44-9.05-13.11-16.4-13.05-2.87.02-5.59,1.14-7.91,2.85,12.92,6.53,21.6,29,24.13,38.41,3.37,12.56,2.66,24.69,1.94,30.8-.57,4.8-1.56,9.6-2.95,14.26l-1.83,6.14,6.39.42c2.52.17,4.82.86,6.83,2.06,5.9,3.51,7.34,10.3,7.81,12.53,1.83,8.62-2.21,15.79-4.04,18.47l7.36,6.92c1.05-.81,3.88-2.7,7.57-2.7.25,0,.51,0,.78.03,1.24.09,4.55.31,6.2,2.41,1.8,2.29,1.56,6.33-.6,9.84l-9.26,15.04,15.87-7.76c2.03-.99,4.12-1.52,6.04-1.52,1.74,0,3.23.43,4.31,1.25,3.05,2.32,2.66,8.31,1.27,13.14-.33,1.14-.76,2.21-1.28,3.21-.48-3.43-1.73-6.12-2.66-7.72l-4.18-7.22-4.54,7c-2.99,4.61-7.76,7.36-12.77,7.36-2.26,0-4.31-.64-5.48-1.72-2.91-2.67-3.64-10.59,1.85-16.92l-7.6-6.86c-1.75,1.86-4.13,2.93-6.53,2.93-1.2,0-2.35-.28-3.34-.81-3.41-1.82-4.39-6.28-3.76-8.67.32-1.23,1.07-1.91,2.6-3.23,2.1-1.81,4.98-4.3,5.57-9.08.69-5.6-2.22-11.74-7.08-14.93-2.14-1.4-4.45-2.09-7.04-2.09-1.47,0-2.81.22-4.01.41-.98.16-1.9.31-2.72.31-.74,0-1.35-.12-1.98-.38-2.13-.87-4.1-3.19-5.42-6.37l-4.5-10.9-4.89,10.73c-.87,1.92-2.02,3.64-3.51,5.26-.47.51-1.05,1.02-1.82,1.61l-3.75,2.84,2.51,3.98c1.91,3.01,4.2,5.59,6.76,7.68,5.77-5.05,12.71-3.03,18.09.55,11.19,5.59-1.4,19.68,2.46,31.43,3.54.78,6.48,2.07,7.77,3.36,4.16,5.55,8.31,12.97,8.01,19.73,1.31-.94,3.26-1.25,4.96-1.36,4.07-.25,8.22-.48,12.15.58,3.93,1.07,7.67,3.69,8.99,7.55.38,1.12.6,2.39,1.49,3.18,1.21,1.08,3.1.76,4.64.24,7.29-2.46,13.47-8.06,16.63-15.07,3.16-7.02,3.26-15.35.26-22.44Z"/>
        <path class="cls-53" d="m1529.26,735.77c-1.3-1.3-4.23-2.59-7.77-3.36.38,1.15.9,2.27,1.63,3.36-1.79,0-3.79.09-5.8.12,2.03,2.17,4.37,4.01,7.03,5.43.91.48,1.84.92,2.81,1.3.84,6.91,3.82,12.98,8.6,17.37.12.11.27.23.4.35.02-.04.04-.09.06-.13-.34-.98-.56-1.98-.26-2.95.23-.75.71-1.31,1.32-1.74.3-6.76-3.85-14.19-8.01-19.73Z"/>
        <path class="cls-53" d="m1519.03,700.98c-5.38-3.58-12.32-5.6-18.09-.55,2.12,1.72,4.42,3.13,6.88,4.13,1.26.51,2.55.92,3.87,1.23-.01.03-1.11,2.55-1.11,2.55l1.44,2.29c3.11,4.96,3.88,11.7,2.01,17.59l-.76,2.38,1.42,2.06c.8,1.16,1.7,2.22,2.64,3.23,2.02-.02,4.01-.12,5.8-.12-8.19-12.28,8.19-28.66-4.09-34.8Z"/>
      </g>
      <path class="cls-53" d="m1514.52,605.06c11.79,20.64,13.07,46.14,4.19,67.09,6.97-21.67,3.1-45.98-9.38-63.81l5.19-3.28h0Z"/>
      <path class="cls-53" d="m1513.75,628.7c3.63,10.03,4.2,20.78,1.97,30.6.21-10.07-2.54-19.89-7.51-27.97l5.55-2.63h0Z"/>
      <path class="cls-53" d="m1522.2,679.78c8.57-2.69,18.73,4.81,18.66,13.8-3.18-8.04-10.04-13.12-18.66-13.8h0Z"/>
      <path class="cls-43" d="m1588.52,718.63c-2.7-2.05-5.88-3.41-9.34-4.02-.53-3.71-1.94-7.21-4.25-10.12-3.37-4.26-8.15-6.91-14.25-7.88.31-3.38.17-7.06-.65-10.93-2.19-10.34-7.23-17.93-14.98-22.53-.68-.41-1.38-.78-2.09-1.13.42-2.24.77-4.5,1.04-6.75,1.05-8.81,1.48-22.3-2.35-36.59-1.38-5.13-14.34-50.16-44.78-51.57-.47-.02-.94-.03-1.41-.03-2.18,0-4.23.25-6.18.64,1.07,3.33,1.47,6.71,1.53,10.14,1.75-.4,3.61-.62,5.59-.53,23.37,1.08,34.86,42.12,35.37,44,3.63,13.52,2.85,26.24,2.08,32.73-.74,6.24-2.02,11.39-3.13,15.12,2.11.14,5.58.66,9.11,2.77,7.82,4.65,9.65,13.29,10.2,15.86,2.41,11.35-3.47,20.44-4.82,22.42,1.23-.96,5.67-4.15,11.83-3.73,1.74.12,6.81.47,9.87,4.35,3.15,3.99,3.06,10.3-.26,15.69,5.6-2.74,11.7-2.77,15.69.26,6.92,5.26,3.62,16.78,3.09,18.62-3.72,12.98-17.71,17.86-19.66,18.51.82-.44,6.94-3.84,8.29-11.11,1-5.38-1.24-9.58-1.91-10.76-7,10.79-20.26,11.91-26,6.63-5.1-4.68-5.74-15.75,1.44-24.04-4.34,4.61-10.98,5.82-16.01,3.14-5.55-2.96-7.53-9.81-6.3-14.49,1.52-5.77,7.36-6.13,8.04-11.64.46-3.75-1.69-7.98-4.8-10.02-4.91-3.22-9.04,1.09-14.89-1.29-3.74-1.53-6.55-5.13-8.21-9.15-1.06,2.32-2.47,4.51-4.4,6.6-.77.83-1.62,1.55-2.5,2.22,2.66,4.21,6.39,7.82,11.25,9.8,2.46,1,5.08,1.51,7.79,1.51,1.42,0,2.68-.13,3.78-.29-1.66,1.55-3.61,3.73-4.97,6.86,3.99,6.35,4.84,14.66,2.55,21.86,1.92,2.8,4.51,5.26,7.85,7.04,1.66.88,3.43,1.55,5.28,1.99.05,6.72,2.44,13.06,7.18,17.42,6.17,5.66,13.87,5.73,15.87,5.76,2.06.03,3.8-.2,5.04-.44-.99,1.47-2.15,3.03-3.48,4.62-2.32,2.76-4.66,5.01-6.8,6.8,22.82.71,41.31-10.18,45.42-24.73,3.4-12.03-2.99-26.74-6.74-29.59Z"/>
      <path class="cls-43" d="m1538.29,789.99c.36-.31.89-.78,1.48-1.4,1.18-1.23,6.67-6.93,6.41-15.42-.17-5.43-2.72-10.47-6.74-14.37.52-1.18.93-2.41,1.22-3.69,2.35-10.45-4.03-19.83-11.23-23.34-1.91-.94-3.95-1.51-6.08-1.71,1.19-1.48,2.32-3.35,3.12-5.73,3.28-9.76-1.74-20.36-7.79-26.07-4.87-4.59-9.68-5.59-12.87-6.24-2.03-.42-2.09-.48-2.39-.77-.25-.25-.46-.57-.66-.92-.99,3.41-2.35,6.71-4.31,9.93,4.29,2.56,8.53,1.04,13.2,5.46,3.85,3.63,6.85,10.21,5.12,15.37-1.68,5-6.67,5.26-7.31,10.13-.41,3.08,1.09,6.76,3.72,8.51,3.86,2.58,7.27-.92,11.76,1.26,3.64,1.78,6.89,6.77,5.73,11.9-1.05,4.65-5.44,8.19-10.72,8.42,9.16-.02,15.82,6.43,16.01,12.21.2,6.51-7.74,14.3-18.4,12.84.37,1.07,1.81,4.78,5.76,7.08,5.34,3.12,10.83,1.1,11.56.82-1.47.88-12.2,7.07-22.45,2.34-1.45-.67-10.55-4.87-10.1-12.12.26-4.18,3.61-8.02,8.4-10.07-5.22-.84-9.27-4.23-10.07-8.4-.78-4.05,1.76-7.45,2.63-8.62,3.09-4.13,7.54-5.2,8.82-5.45-1.98-.23-10.95-1.47-16.82-9.19-1.33-1.75-5.8-7.63-4.47-15.12.6-3.38,2.16-5.86,3.22-7.28-1.31-.59-2.83-1.33-4.47-2.2-.33,2.13-.95,4.23-1.93,6.23.23.81.45,1.61.69,2.42,1.71,5.76,2.95,10.94,3.54,17.02.3,3.1-.25,6.09-1.4,8.84.78.75,1.57,1.45,2.37,2.09-2.34,4.34-3.1,8.76-2.24,13.2.57,2.96,1.86,5.7,3.72,8.08-1.28,2.44-2.04,5.09-2.21,7.82-.56,9.05,5.28,17.09,16.02,22.05,1.42.66,6.08,2.7,12.54,2.7,16.07,0,27.11-12.57,29.45-15.37-3.95-1.07-7.89-2.14-11.84-3.22Z"/>
      <path class="cls-43" d="m1500.06,794.62c1.14-3.58,1.37-7.34.55-10.97-1.19-5.3-4.36-9.75-9.44-13.27,1.74-2.92,3.21-6.28,4.14-10.14,2.5-10.28,1.23-19.29-3.76-26.79-.44-.66-.91-1.31-1.4-1.93,1.35-1.84,2.64-3.72,3.85-5.64,4.75-7.49,10.98-19.47,13.7-34,.98-5.22,8.79-51.42-18.08-65.87-4.61-2.48-9.74-3.73-15.28-3.73-8.04,0-14.36,2.65-16.12,3.47-16.2,7.55-25.79,27.55-21.37,44.59,1.83,7.08,5.53,10.9,8.51,13.98,2.54,2.63,4.55,4.71,6.41,9.78,1.49,4.08,3.19,8.71,1.88,11.94-.4.98-.73,1.31-2.95,2.88-2.99,2.11-7.51,5.31-10.43,12.16-3.66,8.59-4.09,21.7,3.59,30.18,3.36,3.71,7.16,5.24,9.9,6.11-2.76.86-6.38,2.42-9.53,6.12-5.71,6.72-8.02,18.98-1.04,28.48,1.12,1.53,2.43,2.89,3.9,4.08-.63,1.18-4.79,9.42-1.06,18.82,4.05,10.18,13.93,13.07,15.04,13.37-3.45,1.49-6.9,2.97-10.36,4.46,3.19,2.49,9.8,6.93,19.15,8.19,3.06.41,19.26,2.59,30.17-9,6.69-7.11,11.77-19.7,6.71-29.58-1.56-3.04-3.86-5.63-6.69-7.66Zm-7.68,30.45c-8.97,10.1-23.69,8.45-25.73,8.19.93-.04,7.92-.46,12.28-6.43,3.23-4.42,3.03-9.17,2.92-10.53-10.98,6.71-23.42,1.98-26.32-5.26-2.57-6.43,1.64-16.69,11.7-21.05-5.9,2.28-12.42.5-15.79-4.09-3.72-5.07-2.55-12.1.58-15.79,3.86-4.54,9.28-2.34,12.28-7.02,2.04-3.18,1.92-7.93,0-11.11-3.04-5.03-8.63-2.92-12.87-7.6-4.37-4.83-4.23-13.47-1.75-19.3,3.52-8.28,10.28-7.36,13.45-15.2,2.79-6.89.18-14.02-1.75-19.3-4.95-13.54-12.18-13.4-14.62-22.81-2.91-11.22,3.36-26.96,15.79-32.75.89-.41,12.11-5.44,22.22,0,20.6,11.08,13.22,53.05,12.87,54.97-2.57,13.76-8.78,24.89-12.28,30.41-3.36,5.3-6.74,9.4-9.36,12.28,1.84,1.04,4.74,3.01,7.02,6.43,5.04,7.58,2.96,16.16,2.34,18.71-2.73,11.27-11.97,16.93-14.04,18.13,1.53-.33,6.91-1.29,12.28,1.75,1.52.86,5.93,3.37,7.02,8.19,1.12,4.96-1.7,10.61-7.02,14.04,6.23-.05,11.75,2.56,14.04,7.02,3.97,7.73-3.99,16.7-5.26,18.13Z"/>
      <path class="cls-53" d="m1492.38,825.08c-8.97,10.1-23.69,8.45-25.73,8.19.93-.04,7.92-.46,12.28-6.43,3.23-4.42,3.03-9.17,2.92-10.53-10.98,6.71-23.42,1.98-26.32-5.26-2.57-6.43,1.64-16.69,11.7-21.05-5.9,2.28-12.42.5-15.79-4.09-3.72-5.07-2.55-12.1.58-15.79,3.86-4.54,9.28-2.34,12.28-7.02,2.04-3.18,1.92-7.93,0-11.11-3.04-5.03-8.63-2.92-12.87-7.6-4.37-4.83-4.23-13.47-1.75-19.3,3.52-8.28,10.28-7.36,13.45-15.2,2.79-6.89.18-14.02-1.75-19.3-4.95-13.54-12.18-13.4-14.62-22.81-2.91-11.22,3.36-26.96,15.79-32.75.89-.41,12.11-5.44,22.22,0,20.6,11.08,13.22,53.05,12.87,54.97-2.57,13.76-8.78,24.89-12.28,30.41-3.36,5.3-6.74,9.4-9.36,12.28,1.84,1.04,4.74,3.01,7.02,6.43,5.04,7.58,2.96,16.16,2.34,18.71-2.73,11.27-11.97,16.93-14.04,18.13,1.53-.33,6.91-1.29,12.28,1.75,1.52.86,5.93,3.37,7.02,8.19,1.12,4.96-1.7,10.61-7.02,14.04,6.23-.05,11.75,2.56,14.04,7.02,3.97,7.73-3.99,16.7-5.26,18.13Z"/>
      <path class="cls-60" d="m1472.77,764.37c1.99-5.3,1.52-11.71-1.45-16.62-3.23-5.35-8.09-6.79-10.99-7.65-1.84-.55-2.4-.76-2.82-1.22-1.68-1.85-1.82-7-.29-10.59.83-1.96,1.8-2.7,4.11-4.33,2.92-2.06,6.92-4.89,9.39-11.01,3.97-9.81.45-19.43-1.65-25.18-3.2-8.75-7.4-13.09-10.47-16.26-2.45-2.53-3.33-3.53-3.92-5.79-1.92-7.43,2.6-19.21,11.32-23.27.05-.02,3.81-1.74,8.34-1.74,2.45,0,4.66.52,6.55,1.53,12.85,6.92,10.52,36.45,8.69,46.26-2.29,12.28-7.97,22.52-11.15,27.53-2.5,3.94-5.36,7.7-8.51,11.17l-6.89,7.6,8.93,5.04c1.77,1,3.2,2.29,4.22,3.84,3.05,4.59,1.66,10.36,1.2,12.25-.86,3.55-2.71,6.37-4.64,8.48Z"/>
      <path class="cls-53" d="m1455.31,646.27c12.82,11.91,20.47,28.48,21.45,45.14-3.01-16.42-12.48-31.12-25.36-40.41l3.91-4.74h0Z"/>
      <path class="cls-53" d="m1465.22,636.52c16.96,18.42,22.35,45.52,14.62,68.07,5.77-23.14-2.2-48.49-18.95-63.73l4.34-4.35h0Z"/>
      <path class="cls-43" d="m1577.17,288.09c-9.56-29.46-37.56-51.16-68.09-52.78-1.25-.07-2.47-.1-3.69-.1-4.74,0-9.21.5-13.4,1.31-12.77-25.19-36.88-41.63-62.22-41.63-4.2,0-8.38.47-12.43,1.38-6.35,1.44-11.94,3.94-16.82,6.99-10.86-4.77-22.37-7.28-33.63-7.28-14.55,0-27.82,4.1-38.38,11.86-16.29,11.97-25.88,32.27-26.33,55.7-.42,22.04,7.81,42.47,21.46,53.32,7.83,6.23,17.68,9.71,29.3,10.42.31.45.64.89.97,1.33-7.19,26.08-19.4,40.17-19.52,40.31l-6.76,7.55,9.81,2.5c.77.2,77.85,20.34,118.24,59.29l7.46,7.19,2.73-10c5.81-21.29,13.87-38.12,19.62-48.51,6.23,1.5,12.57,2.27,18.96,2.27,10.89,0,21.26-2.19,30.81-6.51,34.92-15.78,53.72-58.23,41.91-94.62Z"/>
      <path class="cls-50" d="m1406.5,391.5c3.6,1.72,7.23,3.54,10.85,5.44,1.43-12.44,1.88-24.68,5.38-35.4l-16.23,29.96Z"/>
      <path class="cls-50" d="m1372.07,377.11c2.48.91,5.1,1.9,7.77,2.93v-16.56l-7.77,13.63Z"/>
      <path class="cls-50" d="m1445.34,393.96s-.09.07-.13.11l-8.15,14.29c2.75,1.77,5.45,3.6,8.1,5.48,2.73-5.75-1.59-12.81.18-19.88Z"/>
      <path class="cls-48" d="m1431.66,342.7c-.31-.85-.61-1.7-.88-2.57-9.88,6.09-21.23,9.43-32.69,9.43-1.73,0-3.47-.07-5.16-.22-10.86-.91-20.98-4.76-29.13-10.86-4.68,14.4-10.54,24.85-14.6,31.04,2.97.88,6.73,2.05,11.08,3.49l9.08-15.91,10.67,6.09-.17.3v16.56c4.92,1.9,10.09,4,15.45,6.34l16.93-31.24,10.8,5.85-.3.55c-3.5,10.72-3.95,22.96-5.38,35.4,3.08,1.62,6.15,3.29,9.2,5.04l9.28-16.27,10.67,6.09-1.29,2.27s.09-.06.13-.11c-1.19,4.78.39,9.55.7,13.92,6.42-9.72,10.93-20.98,14.22-31.58-13.41-8.48-23.73-20.43-28.61-33.59Z"/>
      <path class="cls-50" d="m1472.65,382.76c-4.36-1.82-8.5-4.01-12.39-6.47-3.3,10.6-7.8,21.86-14.22,31.58.15,2.1,0,4.1-.88,5.96,4.03,2.85,7.94,5.82,11.65,8.94,5.27-16.58,11.51-29.99,16.73-39.66-.3-.12-.6-.23-.9-.35Z"/>
      <path class="cls-50" d="m1330.82,306.84c.16.13.31.28.47.41,4.17,3.32,9.23,5.59,15.1,6.82-.99-1.86-6.54-12.69-2.24-25.53,2.95-8.82,9.05-14.14,13.88-17.14-15.29,2.27-25.34,19.65-27.21,35.44Z"/>
      <path class="cls-48" d="m1547.68,350.97c8-5.72,14.08-13.99,18.61-23.38,3.02-11.63,2.98-24.04-.8-35.71-8.02-24.73-31.49-42.95-57.05-44.3-1.47-.08-2.81-.08-3.04-.08-19.97.09-34.58,11.29-42.99,19.54-.16-1.35-.31-3.57,0-6.24-2.68-11.28,2.4-23.29,9.7-32.32-11.12-13.23-26.45-21.3-42.27-21.3-3.3,0-6.59.37-9.78,1.09-6.83,1.55-12.58,4.69-17.34,8.42l-.55,1.05-.44-.23c-10,8.26-15.32,18.93-16.62,21.81-2.21,4.17-4.41,8.35-6.62,12.52-.3-1.32-.64-3.22-.86-5.49-8.44-12.02-8.28-26.84-.76-37.3-3.34-.51-6.69-.79-10-.79-11.89,0-22.64,3.28-31.09,9.49-12.98,9.54-20.95,26.75-21.32,46.04-.34,18.02,5.92,34.43,16.35,43.07,1.87-15.78,11.92-33.16,27.21-35.44,3.33-2.07,6.06-3.05,6.72-3.27l-1.09,1.73c-10.66,16.88-10.37,38.37.7,52.24,6.8,8.52,17.58,13.98,29.59,14.99,1.36.11,2.74.17,4.11.17,6.08,0,11.98-1.14,17.56-3.27-7.08-19.74,9.71-32.88,24.82-40.91,3.36-2.66,6.59-4.16,8.52-4.93-1.71,4.77-3.43,9.53-5.14,14.3-1.51,4.53-2.91,10.19-3.31,16.39,0,0-.25,5.45.86,12.12,27.16,27.7,71.34,41.38,106.31,20.01Z"/>
      <path class="cls-50" d="m1547.68,350.97c-34.97,21.37-79.15,7.69-106.31-20.01.4,2.4.97,4.95,1.8,7.47,6.82,20.77,33.79,38.57,61.29,38.51,4.73-.01,14.59-.37,25.75-5.42,18.19-8.22,31.18-25.05,36.09-43.94-4.53,9.4-10.61,17.67-18.61,23.38Z"/>
      <path class="cls-50" d="m1377.63,246.33c-.44-4.56-.34-10.74,1.88-17.61,2.67-8.23,7.2-13.75,9.92-16.61-4.15-1.41-8.35-2.44-12.56-3.09-7.53,10.47-7.69,25.28.76,37.3Z"/>
      <path class="cls-50" d="m1462.41,260.79c.26-2.31.86-4.95,2.13-7.72.9-1.96,3.13-6.68,8.36-10.12,2.71-1.78,5.31-2.62,7.07-3.03-2.28-4.15-4.93-7.97-7.86-11.45-7.29,9.03-12.37,21.04-9.7,32.32Z"/>
      <path class="cls-50" d="m1434.27,299.56c1.92-2.69,4.07-4.81,6.17-6.47-15.1,8.03-31.9,21.17-24.82,40.91,4.46-1.7,8.72-4.02,12.66-7-.36-2.63-.62-6.39-.05-10.82.45-3.54,1.38-10.1,6.03-16.63Z"/>
      <path class="cls-59" d="m1511.48,571.81c-2.91-10.75-8.04-18.38-14.53-20.47-23.2,26.63-27.64,71.3-13.3,103.77,13.49,1.16,26.83-20.9,29.9-49.53,1.35-12.61.47-24.38-2.07-33.77Z"/>
      <path class="cls-57" d="m1496.95,551.34c-.12-.04-.23-.09-.35-.12-.68-.2-1.37-.33-2.07-.41-13.57-1.45-27.08,20.71-30.15,49.51-.33,3.03-.53,6.02-.59,8.94-4.83-8.19-8.74-18.93-10.89-30.99-.39-2.11-.7-4.22-.94-6.28-.2.16-.09-2.03-.3-1.89.04-2.48-.26-2.59-.3-5.05v-.12c-.02-1.08-.04-2.15-.1-3.21,0-.35-.02-.68-.04-1.02v-.18c-1.72-39.67-15.82-75.59-38.25-101.6-.02-.04-.04-.06-.06-.08-14.08-16.99-32.88-29.78-54.37-37.8,57.29,51.17,95.44,134.45,54.06,202.17-22.51,34.8-38.89,69.59-57.31,104.39-21.1,43.82-67.93,54.18-111.94,64.76,21.96,5.09,45.88,5.62,70.04.99,12.85-2.46,25.77-6.37,38.48-11.83,26.74-11.47,49.19-28.28,66.17-48.12,6.03-7.04,12.27-13.89,18.94-20.32,4.39-4.24,8.63-8.64,12.71-13.18,1.15-1.56,2.2-3.19,3.21-4.84-6.98-8.49-10.64-18.82-9.76-31.01-.5-1.78-.74-3.7-.5-5.86,1.12-10.28,8.09-17,13.82-24.75,2.47-3.34,7.27-3.6,9.73-1.01-.15-4.22-.42-6.76-.42-6.76,4.09,24.85,17.62,29.43,17.62,29.43.08,0,.17,0,.25.01-14.33-32.46-9.9-77.13,13.3-103.77Z"/>
      <path class="cls-59" d="m1355.28,727.59c18.42-34.8,34.8-69.59,57.31-104.39,41.39-67.72,3.24-151-54.06-202.17-37.66-14.06-83.6-13.43-127.1,5.23-11.26,4.83-17.93,13.44-27.6,20.01-4.91,9.17-13.07,15.85-16.84,25.63-10.97,28.49-16.99,59.44-16.99,91.78,0,10.32.61,20.51,1.8,30.5-9.05,12.51-16.07,25.97-20.75,39.87-9.72,28.59-9.7,59.05,2.27,86.97,11.11,25.93,30.95,45.93,55.69,58.78,10.63,5.53,22.18,9.72,34.33,12.54,44-10.58,90.84-20.94,111.94-64.76Zm-23.35-281.09c9.21-5.24,27.29,10.62,35.79,20.47,7.54,8.73,11.7,17.54,14.04,23.68-4.29.58-8.58,1.17-12.87,1.75-5.07-5.5-12.36-12.27-22.22-18.42-7.5-4.68-14.58-7.81-20.47-9.94-.22-13.31,4.07-16.6,5.73-17.54Zm-44.6,117.41c-.61-2.54-.84-4.33-.9-4.81l-.03-.34c-.45-5.68-.37-11.48.25-17.27,3.53-33.04,23.23-57.96,45.84-57.96,1.09,0,2.19.06,3.26.17,12.27,1.31,22.69,9.64,29.32,23.45,5.85,12.19,8.15,27.6,6.46,43.39-.44,4.13-1.16,8.26-2.14,12.27-.14,1.09-.33,2.17-.55,3.23l-.21,1.04c4.79,2.08,8.53,4.05,10.85,5.35-17.33-1.15-34.93-1.88-52.29-2.15-5.44-.09-10.96-.13-16.39-.13-12.13,0-24.43.22-36.55.64,3.17-1.95,7.68-4.51,13.08-6.86v-.04Zm-83.2-87.95c6.57-8.57,20.55-22.38,27.67-17.82,1.28.82,4.6,3.69,4.43,15.27-4.55,1.85-10.02,4.58-15.82,8.65-7.62,5.36-13.26,11.25-17.18,16.04-3.31-.51-6.63-1.02-9.94-1.53,1.8-5.35,5.02-13.02,10.85-20.62Zm-16.76,90.83c2.39-1.88,4.88-3.48,7.41-4.85-.66-2.87-.92-5.08-1-5.91-.29-4.8-.24-9.51.14-14.09,2.2-26.78,14.82-46.98,29.34-46.98.76,0,1.52.05,2.27.16,13.24,1.84,22.62,19.96,22.97,44.15l.03,1.39h0s-.15.68-.15.68c-.38,1.74-.8,3.44-1.27,5.11-.03.1-.06.19-.09.29-1.4,5.01-3.17,9.71-5.28,14.11,0,0,0,0,0,.01l-.65,1.35h-.03c-.56,1.11-1.14,2.2-1.75,3.27l-.43.86-.44.63c-1.8,3-3.77,5.85-5.95,8.5-2.94,3.57-5.81,6.34-8.34,8.78-.73.7-1.41,1.36-2.04,1.99-3.81,3.79-4.45,5.25-4.33,6.75.2,2.47,2.4,5.54,5.88,8.22,5.19,4,12.22,6.39,18.81,6.39,1.88,0,3.35-.22,4.3-.36,10.95-1.69,24.56-7.87,31.79-11.4l-.99,1.79c-2.39,4.32-11.54,18.67-28.66,21.7-2.09.37-4.28.56-6.49.56-9.3,0-18.87-3.26-26.25-8.95-6.35-4.89-10.12-10.91-10.62-16.94-.6-7.34,3.77-12.35,7.91-16.47.68-.68,1.4-1.37,2.15-2.09,2.31-2.23,4.91-4.74,7.41-7.77.09-.11.17-.23.26-.34-15.39.93-34.16,3.07-34.4,3.1l-7.16.82,5.66-4.46Zm147.33,100.19c-.21-1.84-1.27-9.83-6.92-16.91-1.49,13.27-5.69,26.04-12.31,37.16-5.44,9.14-19.88,33.41-46.18,37.53-2.5.39-5.06.59-7.59.59-22.53,0-40.16-15.45-48.63-22.88-11.25-9.87-20.28-22.66-26.11-37l-1.27-3.13,3.36.32c.79.07,1.58.13,2.37.2,5.59-.32,11.1-1.25,16.39-2.76,5.45-1.56,8.18-2.34,10.64-3.92l.79-.52c1.62-1.08,4.07-2.72,7.66-4.06l.24-.09c.68-.26,1.94-.76,3.45-1.04,1.51-.28,3.13-.43,4.82-.43,8,0,15.86,3.15,19.15,4.65,4.56-4.19,9.57-6.93,14.93-8.13,1.9-.43,3.73-.64,5.58-.64,2.88,0,5.5.49,8.55,1.05,2.2.41,4.7.88,7.67,1.21,2.73.31,5.16.45,7.88.45,1.29,0,2.63-.03,4.08-.08,4.74-.17,9.5-.74,14.14-1.68,1.72-.61,3.44-1.24,5.15-1.88-6.27-4.64-12.42-4.91-14.11-4.92,2.01-.33,9.6-1.34,16.58,3.37,7.28,4.91,11.02,14.08,9.68,23.54Z"/>
      <path class="cls-57" d="m1207.33,498.35c3.92-4.79,9.55-10.68,17.18-16.04,5.8-4.07,11.27-6.8,15.82-8.65.17-11.59-3.14-14.45-4.43-15.27-7.12-4.56-21.09,9.24-27.67,17.82-5.83,7.6-9.04,15.27-10.85,20.62,3.31.51,6.63,1.02,9.94,1.53Z"/>
      <path class="cls-57" d="m1338.55,449.05c-1.66.94-5.95,4.23-5.73,17.54,5.89,2.13,12.97,5.26,20.47,9.94,9.86,6.15,17.15,12.92,22.22,18.42,4.29-.58,8.58-1.17,12.87-1.75-2.33-6.14-6.5-14.96-14.04-23.68-8.51-9.85-26.59-25.71-35.79-20.47Z"/>
      <path class="cls-43" d="m1281.16,801.62c-21.95,0-44.34-4.24-63.82-12.29-32.87-13.59-57.05-37.53-69.93-69.23-26.13-64.34,11.48-117.67,19.21-127.62-.44-11.48-2.2-68.71,5.35-90.81,9.46-27.67,48.82-116.18,158.18-93.37,47.82,9.98,82.85,34.26,104.1,72.16,12.66,22.58,19.88,48.65,22.08,79.69.78,11.08,2.47,20.1,4.34,27.17,5.28-27.16,20.19-41.63,33.87-41.63,16.01,0,24.13,20.15,24.13,59.89,0,37.27-21.04,54.63-35.27,54.63-11.91,0-18.17-16.24-20.59-24.6-1.48.3-2.9.98-4.29,2.04-5.3,4.05-9.44,13.36-10.81,24.31-1.97,15.8,8.74,30.74,8.84,30.89l2.36,3.25-2.59,3.08c-64.84,76.46-102.42,93.99-153.05,100.96-7.23,1-14.65,1.49-22.11,1.49Zm-105.43-204.15c-.65.78-44.8,54.83-18.83,118.77,28.45,70.05,104.5,79.32,144.98,73.75,47.43-6.53,82.99-23.06,144.18-94.55-3.68-6.17-10.37-19.8-8.51-34.75,1.74-13.99,7.12-25.35,14.75-31.18,4.54-3.46,9.78-4.89,15.17-4.11l3.49.5.78,3.43c2.23,9.76,7.56,20.64,11.66,20.64,8.73,0,25.03-13.02,25.03-44.39s-5.19-49.66-13.9-49.66c-9.61,0-24.39,15.59-25.55,49.06-.1,2.9-2.15,5.34-5,5.93-2.85.6-5.7-.83-6.95-3.44-3.34-7.01-9.21-22.37-10.92-46.6-5.53-78.3-46.35-127.6-118.06-142.55-98.37-20.53-135.16,53.77-146.41,86.66-7.61,22.28-4.76,88.31-4.73,88.97l.09,1.99-1.29,1.53Z"/>
      <path class="cls-55" d="m1201.51,668.38c.77.02,1.57.03,2.36.04-.32-.07-.63-.16-.93-.27-.48.07-.93.16-1.42.22Z"/>
      <path class="cls-47" d="m1227.44,585.15c-1.75,1.23-3.34,2.68-3.13,4.44.13,1.12,1.05,2.05,2.12,2.42s2.25.28,3.34,0c4.82-1.22,8.1-5.55,10.98-9.61,1.75-2.46,3.52-4.94,4.69-7.73s1.72-5.92.95-8.84c-.26-.97-.76-2.01-1.71-2.34-2.15-.74-5.53,9.29-6.45,10.78-1.97,3.19-4.47,6.05-7.31,8.49-.8.69-2.19,1.48-3.48,2.38Z"/>
      <path class="cls-43" d="m1486.96,586.81c-2.51,4.15-5.94,11.18-6.37,20.24-.49,10.35,2.97,22.57,6.82,22.74,1.79.08,4.34-2.41,7.73-13.42-4.04,2.29-6.27,1.97-7.5,1.36-7.47-3.67-1.21-28.86-.68-30.93Z"/>
      <g>
        <path class="cls-43" d="m1203.24,498.1c3.92-4.79,9.55-10.68,17.18-16.04,5.8-4.07,11.27-6.8,15.82-8.65.17-11.59-3.14-14.45-4.43-15.27-7.12-4.56-21.09,9.24-27.67,17.82-5.83,7.6-9.04,15.27-10.85,20.62,3.31.51,6.63,1.02,9.94,1.53Z"/>
        <path class="cls-43" d="m1328.67,641.85c-3.81-2.73-8.95-3.37-9.32-3.41-5.09-.58-9.07.84-10.9,1.63,1.69.02,7.83.28,14.11,4.92-1.71.64-3.43,1.27-5.15,1.88-4.64.94-9.4,1.51-14.14,1.68-1.46.05-2.79.08-4.08.08-2.72,0-5.15-.14-7.88-.45-2.97-.34-5.47-.8-7.67-1.21-3.04-.57-5.67-1.05-8.55-1.05-1.85,0-3.68.21-5.58.64-5.36,1.21-10.37,3.94-14.93,8.13-3.28-1.5-11.15-4.65-19.15-4.65-1.69,0-3.31.14-4.82.43-1.5.28-2.77.78-3.45,1.04l-.24.09c-3.59,1.34-6.04,2.97-7.66,4.06l-.79.52c-2.45,1.58-5.19,2.36-10.64,3.92-5.29,1.51-10.81,2.44-16.39,2.76-.79-.07-1.58-.12-2.37-.2l-3.36-.32,1.27,3.13c5.83,14.34,14.86,27.14,26.11,37,8.47,7.43,26.1,22.88,48.63,22.88,2.53,0,5.09-.2,7.59-.59,26.3-4.12,40.74-28.39,46.18-37.53,6.62-11.12,10.82-23.9,12.31-37.16,5.65,7.08,6.71,15.07,6.92,16.91,2.72-10.51.27-20.61-6.04-25.13Z"/>
        <path class="cls-43" d="m1368.64,567.09l.21-1.04c.22-1.07.4-2.14.55-3.23.98-4.02,1.7-8.14,2.14-12.27,1.69-15.79-.61-31.2-6.46-43.39-6.63-13.81-17.05-22.14-29.32-23.45-1.08-.12-2.17-.17-3.26-.17-22.6,0-42.31,24.92-45.84,57.96-.62,5.79-.7,11.59-.25,17.27l.03.34c.06.49.29,2.27.9,4.81v.04c-5.39,2.35-9.9,4.91-13.07,6.86,12.12-.43,24.42-.64,36.55-.64,5.44,0,10.96.04,16.39.13,17.36.28,34.95,1,52.29,2.15-2.33-1.29-6.07-3.26-10.85-5.35Z"/>
        <path class="cls-43" d="m1331.94,446.49c-1.66.94-5.95,4.23-5.73,17.54,5.89,2.13,12.97,5.26,20.47,9.94,9.86,6.15,17.15,12.92,22.22,18.42,4.29-.58,8.58-1.17,12.87-1.75-2.33-6.14-6.5-14.96-14.04-23.68-8.51-9.85-26.59-25.71-35.79-20.47Z"/>
        <path class="cls-43" d="m1188.89,570.43c.24-.03,19.01-2.17,34.4-3.1-.09.11-.17.23-.26.34-2.5,3.03-5.1,5.55-7.41,7.77-.75.72-1.47,1.41-2.15,2.09-4.14,4.12-8.51,9.12-7.91,16.47.5,6.03,4.27,12.04,10.62,16.94,7.38,5.69,16.94,8.95,26.25,8.95,2.21,0,4.39-.19,6.49-.56,17.12-3.03,26.26-17.37,28.66-21.7l.99-1.79c-7.23,3.52-20.83,9.7-31.79,11.4-.95.15-2.42.36-4.3.36-6.59,0-13.62-2.39-18.81-6.39-3.48-2.68-5.67-5.75-5.88-8.22-.12-1.5.51-2.95,4.33-6.75.64-.63,1.31-1.29,2.04-1.99,2.53-2.44,5.4-5.21,8.34-8.78,2.18-2.65,4.15-5.5,5.95-8.5l.66.02.21-1.51c.61-1.07,1.19-2.16,1.75-3.27h.03s.65-1.35.65-1.35c0,0,0,0,0-.01,2.12-4.4,3.89-9.1,5.28-14.11.03-.1.06-.19.09-.29.46-1.67.89-3.37,1.27-5.11l.15-.67h0s.29-1.33.29-1.33l-.32-.07c-.35-24.19-9.74-42.31-22.97-44.15-.75-.1-1.51-.16-2.27-.16-14.53,0-27.14,20.2-29.34,46.98-.38,4.58-.42,9.29-.14,14.09.08.83.34,3.04,1,5.91-2.53,1.38-5.02,2.97-7.41,4.85l-5.66,4.46,7.16-.82Z"/>
      </g>
      <g>
        <path class="cls-44" d="m1334.45,495.91c-.65-.07-1.31-.1-1.96-.1-16.04,0-30.81,20.64-33.63,46.98-.54,5.03-.61,10.07-.22,14.96.01.12.11.89.35,2.06,3.41-.93,7-1.65,10.69-2.03,1.59-.16,3.99-.34,6.81-.45-.14-.63-.21-1.08-.23-1.26-.27-3.02-.24-6.19.16-9.44,2.15-17.72,13.99-31.14,26.44-29.97,7.28.68,13.13,6.22,16.33,14.22-.85-6.71-2.57-12.98-5.18-18.41-4.72-9.84-11.67-15.72-19.56-16.56Z"/>
        <path class="cls-44" d="m1333.61,529.75c-2.26-.89-5.25,1.3-6.67,4.9-1.42,3.6-.73,7.24,1.53,8.13,2.26.89,5.25-1.3,6.67-4.9,1.42-3.6.73-7.24-1.53-8.13Z"/>
      </g>
      <g>
        <path class="cls-44" d="m1211.3,543.23c1.33-12.27,8.67-21.55,16.39-20.74,2.91.31,5.46,2,7.43,4.66-2.27-12.72-7.5-19.34-11.27-19.87-.19-.03-.38-.04-.57-.04-5.92,0-15.29,13.58-17.1,35.71-.33,3.98-.38,8.01-.15,11.98.02.23.11,1.04.32,2.23,2.3-.69,4.55-1.22,6.72-1.64-1.47-2.78-1.81-5.33-1.86-5.75-.17-2.09-.15-4.28.1-6.53Z"/>
        <path class="cls-44" d="m1223.64,529.16c-2.26-.89-5.25,1.3-6.67,4.9-1.42,3.6-.73,7.24,1.53,8.13,2.26.89,5.25-1.3,6.67-4.9,1.42-3.6.73-7.24-1.53-8.13Z"/>
      </g>
      <g>
        <path class="cls-44" d="m1254.02,692.68c-3.09.18-6.24.27-9.38.27-7.9,0-15.79-.61-23.61-1.76,4.68,4.15,10.22,7.88,15.42,12.12,6.26,2.14,12.91,3.3,19.73,3.3,2.52,0,5.06-.16,7.56-.47,9.7-1.21,18.66-4.71,26.41-9.91,3.21-3.68,5.9-7.63,7.36-12.18-14.03,4.84-28.57,7.78-43.48,8.64Z"/>
        <path class="cls-46" d="m1214.17,690.04c6.4,5.89,14,10.44,22.27,13.26-5.19-4.24-10.74-7.97-15.42-12.12-2.29-.34-4.58-.71-6.85-1.14Z"/>
        <path class="cls-46" d="m1306.07,680.85c-2.83,1.16-5.69,2.2-8.57,3.19-1.46,4.56-4.14,8.5-7.36,12.18,6.17-4.14,11.57-9.36,15.93-15.38Z"/>
        <path class="cls-46" d="m1201.51,673.82c.5.96,1.07,1.94,1.72,2.94,2.95,4.53,6.51,7.67,9.54,9.81,1.32.21,2.76.42,4.24.62-3.31-3.69-5.75-7.88-6.71-13.05-2.92-.07-5.85-.17-8.78-.32Z"/>
        <path class="cls-44" d="m1306.6,661.17c-10.25,3.08-20.65,5.63-31.11,7.62-19,3.61-38.48,5.45-57.9,5.45-2.43,0-4.87-.04-7.31-.09.96,5.17,3.41,9.36,6.71,13.05,6.89.94,15.4,1.7,25.18,1.65,9.31-.04,16.26-.78,21.53-1.36,10.65-1.17,20.05-2.26,31.54-6.22,1.82-.63,3.5-1.26,5.06-1.88,4.19-5.88,6.88-11.06,6.3-18.21Z"/>
        <path class="cls-46" d="m1306.6,661.17c.58,7.15-2.11,12.33-6.3,18.21,2.84-1.14,5.23-2.23,7.07-3.12,2.48-2.84,5.49-7.04,7.54-12.71.71-1.96,1.2-3.81,1.54-5.52-3.27,1.1-6.55,2.14-9.85,3.13Z"/>
      </g>
      <path class="cls-52" d="m1243.79,656.62c-3.3-.36-6.74-.24-10.21.71-4.23,1.16-6.14,2.85-11.57,5.29-4.56,2.05-10.9,4.29-19.08,5.54.31.1.62.19.93.27,2.17.05,4.39.07,6.66.07,1.27-.13,2.47-.27,3.53-.27,10.47-2.99,19.86-9.25,29.74-11.61Z"/>
      <path class="cls-55" d="m1290.85,653.82c-7.91-1.02-11.05-2.78-16.98-2.43-8.18.48-14.69,4.56-19.1,8.19-3.33-1.41-7.06-2.53-10.97-2.97-9.88,2.36-19.27,8.61-29.74,11.61-1.06,0-2.26.14-3.53.27,13.51.02,28.66-.72,45.15-2.85,18.31-2.36,34.64-5.96,48.78-9.9-15.9.21-32.71-5.11-47.42,2.24,14.71-7.35,31.52-2.03,47.42-2.24,2.82-.78,5.58-1.58,8.22-2.38-9.36,1.51-16.78,1.11-21.83.45Z"/>
      <path class="cls-55" d="m1300.08,695.68c-.18.17-.33.34-.52.52-13.83,12.9-30.17,15.11-35.02,15.69-20.8,2.51-36.57-6.01-41.73-9.1.51.55,1.37,1.44,2.54,2.53,25.23,17.68,55.86,14.03,74.73-9.64Z"/>
      <path class="cls-52" d="m1300.08,695.68c-18.87,23.67-49.5,27.32-74.73,9.64,5.16,4.78,16.56,13.43,32.94,14.19,14.35.67,24.84-5.07,28.31-7.16,14.66-8.82,20.13-22.32,21.61-26.38-1.73,2.63-4.39,6.13-8.12,9.72Z"/>
    </g>
  </g>
  <g>
    <g>
      <path class="cls-51" d="m566.4,494.07l-.84,3.29v1.2l.48.65-.24,1.69-4.48-.2-.6.1h-17.26l-.42-1.05-.42-3.14v-10.66l.24-.3,2.51-.1h3.88v2.34l.42.5-.36.25v4.53l-.18.4.3,2.14h10.45l-.66-8.87-16.78-6.68v-15.6h9.44l.3-.2,1.02.1.24.2,1.91-.3.3.3,1.85-.4.96.05.18.25,4.54-.3.3.3,1.37.35.24,2.19-.36.15.72.85v1.39l-.24.35.42.65v8.57l-6.03-.45-.54-1.59v-6.68l-1.08-.1-2.81.15h-6.57v1.94l.36.5-.24.55v1.2l.24.2-.18.45v1.05l.78.5,13.8,5.98v.4l2.69,1v.35l-.3.15.36,7.13-.36,1.44.42.2.06.55.18.1Z"/>
      <path class="cls-51" d="m561.3,547.99l-1.97-6.88h-9.86l-1.37,6.63h-5.56l4.36-26.81.3-.1.72-3.39,1.13-3.24.3-2.89h5.73l2.45-.15.42,1.1-.06,1.1.36.25,1.25,3.69,1.55,5.73,3.29,14.7,1.97,10.26h-5.02Zm-3.23-12.76l-4.12-15.65v3.54l-2.87,12.11h6.99Z"/>
      <path class="cls-51" d="m566.73,594.94h-24.07v-30.2l-.3-5.38-.24-1.1h6.81l-.36,2.59v1.64l.96.05v11.96l.48.45v9.57l-.24,3.14-.3,1.15.42.25.06.3,8.84-.3.12-.45.36.05.3.25h7.17v6.03Z"/>
      <path class="cls-51" d="m565.51,605.21v1.64l-.9,8.87h-6.33v-4.98h-7.65l-.78,1.3v22.67l.54,1.25,1.02.2h3.34l.48.65,1.31-.65.42.2h.96l.36-.15v-9.32h-4.96v-6.63h11.65v21.43h-21.62v-36.47h22.16Z"/>
      <path class="cls-51" d="m566.31,688.38l-.24.2h-1.31l-3.17-.4-.78.1-1.25-1.1.12-1.89-.48-.25v-.4l.3-.25-1.08-1.44.3-.75-1.91.4-1.49-.1-4.42.15-.6-.65-.66,1.44-.96,3.24-.24,1.74-5.91-.45,2.27-15.7,2.63-11.61.6-1.54v-2.09l.42-.4v-1.44l.6-.95.36-2.29,8.3.3.24,1.89.48,1.3.6,1,.3.2v2.04l.72,1-.12,1.1.42-.05,1.25,5.13.54.6.78,3.84.78,2.39-.18.4,1.19,3.74.36,1.79.12,1.74.6.95v.25l-.3.4.24.55.36,3.19.24,2.69Zm-11.71-27.11h-.72l-1.55,11.81h.54v.3l-.96,1.74-.54,1.59,1.25-.2,4.78-.25-2.81-15Z"/>
      <path class="cls-51" d="m567.57,718.64v.3l-.42.2v7.17l-.12,1,.36.45-.3,1.35-.18,1.89.3.4v1.69l-2.21,2.24-2.45,1.3h-20.61l-.18-.5-.36-2.84-.12-2.44.36-.3v-.3l3.94.25.3-.4-.12-1.35.12-.85-.18-.5v-1.59l.36-1.05-.78-.4v-.75l.96-.8-.54-.45v-9.87l-.54-1.4.48-2.19.24-2.69.36-1.2h-4.36l.18-.75v-1.84l-.18-1,.48-.45-.24-.35-.18-1.44h16.01l4.36-.35,4.18,3.79.54,7.22.36,2.74-.36.2.36.45-.42,1.25v2.84l.6,1.3Zm-7.65,10.91l-.42-4.63.36-.9-.9-2.99v-.75l.18-.45-.12-.05-.42-1.44.36-.2-.36-2.99v-9.72h-5.79l.72,2.49v8.17l-.18.3.3,3.49v10.66h6.15l.12-.5v-.5Z"/>
      <path class="cls-51" d="m565.54,774.45l.06.85-.18,2.14-.24.4.3.2-.48.2.18.55.54.8-.54.4.36.1-.3,1.39.24,2.84-.36-.05-.48-.4-.3.45h-.36l-.3-.4-.3.25-.48-.15h-2.69l-.72-.25v.25h-2.81l-2.87-.25-.18.3h-4.84l-3.88-.3-.18-.15-.3.25h-.48l-.9-9.77v-15.3l.36-1.59v-1.05l-.36-.3.42-.9v-.35l-.42-.2.36-.35-.48-7.18h20.79l1.02.45v7.32l.6.7-.06.6-.48,1.15.36.25-.24,2.34.48.25-.24,2.69.36.55v.75l-.54.35.72,1.15-.36.25.18.6-.18.45v1.2l.18.5-.24.3.18.6-.12.45.36.2-.24.55v3.54l.42.2-.36.2Zm-6.15-.35l-.18-2.84-.42-.7v-10.61l-.48-.15.42-.55v-5.13l.18-1.49h-9.62l.24,2.99-.24.4.3.1v.25l-.36.45.36,1v6.53l.36.35-.12.2-.42.2.9.45-1.02.7.66,3.29.18,4.58-.54.25.54.55v1.1l-.3,2.29.18.3,5.26-.3h3.88v-2.54l-.12-.6.36-.2v-.85Z"/>
      <path class="cls-51" d="m566.43,821.8v9.67h-23.29l-.36-.5v-.55l.3-.95v-13.6l.24-.2,1.97.2h4v10.21l.42.3h3.4l.42-.3.18.2h6.39l-.36-1.74v-6.53l-10.45-5.48-5.61-3.39h-.42l-.42-.95v-1.84l-.42-4.14v-7.42h16.19l7.05-.2v12.61l-.48.15-3.46-.15-1.79.15-.36-.3v-7.18l-.78-.4-1.79-.3h-1.02l-.48.45h-6.63v2.54l.36,3.34,12.6,6.88,4.54,2.24v6.98l.06.2Z"/>
    </g>
    <g>
      <path class="cls-58" d="m399.51,275.5l-1.18,4.17v26.72l-26.16,1.72,3.53,18.39,1.18.74,11.76,45.6-.88,2.94,9.99,40.95h-27.04l-31.45-109.84-4.11.74h-9.41l-4.7-.74h-3.23l2.65,51.24-1.76,3.43,1.76,5.39v2.7l-.88,2.21,1.76,8.34-2.65,1.47,2.65,3.19-2.94,9.07v14.96l.88,6.62h-31.15l.88-7.85v-81.89l-3.53-38,1.18-22.31v-26.23l.59-3.68h108.75l2.65,2.94-.88,2.7v33.34l1.76.98Zm-32.62-5.88l-.59-5.64h-49.08v11.52l49.08.98.59-6.87Z"/>
      <path class="cls-58" d="m522.05,289.16l-71.11-.09-1.18,10.54.88,7.85v20.1l-2.86,35.14h53.2l-1.47,17.41,1.18.98-.59,10.54-19.1-1.72h-29.39l-2.35,1.72-.67-2.28-1.47,9.32v17.16l1.76,1.47,12.05.49h56.43l2.44-1.49,2.27,25.76-6.17,1.96h-100.22l2.65-.98v-160.1l2.35-8.58v-11.03h73.48l11.46,1.47,2.65-1.47,4.41.74,6.99-.3,2.39,25.4Z"/>
    </g>
    <g>
      <path class="cls-58" d="m401.86,565.35l-.88,1v38.45l-2.35.75v13.98l1.18,7.24h-25.86l-53.2-109.84v109.09h-28.8l-3.23-15.73,1.76-1.5-5-44.69,1.47-4.99v-106.35l-1.47-7.49h22.63l1.47-1.25,3.53,1.25,6.76-1.25,5.88,19.72,4.11,3.49,9.11,20.22,3.23,1.5-1.47,1.5,5,8.49-.88,1.5,24.1,51.43,2.35,2.75v-12.98l-5-43.44,1.47-1.5v-23.72l-2.35-1.25,2.35-1.75v-24.71h30.86v60.66l2.35,2-1.76,3.74,2.35,3v43.69l.29,6.99Z"/>
      <path class="cls-58" d="m521.48,643.41l-1.2.98h-6.59l-15.87-1.96-3.89.49-6.29-5.39.44-6.79-2.23-3.76v-1.96l1.5-1.23.22-5.01,2.46-1.33h-2.73l-4.75-.49-22.16.74-4.41-1.09-1.88,2.77-4.79,15.94-1.2,8.58-29.65-2.21,11.38-77.23,13.18-57.13,2.99-7.6v-10.3l2.1-1.96v-7.11l3-4.66,1.8-11.28,19.67.7,7,9.85,2.4,6.37,2.99,4.9,1.5.98v10.05l3.59,4.9-.6,5.39,2.1-.25,6.29,25.25,2.7,2.94,3.89,18.88,3.89,11.77-.9,1.96,5.99,18.39,1.8,8.83.6,8.58,2.99,4.66v1.23l-1.5,1.96,1.2,2.7,1.8,15.69,1.2,13.24Zm-51.64-135.79h-2.72l-5.89,60.77h2.04v1.47l-3.63,8.58-.44,15.24,4.76-.98,18.13-1.23-12.24-83.86Z"/>
    </g>
    <g>
      <path class="cls-58" d="m498.25,846.88l-1.2.98h-6.59l-15.87-1.96-3.89.49-6.29-5.39.44-6.79-2.23-3.76v-1.96l1.5-1.23.22-5.01,2.46-1.33h-2.73l-4.75-.49-22.16.74-4.41-1.09-1.88,2.77-4.79,15.94-1.2,8.58-29.65-2.21,11.38-77.23,13.18-57.13,2.99-7.6v-10.3l2.1-1.96v-7.11l3-4.66,1.8-11.28,19.67.7,7,9.85,2.4,6.37,2.99,4.9,1.5.98v10.05l3.59,4.9-.6,5.39,2.1-.25,6.29,25.25,2.7,2.94,3.89,18.88,3.89,11.77-.9,1.96,5.99,18.39,1.8,8.83.6,8.58,2.99,4.66v1.23l-1.5,1.96,1.2,2.7,1.8,15.69,1.2,13.24Zm-51.64-135.79h-2.72l-5.89,60.77h2.04v1.47l-3.63,8.58-.44,15.24,4.76-.98,18.13-1.23-12.24-83.86Z"/>
      <path class="cls-58" d="m397.72,678.5l-3.82,3.14-13.81-2.42h-16.75l-5.29.72v46.88l1.18,8.46v59.2l.88,3.62v13.53l1.76,2.17-1.76.48v2.17l-1.47,3.14v5.8l1.47,3.62-3.53,2.42h-28.51l-1.76-2.17v-148.13h-39.65l1.18-5.07v-22.23l-2.35-4.11v-1.45l1.18-.97,27.33,2.42h26.43l3.53-.48,8.23.97,13.23-.48,2.06.97.88-1.21,2.35-.73,4.41.24,3.53,1.69h16.16l1.47,4.83v20.54l1.47,2.42Z"/>
    </g>
  </g>
  <g>
    <g id="COXINHA">
      <g class="cls-36">
        <g class="cls-37">
          <path class="cls-45" d="m1883.29,640.56c0-2.24-1.82-4.06-4.06-4.06s-4.06,1.82-4.06,4.06,1.82,4.06,4.06,4.06,4.06-1.82,4.06-4.06"/>
          <path class="cls-45" d="m1875.17,640.56s.16-3.5,4.06-7.01v7.01h-4.06Z"/>
          <path class="cls-45" d="m1883.29,640.56s-.16-3.5-4.06-7.01v7.01h4.06Z"/>
          <path class="cls-45" d="m1869.56,640.56c0-2.24-1.82-4.06-4.06-4.06s-4.06,1.82-4.06,4.06,1.82,4.06,4.06,4.06,4.06-1.82,4.06-4.06"/>
          <path class="cls-45" d="m1861.44,640.56s.16-3.5,4.06-7.01v7.01h-4.06Z"/>
          <path class="cls-45" d="m1869.56,640.56s-.16-3.5-4.06-7.01v7.01h4.06Z"/>
          <path class="cls-51" d="m1878.03,644.7c0-3.1-2.51-5.61-5.61-5.61s-5.61,2.51-5.61,5.61,2.51,5.61,5.61,5.61,5.61-2.51,5.61-5.61"/>
          <path class="cls-51" d="m1866.82,644.7s.22-4.84,5.61-9.67v9.67h-5.61Z"/>
          <path class="cls-51" d="m1878.03,644.7s-.22-4.84-5.61-9.67v9.67h5.61Z"/>
        </g>
      </g>
    </g>
    <g id="RISOLE">
      <g class="cls-3">
        <g class="cls-26">
          <path class="cls-45" d="m1871.05,146.59l-7.37,7.37c-.63.63-.5,1.68.26,2.13,2.59,1.52,5.97,1.18,8.19-1.04,2.22-2.22,2.57-5.61,1.04-8.19-.45-.76-1.5-.89-2.13-.26"/>
          <path class="cls-51" d="m1877.98,145.92l-8.35,8.35c-.71.71-.57,1.9.3,2.41,2.93,1.73,6.76,1.33,9.28-1.18,2.52-2.52,2.91-6.35,1.18-9.28-.51-.86-1.7-1.01-2.41-.3"/>
        </g>
      </g>
    </g>
    <g id="EMPADA">
      <g class="cls-2">
        <g class="cls-20">
          <path class="cls-51" d="m1878.77,837.87h-5.9l.52,2.18c.2.81.7,1.43,1.33,1.63.49.16,1.03.3,1.6.4.74.14,1.43.21,2.06.23.61-.03,1.28-.1,2-.23.57-.11,1.1-.25,1.6-.4.63-.2,1.13-.82,1.33-1.63l.52-2.18h-5.07Z"/>
          <path class="cls-45" d="m1883.83,837.87c0,.95-2.45,1.72-5.48,1.72s-5.48-.77-5.48-1.72,2.45-1.72,5.48-1.72,5.48.77,5.48,1.72"/>
          <path class="cls-51" d="m1866.79,837.87h-5.9l.52,2.18c.2.81.7,1.43,1.33,1.63.49.16,1.03.3,1.6.4.74.14,1.43.21,2.06.23.61-.03,1.28-.1,2-.23.57-.11,1.1-.25,1.6-.4.63-.2,1.13-.82,1.33-1.63l.52-2.18h-5.07Z"/>
          <path class="cls-45" d="m1871.86,837.87c0,.95-2.45,1.72-5.48,1.72s-5.48-.77-5.48-1.72,2.45-1.72,5.48-1.72,5.48.77,5.48,1.72"/>
          <path class="cls-51" d="m1872.78,843.18h-5.9l.52,2.18c.2.81.7,1.43,1.33,1.63.49.16,1.03.3,1.6.4.74.14,1.43.21,2.06.23.61-.03,1.28-.1,2-.23.57-.11,1.1-.25,1.6-.4.63-.2,1.13-.82,1.33-1.63l.52-2.18h-5.07Z"/>
          <path class="cls-45" d="m1877.85,843.18c0,.95-2.45,1.72-5.48,1.72s-5.48-.77-5.48-1.72,2.45-1.72,5.48-1.72,5.48.77,5.48,1.72"/>
        </g>
      </g>
    </g>
    <g id="BOLINHO_OU_BOLIVIANO" data-name="BOLINHO OU BOLIVIANO">
      <g class="cls-4">
        <g class="cls-12">
          <path class="cls-45" d="m1883.29,247.14c0-2.24-1.82-4.06-4.06-4.06s-4.06,1.82-4.06,4.06,1.82,4.06,4.06,4.06,4.06-1.82,4.06-4.06"/>
          <path class="cls-45" d="m1869.56,247.14c0-2.24-1.82-4.06-4.06-4.06s-4.06,1.82-4.06,4.06,1.82,4.06,4.06,4.06,4.06-1.82,4.06-4.06"/>
          <path class="cls-51" d="m1878.03,248.43c0-3.1-2.51-5.61-5.61-5.61s-5.61,2.51-5.61,5.61,2.51,5.61,5.61,5.61,5.61-2.51,5.61-5.61"/>
        </g>
      </g>
    </g>
    <g id="BOLINHO_OU_BOLIVIANO-2" data-name="BOLINHO OU BOLIVIANO">
      <g class="cls-38">
        <g class="cls-5">
          <path class="cls-45" d="m1883.29,541.56c0-2.24-1.82-4.06-4.06-4.06s-4.06,1.82-4.06,4.06,1.82,4.06,4.06,4.06,4.06-1.82,4.06-4.06"/>
          <path class="cls-45" d="m1869.56,541.56c0-2.24-1.82-4.06-4.06-4.06s-4.06,1.82-4.06,4.06,1.82,4.06,4.06,4.06,4.06-1.82,4.06-4.06"/>
          <path class="cls-51" d="m1878.03,542.86c0-3.1-2.51-5.61-5.61-5.61s-5.61,2.51-5.61,5.61,2.51,5.61,5.61,5.61,5.61-2.51,5.61-5.61"/>
        </g>
      </g>
    </g>
    <g id="QUIBE1">
      <g class="cls-16">
        <g class="cls-27">
          <path class="cls-54" d="m1873.76,50.27s-3.3,3.55-3.61,10.1c6.54-.31,10.1-3.61,10.1-3.61,0,0,3.3-3.55,3.61-10.1-6.54.31-10.1,3.61-10.1,3.61"/>
          <path class="cls-54" d="m1864.48,45.41s-3.3,3.55-3.61,10.1c6.54-.31,10.1-3.61,10.1-3.61,0,0,3.3-3.55,3.61-10.1-6.54.31-10.1,3.61-10.1,3.61"/>
          <path class="cls-58" d="m1869.12,47.84s-3.3,3.55-3.61,10.1c6.54-.31,10.1-3.61,10.1-3.61,0,0,3.3-3.55,3.61-10.1-6.54.31-10.1,3.61-10.1,3.61"/>
        </g>
      </g>
    </g>
    <g id="QUIBE2">
      <g class="cls-6">
        <g class="cls-8">
          <path class="cls-51" d="m1873.62,940.35s-2.97,3.2-3.25,9.09c5.89-.28,9.09-3.25,9.09-3.25,0,0,2.97-3.2,3.25-9.09-5.89.28-9.09,3.25-9.09,3.25"/>
          <path class="cls-51" d="m1865.27,935.98s-2.97,3.2-3.25,9.09c5.89-.28,9.09-3.25,9.09-3.25,0,0,2.97-3.2,3.25-9.09-5.89.28-9.09,3.25-9.09,3.25"/>
          <path class="cls-45" d="m1869.44,938.16s-2.97,3.2-3.25,9.09c5.89-.28,9.09-3.25,9.09-3.25,0,0,2.97-3.2,3.25-9.09-5.89.28-9.09,3.25-9.09,3.25"/>
        </g>
      </g>
    </g>
    <g id="RABO_DE_TATU" data-name="RABO DE TATU">
      <g class="cls-40">
        <g class="cls-25">
          <path class="cls-45" d="m1862.73,352.42l6.8-12.87c.23-.44.82-.55,1.19-.21l5.39,4.81c.37.33.33.93-.09,1.21l-12.18,8.06c-.66.44-1.47-.3-1.1-1"/>
          <path class="cls-51" d="m1868.47,352.65l6.8-12.87c.23-.44.82-.55,1.19-.21l5.39,4.81c.37.33.33.93-.09,1.21l-12.18,8.06c-.66.44-1.47-.3-1.1-1"/>
        </g>
      </g>
    </g>
    <g id="PASTEL">
      <g class="cls-24">
        <g class="cls-34">
          <path class="cls-45" d="m1872.66,440.11l-9.98,9.98c2.75,2.76,7.22,2.76,9.98,0,2.75-2.75,2.75-7.22,0-9.98"/>
          <path class="cls-51" d="m1879.81,438.87l-10.8,10.8c2.98,2.98,7.82,2.98,10.8,0,2.98-2.98,2.98-7.82,0-10.8"/>
        </g>
      </g>
    </g>
    <g id="ENROLADINHO">
      <g class="cls-13">
        <g class="cls-30">
          <path class="cls-45" d="m1863.52,748.18l-.78-.78c-1.07-1.07-1.07-2.81,0-3.88l7.32-7.32c1.07-1.07,2.81-1.07,3.88,0l.78.78c1.07,1.07,1.07,2.81,0,3.88l-7.32,7.32c-1.07,1.07-2.81,1.07-3.88,0"/>
          <path class="cls-51" d="m1869.05,750.14l-.9-.9c-1.22-1.22-1.22-3.22,0-4.44l8.38-8.38c1.22-1.22,3.22-1.22,4.44,0l.9.9c1.22,1.22,1.22,3.22,0,4.44l-8.38,8.38c-1.22,1.22-3.22,1.22-4.44,0"/>
        </g>
      </g>
    </g>
  </g>
  <g>
    <g id="COXINHA-2" data-name="COXINHA">
      <g class="cls-32">
        <g class="cls-10">
          <path class="cls-45" d="m67.1,640.56c0-2.24-1.82-4.06-4.06-4.06s-4.06,1.82-4.06,4.06,1.82,4.06,4.06,4.06,4.06-1.82,4.06-4.06"/>
          <path class="cls-45" d="m58.98,640.56s.16-3.5,4.06-7.01v7.01h-4.06Z"/>
          <path class="cls-45" d="m67.1,640.56s-.16-3.5-4.06-7.01v7.01h4.06Z"/>
          <path class="cls-45" d="m53.37,640.56c0-2.24-1.82-4.06-4.06-4.06s-4.06,1.82-4.06,4.06,1.82,4.06,4.06,4.06,4.06-1.82,4.06-4.06"/>
          <path class="cls-45" d="m45.25,640.56s.16-3.5,4.06-7.01v7.01h-4.06Z"/>
          <path class="cls-45" d="m53.37,640.56s-.16-3.5-4.06-7.01v7.01h4.06Z"/>
          <path class="cls-51" d="m61.84,644.7c0-3.1-2.51-5.61-5.61-5.61s-5.61,2.51-5.61,5.61,2.51,5.61,5.61,5.61,5.61-2.51,5.61-5.61"/>
          <path class="cls-51" d="m50.63,644.7s.22-4.84,5.61-9.67v9.67h-5.61Z"/>
          <path class="cls-51" d="m61.84,644.7s-.22-4.84-5.61-9.67v9.67h5.61Z"/>
        </g>
      </g>
    </g>
    <g id="RISOLE-2" data-name="RISOLE">
      <g class="cls-19">
        <g class="cls-33">
          <path class="cls-45" d="m54.86,146.59l-7.37,7.37c-.63.63-.5,1.68.26,2.13,2.59,1.52,5.97,1.18,8.19-1.04,2.22-2.22,2.57-5.61,1.04-8.19-.45-.76-1.5-.89-2.13-.26"/>
          <path class="cls-51" d="m61.79,145.92l-8.35,8.35c-.71.71-.57,1.9.3,2.41,2.93,1.73,6.76,1.33,9.28-1.18,2.52-2.52,2.91-6.35,1.18-9.28-.51-.86-1.7-1.01-2.41-.3"/>
        </g>
      </g>
    </g>
    <g id="EMPADA-2" data-name="EMPADA">
      <g class="cls-21">
        <g class="cls-39">
          <path class="cls-51" d="m62.58,837.87h-5.9l.52,2.18c.2.81.7,1.43,1.33,1.63.49.16,1.03.3,1.6.4.74.14,1.43.21,2.06.23.61-.03,1.28-.1,2-.23.57-.11,1.1-.25,1.6-.4.63-.2,1.13-.82,1.33-1.63l.52-2.18h-5.07Z"/>
          <path class="cls-45" d="m67.64,837.87c0,.95-2.45,1.72-5.48,1.72s-5.48-.77-5.48-1.72,2.45-1.72,5.48-1.72,5.48.77,5.48,1.72"/>
          <path class="cls-51" d="m50.6,837.87h-5.9l.52,2.18c.2.81.7,1.43,1.33,1.63.49.16,1.03.3,1.6.4.74.14,1.43.21,2.06.23.61-.03,1.28-.1,2-.23.57-.11,1.1-.25,1.6-.4.63-.2,1.13-.82,1.33-1.63l.52-2.18h-5.07Z"/>
          <path class="cls-45" d="m55.67,837.87c0,.95-2.45,1.72-5.48,1.72s-5.48-.77-5.48-1.72,2.45-1.72,5.48-1.72,5.48.77,5.48,1.72"/>
          <path class="cls-51" d="m56.59,843.18h-5.9l.52,2.18c.2.81.7,1.43,1.33,1.63.49.16,1.03.3,1.6.4.74.14,1.43.21,2.06.23.61-.03,1.28-.1,2-.23.57-.11,1.1-.25,1.6-.4.63-.2,1.13-.82,1.33-1.63l.52-2.18h-5.07Z"/>
          <path class="cls-45" d="m61.65,843.18c0,.95-2.45,1.72-5.48,1.72s-5.48-.77-5.48-1.72,2.45-1.72,5.48-1.72,5.48.77,5.48,1.72"/>
        </g>
      </g>
    </g>
    <g id="BOLINHO_OU_BOLIVIANO-3" data-name="BOLINHO OU BOLIVIANO">
      <g class="cls-22">
        <g class="cls-14">
          <path class="cls-45" d="m67.1,247.14c0-2.24-1.82-4.06-4.06-4.06s-4.06,1.82-4.06,4.06,1.82,4.06,4.06,4.06,4.06-1.82,4.06-4.06"/>
          <path class="cls-45" d="m53.37,247.14c0-2.24-1.82-4.06-4.06-4.06s-4.06,1.82-4.06,4.06,1.82,4.06,4.06,4.06,4.06-1.82,4.06-4.06"/>
          <path class="cls-51" d="m61.84,248.43c0-3.1-2.51-5.61-5.61-5.61s-5.61,2.51-5.61,5.61,2.51,5.61,5.61,5.61,5.61-2.51,5.61-5.61"/>
        </g>
      </g>
    </g>
    <g id="BOLINHO_OU_BOLIVIANO-4" data-name="BOLINHO OU BOLIVIANO">
      <g class="cls-11">
        <g class="cls-28">
          <path class="cls-45" d="m67.1,541.56c0-2.24-1.82-4.06-4.06-4.06s-4.06,1.82-4.06,4.06,1.82,4.06,4.06,4.06,4.06-1.82,4.06-4.06"/>
          <path class="cls-45" d="m53.37,541.56c0-2.24-1.82-4.06-4.06-4.06s-4.06,1.82-4.06,4.06,1.82,4.06,4.06,4.06,4.06-1.82,4.06-4.06"/>
          <path class="cls-51" d="m61.84,542.86c0-3.1-2.51-5.61-5.61-5.61s-5.61,2.51-5.61,5.61,2.51,5.61,5.61,5.61,5.61-2.51,5.61-5.61"/>
        </g>
      </g>
    </g>
    <g id="QUIBE1-2" data-name="QUIBE1">
      <g class="cls-42">
        <g class="cls-23">
          <path class="cls-54" d="m57.57,50.27s-3.3,3.55-3.61,10.1c6.54-.31,10.1-3.61,10.1-3.61,0,0,3.3-3.55,3.61-10.1-6.54.31-10.1,3.61-10.1,3.61"/>
          <path class="cls-54" d="m48.29,45.41s-3.3,3.55-3.61,10.1c6.54-.31,10.1-3.61,10.1-3.61,0,0,3.3-3.55,3.61-10.1-6.54.31-10.1,3.61-10.1,3.61"/>
          <path class="cls-58" d="m52.93,47.84s-3.3,3.55-3.61,10.1c6.54-.31,10.1-3.61,10.1-3.61,0,0,3.3-3.55,3.61-10.1-6.54.31-10.1,3.61-10.1,3.61"/>
        </g>
      </g>
    </g>
    <g id="QUIBE2-2" data-name="QUIBE2">
      <g class="cls-7">
        <g class="cls-29">
          <path class="cls-51" d="m57.43,940.35s-2.97,3.2-3.25,9.09c5.89-.28,9.09-3.25,9.09-3.25,0,0,2.97-3.2,3.25-9.09-5.89.28-9.09,3.25-9.09,3.25"/>
          <path class="cls-51" d="m49.08,935.98s-2.97,3.2-3.25,9.09c5.89-.28,9.09-3.25,9.09-3.25,0,0,2.97-3.2,3.25-9.09-5.89.28-9.09,3.25-9.09,3.25"/>
          <path class="cls-45" d="m53.25,938.16s-2.97,3.2-3.25,9.09c5.89-.28,9.09-3.25,9.09-3.25,0,0,2.97-3.2,3.25-9.09-5.89.28-9.09,3.25-9.09,3.25"/>
        </g>
      </g>
    </g>
    <g id="RABO_DE_TATU-2" data-name="RABO DE TATU">
      <g class="cls-17">
        <g class="cls-18">
          <path class="cls-45" d="m46.54,352.42l6.8-12.87c.23-.44.82-.55,1.19-.21l5.39,4.81c.37.33.33.93-.09,1.21l-12.18,8.06c-.66.44-1.47-.3-1.1-1"/>
          <path class="cls-51" d="m52.27,352.65l6.8-12.87c.23-.44.82-.55,1.19-.21l5.39,4.81c.37.33.33.93-.09,1.21l-12.18,8.06c-.66.44-1.47-.3-1.1-1"/>
        </g>
      </g>
    </g>
    <g id="PASTEL-2" data-name="PASTEL">
      <g class="cls-9">
        <g class="cls-15">
          <path class="cls-45" d="m56.47,440.11l-9.98,9.98c2.75,2.76,7.22,2.76,9.98,0,2.75-2.75,2.75-7.22,0-9.98"/>
          <path class="cls-51" d="m63.62,438.87l-10.8,10.8c2.98,2.98,7.82,2.98,10.8,0,2.98-2.98,2.98-7.82,0-10.8"/>
        </g>
      </g>
    </g>
    <g id="ENROLADINHO-2" data-name="ENROLADINHO">
      <g class="cls-35">
        <g class="cls-41">
          <path class="cls-45" d="m47.33,748.18l-.78-.78c-1.07-1.07-1.07-2.81,0-3.88l7.32-7.32c1.07-1.07,2.81-1.07,3.88,0l.78.78c1.07,1.07,1.07,2.81,0,3.88l-7.32,7.32c-1.07,1.07-2.81,1.07-3.88,0"/>
          <path class="cls-51" d="m52.86,750.14l-.9-.9c-1.22-1.22-1.22-3.22,0-4.44l8.38-8.38c1.22-1.22,3.22-1.22,4.44,0l.9.9c1.22,1.22,1.22,3.22,0,4.44l-8.38,8.38c-1.22,1.22-3.22,1.22-4.44,0"/>
        </g>
      </g>
    </g>
  </g>
  <rect class="cls-1" y="530.33" width="1920" height="549.67"/>
</svg>